{
.appVersion = "1147";
DisplayStrings = (
"a aah naan abott abduct action admit aeon after again ahoy ajust faker alike logjam an ape aorta aqua arc applejack basketball expatriot autumn gavel awe axe says bedazzle  b) b bad dribble ribcage cabdriver bed obfuscate hobgoblins bhindi bicycle bjorn liebknecht bliss crabmill snubnose boss subpoena subquality brick absolute debt butter obvious bwana subxhosa by jekabzeel  c) c cab ecbolic lucca anecdote cedar flicflac marcgravia cheese oscillate acjo chicken cliff acme picnic cobbler pincpinc lacquer crime tropics object cute mechanicville arcticward cx cypriot czech",
greeted,
V,
"/Wacute/Wgrave",
W,
X,
Y,
Z,
T,
U,
"Þ",
M,
I,
F,
"/Hbar",
"Æ",
G,
C,
D,
B,
J,
"/Ldotbelow",
O,
"/figuredash would",
"o/itilde o",
"/eng",
m,
"/idotless",
j,
"/jdotless",
l,
"l/lcaron",
b,
t,
"/tbar",
a,
"nine instances",
"/oe",
p,
p,
d,
"/kgreenlandic",
q,
r,
s,
"ß",
u,
v,
"/schwa",
c,
g,
".,;",
o,
w,
"/fi",
"/fl",
"/f_f",
" ",
" ",
";",
";",
"/ellipsis",
"·",
"·",
"Ninefont*",
"/fraction"
);
classes = (
{
automatic = 1;
code = " onesuperior twosuperior threesuperior ";
name = sups2;
},
{
automatic = 1;
code = " one two three ";
name = sups1;
},
{
automatic = 1;
code = " zero one two three four five six seven eight nine ";
name = ordn1;
},
{
automatic = 1;

glyphs = (
{
color = 4;
glyphname = A;
lastChange = "2018-06-05 03:49:40 +0000";
layers = (
{
anchors = (
{
name = btm;
position = "{339, 0}";
},
{
name = top;
position = "{339, 975}";
}
);
guideLines = (
{
position = "{605, 866}";
}
);
layerId = "184835E3-72D9-430C-A639-2454AC4A0BE8";
paths = (
{
closed = 1;
nodes = (
"139 180 LINE",
"460 180 LINE",
"434 258 LINE",
"161 258 LINE {name = hr00;}"
);
},
{
closed = 1;
nodes = (
"243 642 LINE",
"65 129 LINE SMOOTH",
"50 85 OFFCURVE",
"16 64 OFFCURVE",
"-20 64 CURVE",
"-20 40 OFFCURVE",
"-12 16 OFFCURVE",
"3 0 CURVE",
"226 0 LINE",
"241 16 OFFCURVE",
"249 40 OFFCURVE",
"249 64 CURVE",
"209 64 OFFCURVE",
"185 79 OFFCURVE",
"185 115 CURVE SMOOTH",
"185 127 OFFCURVE",
"189 142 OFFCURVE",
"194 159 CURVE SMOOTH",
"327 623 LINE"
);
},
{
closed = 1;
nodes = (
"144 698 LINE",
"129 680 OFFCURVE",
"120 654 OFFCURVE",
"120 626 CURVE",
"235 626 OFFCURVE",
"304 591 OFFCURVE",
"328 506 CURVE SMOOTH",
"427 159 LINE SMOOTH",
"432 140 OFFCURVE",
"434 124 OFFCURVE",
"434 112 CURVE SMOOTH",
"434 78 OFFCURVE",
"415 64 OFFCURVE",
"380 64 CURVE",
"380 40 OFFCURVE",
"388 16 OFFCURVE",
"403 0 CURVE",
"675 0 LINE",
"690 16 OFFCURVE",
"698 40 OFFCURVE",
"698 64 CURVE",
"663 64 OFFCURVE",
"626 85 OFFCURVE",
"612 129 CURVE SMOOTH",
"427 698 LINE"
);
}
);
width = 678;
}
);
leftKerningGroup = A;
rightKerningGroup = A;
unicode = 0041;
},
{
color = 4;
glyphname = AE;
lastChange = "2018-06-05 16:00:00 +0000";
layers = (
{
anchors = (
{
name = btm;
position = "{341, -12}";
},
{
name = top;
position = "{341, 963}";
}
);
layerId = "184835E3-72D9-430C-A639-2454AC4A0BE8";
paths = (
{
closed = 1;
nodes = (
"70 147 LINE",
"431 147 LINE",
"405 225 LINE",
"73 225 LINE {name = hr01;}"
);
},
{
closed = 1;
nodes = (
"214 607 LINE",
"-33 111 LINE SMOOTH",
"-52 72 OFFCURVE",
"-85 47 OFFCURVE",
"-120 47 CURVE {name = hr02;}",
"-120 24 OFFCURVE",
"-112 0 OFFCURVE",
"-98 -17 CURVE",
"134 -17 LINE",
"149 0 OFFCURVE",
"157 24 OFFCURVE",
"157 47 CURVE",
"119 47 OFFCURVE",
"95 61 OFFCURVE",
"95 92 CURVE SMOOTH",
"95 105 OFFCURVE",
"99 122 OFFCURVE",
"109 142 CURVE SMOOTH",
"314 579 LINE"
);
},
{
closed = 1;
nodes = (
"44 663 OFFCURVE",
"36 636 OFFCURVE",
"36 609 CURVE",
"49 611 OFFCURVE",
"63 612 OFFCURVE",
"75 612 CURVE SMOOTH",
"143 612 OFFCURVE",
"188 585 OFFCURVE",
"188 544 CURVE SMOOTH",
"188 534 OFFCURVE",
"185 523 OFFCURVE",
"180 511 CURVE {name = hr03;}",
"262 573 LINE",
"314 579 LINE",
"314 98 LINE SMOOTH",
"314 60 OFFCURVE",
"297 46 OFFCURVE",
"253 46 CURVE",
"253 23 OFFCURVE",
"262 0 OFFCURVE",
"276 -17 CURVE {name = hr04;}",
"684 -17 LINE",
"708 -28 OFFCURVE",
"736 -33 OFFCURVE",
"759 -33 CURVE {name = hr05;}",
"778 3 OFFCURVE",
"791 128 OFFCURVE",
"791 167 CURVE",
"709 167 LINE",
"690 111 OFFCURVE",
"652 71 OFFCURVE",
"584 71 CURVE SMOOTH {name = hr06;}",
"427 71 LINE",
"478 42 LINE {name = hr07;}",
"478 325 LINE",
"418 301 LINE",
"561 301 LINE SMOOTH",
"598 301 OFFCURVE",
"626 284 OFFCURVE",
"626 231 CURVE",
"655 231 OFFCURVE",
"684 239 OFFCURVE",
"704 252 CURVE",
"704 428 LINE",
"683 441 OFFCURVE",
"655 449 OFFCURVE",
"626 449 CURVE",
"626 395 OFFCURVE",
"598 374 OFFCURVE",
"561 374 CURVE SMOOTH",
"444 374 LINE {name = hr08;}",
"478 356 LINE",
"478 619 LINE",
"381 596 LINE",
"574 596 LINE SMOOTH",
"627 596 OFFCURVE",
"655 551 OFFCURVE",
"669 508 CURVE",
"694 514 OFFCURVE",
"732 531 OFFCURVE",
"749 546 CURVE",
"749 579 OFFCURVE",
"735 665 OFFCURVE",
"719 698 CURVE",
"694 698 OFFCURVE",
"667 692 OFFCURVE",
"641 681 CURVE",
"58 681 LINE"
);
}
);
width = 801;
}
);
leftKerningGroup = A;
rightKerningGroup = E;
rightMetricsKey = E;
unicode = 00C6;
userData = {
com.typemytype.robofont.guides = (
{
angle = 0;
isGlobal = 0;
magnetic = 5;
x = 0;
y = 1363;
}
);
};
},
{
color = 4;
glyphname = B;
lastChange = "2018-06-05 16:01:36 +0000";
layers = (
{
anchors = (
{
name = btm;
position = "{348, -5}";
},
{
name = top;
position = "{348, 970}";
}
);
layerId = "184835E3-72D9-430C-A639-2454AC4A0BE8";
paths = (
{
closed = 1;
nodes = (
"585 -12 OFFCURVE",
"643 79 OFFCURVE",
"643 182 CURVE SMOOTH",
"643 289 OFFCURVE",
"597 346 OFFCURVE",
"482 370 CURVE",
"574 408 OFFCURVE",
"605 459 OFFCURVE",
"605 534 CURVE SMOOTH",
"605 612 OFFCURVE",
"567 709 OFFCURVE",
"292 709 CURVE SMOOTH",
"231 709 OFFCURVE",
"149 698 OFFCURVE",
"78 698 CURVE",
"64 681 OFFCURVE",
"56 658 OFFCURVE",
"56 635 CURVE",
"101 635 OFFCURVE",
"118 621 OFFCURVE",
"118 584 CURVE SMOOTH",
"118 114 LINE SMOOTH",
"118 77 OFFCURVE",
"101 63 OFFCURVE",
"56 63 CURVE",
"56 40 OFFCURVE",
"64 17 OFFCURVE",
"78 0 CURVE",
"148 0 OFFCURVE",
"227 -12 OFFCURVE",
"290 -12 CURVE SMOOTH"
);
},
{
closed = 1;
nodes = (
"308 65 OFFCURVE",
"292 67 OFFCURVE",
"283 68 CURVE",
"283 321 LINE {name = hr00;}",
"291 321 OFFCURVE",
"305 322 OFFCURVE",
"316 322 CURVE SMOOTH",
"423 322 OFFCURVE",
"465 276 OFFCURVE",
"465 186 CURVE SMOOTH",
"465 107 OFFCURVE",
"419 65 OFFCURVE",
"325 65 CURVE SMOOTH"
);
},
{
closed = 1;
nodes = (
"304 394 OFFCURVE",
"292 395 OFFCURVE",
"283 396 CURVE",
"283 626 LINE",
"293 629 OFFCURVE",
"310 630 OFFCURVE",
"324 630 CURVE SMOOTH",
"409 630 OFFCURVE",
"447 584 OFFCURVE",
"447 512 CURVE SMOOTH",
"447 440 OFFCURVE",
"410 394 OFFCURVE",
"313 394 CURVE SMOOTH"
);
}
);
width = 698;
}
);
leftKerningGroup = H;
rightKerningGroup = B;
unicode = 0042;
userData = {
com.typemytype.robofont.guides = (
{
angle = 0;
isGlobal = 0;
magnetic = 5;
x = 0;
y = 1410;
},
{
angle = 0;
isGlobal = 0;
magnetic = 5;
x = 0;
y = 140;
}
);
};
},
{
color = 4;
glyphname = C;
lastChange = "2018-06-05 16:00:24 +0000";
layers = (
{
anchors = (
{
name = btm;
position = "{292, -5}";
},
{
name = top;
position = "{292, 970}";
}
);
layerId = "184835E3-72D9-430C-A639-2454AC4A0BE8";
paths = (
{
closed = 1;
nodes = (
"555 543 OFFCURVE",
"552 645 OFFCURVE",
"526 709 CURVE",
"505 708 OFFCURVE",
"457 696 OFFCURVE",
"437 687 CURVE",
"409 700 OFFCURVE",
"362 709 OFFCURVE",
"333 709 CURVE SMOOTH",
"148 709 OFFCURVE",
"28 583 OFFCURVE",
"28 348 CURVE SMOOTH",
"28 102 OFFCURVE",
"173 -14 OFFCURVE",
"344 -14 CURVE SMOOTH",
"479 -14 OFFCURVE",
"554 55 OFFCURVE",
"554 102 CURVE SMOOTH",
"554 121 OFFCURVE",
"543 150 OFFCURVE",
"526 162 CURVE",
"509 136 OFFCURVE",
"464 108 OFFCURVE",
"403 108 CURVE SMOOTH",
"296 108 OFFCURVE",
"195 190 OFFCURVE",
"195 397 CURVE SMOOTH",
"195 564 OFFCURVE",
"262 622 OFFCURVE",
"335 622 CURVE SMOOTH",
"403 622 OFFCURVE",
"451 570 OFFCURVE",
"462 483 CURVE",
"555 483 LINE {name = hr00;}"
);
}
);
width = 560;
}
);
leftKerningGroup = O;
leftMetricsKey = O;
rightKerningGroup = C;
unicode = 0043;
},
{
color = 4;
glyphname = D;
lastChange = "2018-06-05 16:01:10 +0000";
layers = (
{
anchors = (
{
name = btm;
position = "{322, -5}";
},
{
name = top;
position = "{322, 970}";
}
);
layerId = "184835E3-72D9-430C-A639-2454AC4A0BE8";
paths = (
{
closed = 1;
nodes = (
"529 -11 OFFCURVE",
"633 159 OFFCURVE",
"633 364 CURVE SMOOTH",
"633 552 OFFCURVE",
"529 710 OFFCURVE",
"298 710 CURVE SMOOTH",
"268 710 OFFCURVE",
"172 698 OFFCURVE",
"40 698 CURVE",
"26 682 OFFCURVE",
"18 659 OFFCURVE",
"18 635 CURVE",
"62 635 OFFCURVE",
"80 621 OFFCURVE",
"80 585 CURVE SMOOTH",
"80 115 LINE SMOOTH",
"80 78 OFFCURVE",
"62 64 OFFCURVE",
"18 64 CURVE",
"18 40 OFFCURVE",
"26 18 OFFCURVE",
"40 0 CURVE",
"185 0 OFFCURVE",
"238 -11 OFFCURVE",
"284 -11 CURVE SMOOTH"
);
},
{
closed = 1;
nodes = (
"266 72 OFFCURVE",
"254 72 OFFCURVE",
"244 74 CURVE",
"244 628 LINE",
"251 630 OFFCURVE",
"259 630 OFFCURVE",
"268 630 CURVE SMOOTH",
"381 630 OFFCURVE",
"455 543 OFFCURVE",
"455 349 CURVE SMOOTH {name = hr00;}",
"455 147 OFFCURVE",
"385 72 OFFCURVE",
"276 72 CURVE SMOOTH"
);
}
);
width = 661;
}
);
leftKerningGroup = H;
leftMetricsKey = H;
rightKerningGroup = O;
rightMetricsKey = O;
unicode = 0044;
userData = {
com.typemytype.robofont.guides = (
{
angle = 0;
isGlobal = 0;
magnetic = 5;
x = 0;
y = 1410;
},
{
angle = 0;
isGlobal = 0;
magnetic = 5;
x = 0;
y = 140;
}
);
};
},
{
color = 4;
glyphname = E;
lastChange = "2018-06-05 14:39:41 +0000";
layers = (
{
anchors = (
{
name = btm;
position = "{302, -12}";
},
{
name = top;
position = "{302, 963}";
}
);
background = {
paths = (
{
closed = 1;
nodes = (
"209 313 LINE",
"539 313 LINE",
"539 397 LINE",
"209 397 LINE {name = hr00;}"
);
},
{
closed = 1;
nodes = (
"299 16 OFFCURVE",
"308 40 OFFCURVE",
"308 64 CURVE",
"264 64 OFFCURVE",
"248 77 OFFCURVE",
"248 114 CURVE SMOOTH",
"248 584 LINE SMOOTH",
"248 621 OFFCURVE",
"264 635 OFFCURVE",
"308 635 CURVE",
"308 658 OFFCURVE",
"299 682 OFFCURVE",
"286 698 CURVE",
"41 698 LINE",
"27 682 OFFCURVE",
"19 658 OFFCURVE",
"19 635 CURVE {name = hr03;}",
"63 635 OFFCURVE",
"79 621 OFFCURVE",
"79 584 CURVE SMOOTH",
"79 114 LINE SMOOTH",
"79 77 OFFCURVE",
"63 64 OFFCURVE",
"19 64 CURVE",
"19 40 OFFCURVE",
"27 16 OFFCURVE",
"41 0 CURVE {name = hr04;}",
"286 0 LINE"
);
},
{
closed = 1;
nodes = (
"686 16 OFFCURVE",
"694 40 OFFCURVE",
"694 64 CURVE",
"651 64 OFFCURVE",
"635 77 OFFCURVE",
"635 114 CURVE SMOOTH",
"635 584 LINE SMOOTH",
"635 621 OFFCURVE",
"651 635 OFFCURVE",
"694 635 CURVE",
"694 658 OFFCURVE",
"686 682 OFFCURVE",
"672 698 CURVE",
"428 698 LINE",
"414 682 OFFCURVE",
"406 658 OFFCURVE",
"406 635 CURVE",
"449 635 OFFCURVE",
"466 621 OFFCURVE",
"466 584 CURVE SMOOTH",
"466 114 LINE SMOOTH",
"466 77 OFFCURVE",
"449 64 OFFCURVE",
"406 64 CURVE",
"406 40 OFFCURVE",
"414 16 OFFCURVE",
"428 0 CURVE",
"672 0 LINE"
);
}
);
};
layerId = "184835E3-72D9-430C-A639-2454AC4A0BE8";
paths = (
{
closed = 1;
nodes = (
"188 322 LINE",
"319 322 LINE SMOOTH",
"356 322 OFFCURVE",
"384 299 OFFCURVE",
"384 246 CURVE",
"413 246 OFFCURVE",
"443 254 OFFCURVE",
"464 267 CURVE",
"464 451 LINE",
"442 464 OFFCURVE",
"413 472 OFFCURVE",
"383 472 CURVE",
"383 418 OFFCURVE",
"355 399 OFFCURVE",
"318 399 CURVE SMOOTH",
"213 399 LINE {name = hr02;}",
"246 381 LINE",
"246 645 LINE",
"146 613 LINE",
"355 613 LINE SMOOTH",
"408 613 OFFCURVE",
"436 566 OFFCURVE",
"451 522 CURVE",
"475 527 OFFCURVE",
"529 545 OFFCURVE",
"546 561 CURVE",
"546 594 OFFCURVE",
"523 682 OFFCURVE",
"506 715 CURVE",
"481 715 OFFCURVE",
"449 709 OFFCURVE",
"425 698 CURVE",
"41 698 LINE",
"28 681 OFFCURVE",
"18 658 OFFCURVE",
"18 635 CURVE {name = hr03;}",
"62 635 OFFCURVE",
"79 621 OFFCURVE",
"79 584 CURVE SMOOTH",
"79 115 LINE SMOOTH",
"79 77 OFFCURVE",
"62 63 OFFCURVE",
"18 63 CURVE",
"18 40 OFFCURVE",
"28 17 OFFCURVE",
"41 0 CURVE {name = hr04;}",
"499 0 LINE",
"523 -11 OFFCURVE",
"533 -14 OFFCURVE",
"541 -16 CURVE",
"560 20 OFFCURVE",
"577 164 OFFCURVE",
"577 203 CURVE",
"470 204 LINE",
"452 148 OFFCURVE",
"425 88 OFFCURVE",
"367 88 CURVE SMOOTH",
"195 88 LINE",
"246 59 LINE {name = hr05;}",
"246 350 LINE {name = hr01;}"
);
}
);
width = 587;
}
);
leftKerningGroup = H;
leftMetricsKey = H;
rightKerningGroup = E;
unicode = 0045;
},
{
color = 4;
glyphname = F;
lastChange = "2018-06-05 15:59:45 +0000";
layers = (
{
anchors = (
{
name = btm;
position = "{272, 0}";
},
{
name = top;
position = "{272, 975}";
}
);
layerId = "184835E3-72D9-430C-A639-2454AC4A0BE8";
paths = (
{
closed = 1;
nodes = (
"338 612 LINE SMOOTH",
"405 612 OFFCURVE",
"437 569 OFFCURVE",
"451 525 CURVE",
"477 530 OFFCURVE",
"519 547 OFFCURVE",
"536 563 CURVE",
"536 596 OFFCURVE",
"520 682 OFFCURVE",
"503 714 CURVE",
"478 714 OFFCURVE",
"452 708 OFFCURVE",
"427 697 CURVE",
"45 697 LINE",
"31 681 OFFCURVE",
"22 658 OFFCURVE",
"22 634 CURVE",
"65 634 OFFCURVE",
"86 621 OFFCURVE",
"86 584 CURVE SMOOTH",
"86 114 LINE SMOOTH",
"86 77 OFFCURVE",
"72 64 OFFCURVE",
"18 64 CURVE",
"18 40 OFFCURVE",
"26 16 OFFCURVE",
"41 0 CURVE",
"378 0 LINE",
"392 16 OFFCURVE",
"396 44 OFFCURVE",
"396 68 CURVE",
"368 68 OFFCURVE",
"338 68 OFFCURVE",
"316 68 CURVE SMOOTH",
"260 68 OFFCURVE",
"250 90 OFFCURVE",
"250 127 CURVE SMOOTH",
"250 327 LINE",
"215 305 LINE",
"333 305 LINE SMOOTH",
"370 305 OFFCURVE",
"384 283 OFFCURVE",
"384 229 CURVE",
"414 229 OFFCURVE",
"444 237 OFFCURVE",
"465 251 CURVE",
"464 436 LINE",
"443 450 OFFCURVE",
"413 458 OFFCURVE",
"384 458 CURVE",
"384 404 OFFCURVE",
"370 380 OFFCURVE",
"332 380 CURVE SMOOTH",
"216 380 LINE",
"250 350 LINE",
"250 663 LINE",
"152 612 LINE {name = hr00;}"
);
}
);
width = 556;
}
);
leftKerningGroup = H;
leftMetricsKey = H;
rightKerningGroup = F;
unicode = 0046;
},
{
color = 4;
glyphname = G;
lastChange = "2018-06-05 16:01:54 +0000";
layers = (
{
anchors = (
{
name = btm;
position = "{340, -5}";
},
{
name = top;
position = "{340, 970}";
}
);
background = {
paths = (
{
closed = 1;
nodes = (
"813 1211 OFFCURVE",
"806 1438 OFFCURVE",
"750 1579 CURVE",
"702 1577 OFFCURVE",
"597 1552 OFFCURVE",
"551 1530 CURVE",
"489 1561 OFFCURVE",
"385 1580 OFFCURVE",
"319 1580 CURVE SMOOTH",
"-92 1580 OFFCURVE",
"-358 1300 OFFCURVE",
"-358 778 CURVE SMOOTH",
"-358 232 OFFCURVE",
"-37 -27 OFFCURVE",
"345 -27 CURVE SMOOTH",
"646 -27 OFFCURVE",
"810 125 OFFCURVE",
"810 232 CURVE SMOOTH",
"810 273 OFFCURVE",
"786 338 OFFCURVE",
"750 363 CURVE",
"712 306 OFFCURVE",
"612 245 OFFCURVE",
"476 245 CURVE SMOOTH",
"237 245 OFFCURVE",
"12 427 OFFCURVE",
"12 885 CURVE SMOOTH",
"12 1257 OFFCURVE",
"163 1387 OFFCURVE",
"326 1387 CURVE SMOOTH",
"476 1387 OFFCURVE",
"583 1270 OFFCURVE",
"607 1076 CURVE",
"813 1076 LINE {name = hr00;}"
);
}
);
};
layerId = "184835E3-72D9-430C-A639-2454AC4A0BE8";
paths = (
{
closed = 1;
nodes = (
"508 -14 OFFCURVE",
"614 43 OFFCURVE",
"614 78 CURVE SMOOTH",
"614 102 OFFCURVE",
"596 89 OFFCURVE",
"596 141 CURVE SMOOTH",
"596 256 LINE",
"611 262 OFFCURVE",
"631 264 OFFCURVE",
"652 264 CURVE",
"655 269 OFFCURVE",
"657 277 OFFCURVE",
"657 282 CURVE SMOOTH",
"657 297 OFFCURVE",
"648 349 OFFCURVE",
"588 349 CURVE SMOOTH",
"380 349 LINE",
"366 333 OFFCURVE",
"356 295 OFFCURVE",
"356 272 CURVE",
"419 272 OFFCURVE",
"449 258 OFFCURVE",
"449 223 CURVE SMOOTH",
"449 109 LINE",
"431 90 OFFCURVE",
"405 83 OFFCURVE",
"368 83 CURVE SMOOTH",
"271 83 OFFCURVE",
"195 153 OFFCURVE",
"195 365 CURVE SMOOTH",
"195 563 OFFCURVE",
"273 617 OFFCURVE",
"353 617 CURVE SMOOTH",
"425 617 OFFCURVE",
"483 570 OFFCURVE",
"497 483 CURVE",
"594 483 LINE",
"594 543 OFFCURVE",
"590 645 OFFCURVE",
"565 709 CURVE",
"544 708 OFFCURVE",
"497 696 OFFCURVE",
"477 687 CURVE",
"427 706 OFFCURVE",
"386 709 OFFCURVE",
"356 709 CURVE SMOOTH",
"164 709 OFFCURVE",
"28 584 OFFCURVE",
"28 339 CURVE SMOOTH",
"28 132 OFFCURVE",
"160 -14 OFFCURVE",
"373 -14 CURVE SMOOTH {name = hr00;}"
);
}
);
width = 667;
}
);
leftKerningGroup = O;
leftMetricsKey = O;
rightKerningGroup = G;
unicode = 0047;
},
{
color = 4;
glyphname = H;
lastChange = "2018-06-05 04:15:30 +0000";
layers = (
{
anchors = (
{
name = btm;
position = "{355, 0}";
},
{
name = top;
position = "{355, 975}";
}
);
background = {
paths = (
{
closed = 1;
nodes = (
"-29 697 LINE",
"309 697 LINE SMOOTH",
"391 697 OFFCURVE",
"453 669 OFFCURVE",
"453 551 CURVE",
"518 551 OFFCURVE",
"585 568 OFFCURVE",
"632 598 CURVE",
"631 988 LINE",
"584 1018 OFFCURVE",
"517 1036 OFFCURVE",
"452 1036 CURVE",
"452 917 OFFCURVE",
"390 879 OFFCURVE",
"308 879 CURVE SMOOTH",
"28 879 LINE {name = hr02;}",
"104 837 LINE",
"104 1434 LINE",
"-112 1362 LINE",
"358 1362 LINE SMOOTH",
"475 1362 OFFCURVE",
"538 1258 OFFCURVE",
"570 1161 CURVE",
"624 1173 OFFCURVE",
"739 1211 OFFCURVE",
"777 1245 CURVE",
"777 1320 OFFCURVE",
"726 1517 OFFCURVE",
"689 1588 CURVE",
"634 1588 OFFCURVE",
"563 1575 OFFCURVE",
"508 1552 CURVE",
"-345 1552 LINE",
"-376 1515 OFFCURVE",
"-395 1463 OFFCURVE",
"-395 1411 CURVE {name = hr03;}",
"-299 1411 OFFCURVE",
"-261 1380 OFFCURVE",
"-261 1298 CURVE SMOOTH",
"-261 254 LINE SMOOTH",
"-261 171 OFFCURVE",
"-299 141 OFFCURVE",
"-395 141 CURVE",
"-395 89 OFFCURVE",
"-376 36 OFFCURVE",
"-345 0 CURVE {name = hr04;}",
"621 0 LINE",
"674 -24 OFFCURVE",
"737 -36 OFFCURVE",
"789 -36 CURVE",
"831 45 OFFCURVE",
"868 358 OFFCURVE",
"868 444 CURVE",
"672 445 LINE",
"631 320 OFFCURVE",
"532 195 OFFCURVE",
"379 195 CURVE SMOOTH",
"-10 195 LINE",
"104 130 LINE {name = hr05;}",
"104 761 LINE {name = hr01;}"
);
}
);
};
layerId = "184835E3-72D9-430C-A639-2454AC4A0BE8";
paths = (
{
closed = 1;
nodes = (
"208 313 LINE",
"538 313 LINE",
"538 397 LINE",
"208 397 LINE {name = hr00;}"
);
},
{
closed = 1;
nodes = (
"298 16 OFFCURVE",
"307 40 OFFCURVE",
"307 64 CURVE",
"263 64 OFFCURVE",
"247 77 OFFCURVE",
"247 114 CURVE SMOOTH",
"247 584 LINE SMOOTH",
"247 621 OFFCURVE",
"263 635 OFFCURVE",
"307 635 CURVE",
"307 658 OFFCURVE",
"298 682 OFFCURVE",
"285 698 CURVE",
"40 698 LINE",
"26 682 OFFCURVE",
"18 658 OFFCURVE",
"18 635 CURVE {name = hr03;}",
"62 635 OFFCURVE",
"78 621 OFFCURVE",
"78 584 CURVE SMOOTH",
"78 114 LINE SMOOTH",
"78 77 OFFCURVE",
"62 64 OFFCURVE",
"18 64 CURVE",
"18 40 OFFCURVE",
"26 16 OFFCURVE",
"40 0 CURVE {name = hr04;}",
"285 0 LINE"
);
},
{
closed = 1;
nodes = (
"685 16 OFFCURVE",
"693 40 OFFCURVE",
"693 64 CURVE",
"650 64 OFFCURVE",
"634 77 OFFCURVE",
"634 114 CURVE SMOOTH",
"634 584 LINE SMOOTH",
"634 621 OFFCURVE",
"650 635 OFFCURVE",
"693 635 CURVE",
"693 658 OFFCURVE",
"685 682 OFFCURVE",
"671 698 CURVE",
"427 698 LINE",
"413 682 OFFCURVE",
"405 658 OFFCURVE",
"405 635 CURVE",
"448 635 OFFCURVE",
"465 621 OFFCURVE",
"465 584 CURVE SMOOTH",
"465 114 LINE SMOOTH",
"465 77 OFFCURVE",
"448 64 OFFCURVE",
"405 64 CURVE",
"405 40 OFFCURVE",
"413 16 OFFCURVE",
"427 0 CURVE",
"671 0 LINE"
);
}
);
width = 711;
}
);
leftKerningGroup = H;
rightKerningGroup = H;
unicode = 0048;
},
{
color = 4;
glyphname = Hbar;
lastChange = "2018-06-05 15:59:50 +0000";
layers = (
{
layerId = "184835E3-72D9-430C-A639-2454AC4A0BE8";
paths = (
{
closed = 1;
nodes = (
"201 267 LINE",
"562 267 LINE",
"536 349 LINE",
"204 349 LINE {name = hr00;}"
);
},
{
closed = 1;
nodes = (
"680 453 OFFCURVE",
"679 486 OFFCURVE",
"679 512 CURVE",
"31 512 LINE",
"31 434 LINE",
"663 434 LINE"
);
},
{
closed = 1;
nodes = (
"298 16 OFFCURVE",
"307 40 OFFCURVE",
"307 64 CURVE",
"263 64 OFFCURVE",
"247 77 OFFCURVE",
"247 114 CURVE SMOOTH",
"247 584 LINE SMOOTH",
"247 621 OFFCURVE",
"263 635 OFFCURVE",
"307 635 CURVE",
"307 658 OFFCURVE",
"298 682 OFFCURVE",
"285 698 CURVE",
"40 698 LINE",
"26 682 OFFCURVE",
"18 658 OFFCURVE",
"18 635 CURVE {name = hr03;}",
"62 635 OFFCURVE",
"78 621 OFFCURVE",
"78 584 CURVE SMOOTH",
"78 114 LINE SMOOTH",
"78 77 OFFCURVE",
"62 64 OFFCURVE",
"18 64 CURVE",
"18 40 OFFCURVE",
"26 16 OFFCURVE",
"40 0 CURVE {name = hr04;}",
"285 0 LINE"
);
},
{
closed = 1;
nodes = (
"685 16 OFFCURVE",
"693 40 OFFCURVE",
"693 64 CURVE",
"650 64 OFFCURVE",
"634 77 OFFCURVE",
"634 114 CURVE SMOOTH",
"634 584 LINE SMOOTH",
"634 621 OFFCURVE",
"650 635 OFFCURVE",
"693 635 CURVE",
"693 658 OFFCURVE",
"685 682 OFFCURVE",
"671 698 CURVE",
"427 698 LINE",
"413 682 OFFCURVE",
"405 658 OFFCURVE",
"405 635 CURVE",
"448 635 OFFCURVE",
"465 621 OFFCURVE",
"465 584 CURVE SMOOTH",
"465 114 LINE SMOOTH",
"465 77 OFFCURVE",
"448 64 OFFCURVE",
"405 64 CURVE",
"405 40 OFFCURVE",
"413 16 OFFCURVE",
"427 0 CURVE",
"671 0 LINE"
);
}
);
width = 711;
}
);
leftKerningGroup = H;
leftMetricsKey = H;
rightKerningGroup = H;
rightMetricsKey = H;
unicode = 0126;
},
{
color = 4;
glyphname = I;
lastChange = "2018-06-05 15:59:41 +0000";
layers = (
{
anchors = (
{
name = btm;
position = "{173, 0}";
},
{
name = top;
position = "{173, 975}";
}
);
layerId = "184835E3-72D9-430C-A639-2454AC4A0BE8";
paths = (
{
closed = 1;
nodes = (
"298 16 OFFCURVE",
"307 40 OFFCURVE",
"307 64 CURVE",
"263 64 OFFCURVE",
"247 77 OFFCURVE",
"247 114 CURVE SMOOTH",
"247 584 LINE SMOOTH",
"247 621 OFFCURVE",
"263 635 OFFCURVE",
"307 635 CURVE",
"307 658 OFFCURVE",
"298 682 OFFCURVE",
"285 698 CURVE",
"40 698 LINE",
"26 682 OFFCURVE",
"18 658 OFFCURVE",
"18 635 CURVE {name = hr03;}",
"62 635 OFFCURVE",
"78 621 OFFCURVE",
"78 584 CURVE SMOOTH",
"78 114 LINE SMOOTH",
"78 77 OFFCURVE",
"62 64 OFFCURVE",
"18 64 CURVE",
"18 40 OFFCURVE",
"26 16 OFFCURVE",
"40 0 CURVE {name = hr04;}",
"285 0 LINE"
);
}
);
width = 325;
}
);
leftKerningGroup = I;
leftMetricsKey = H;
rightKerningGroup = I;
rightMetricsKey = H;
unicode = 0049;
},
{
color = 4;
glyphname = J;
lastChange = "2018-06-05 16:02:10 +0000";
layers = (
{
anchors = (
{
name = btm;
position = "{262, -5}";
},
{
name = top;
position = "{262, 970}";
}
);
layerId = "184835E3-72D9-430C-A639-2454AC4A0BE8";
paths = (
{
closed = 1;
nodes = (
"447 620 OFFCURVE",
"464 634 OFFCURVE",
"509 634 CURVE",
"509 657 OFFCURVE",
"501 681 OFFCURVE",
"486 697 CURVE",
"218 697 LINE",
"204 681 OFFCURVE",
"195 657 OFFCURVE",
"195 634 CURVE",
"270 634 OFFCURVE",
"283 612 OFFCURVE",
"283 564 CURVE SMOOTH",
"283 140 LINE SMOOTH",
"283 101 OFFCURVE",
"262 75 OFFCURVE",
"226 75 CURVE SMOOTH",
"187 75 OFFCURVE",
"156 142 OFFCURVE",
"156 218 CURVE SMOOTH",
"156 239 OFFCURVE",
"158 261 OFFCURVE",
"164 283 CURVE",
"13 283 LINE",
"11 268 OFFCURVE",
"10 254 OFFCURVE",
"10 239 CURVE SMOOTH",
"10 116 OFFCURVE",
"60 27 OFFCURVE",
"83 -13 CURVE",
"134 10 LINE",
"160 -4 OFFCURVE",
"212 -13 OFFCURVE",
"245 -13 CURVE SMOOTH",
"357 -13 OFFCURVE",
"447 42 OFFCURVE",
"447 228 CURVE SMOOTH",
"447 583 LINE SMOOTH {name = hr00;}"
);
}
);
width = 521;
}
);
leftKerningGroup = J;
rightKerningGroup = U;
rightMetricsKey = U;
unicode = 004A;
},
{
color = 4;
glyphname = K;
lastChange = "2018-06-05 14:20:14 +0000";
layers = (
{
anchors = (
{
name = btm;
position = "{332, -5}";
},
{
name = top;
position = "{332, 970}";
}
);
layerId = "184835E3-72D9-430C-A639-2454AC4A0BE8";
paths = (
{
closed = 1;
nodes = (
"648 657 OFFCURVE",
"639 681 OFFCURVE",
"626 698 CURVE",
"393 698 LINE",
"379 681 OFFCURVE",
"370 657 OFFCURVE",
"370 635 CURVE",
"396 635 OFFCURVE",
"428 624 OFFCURVE",
"428 607 CURVE SMOOTH",
"428 596 OFFCURVE",
"423 583 OFFCURVE",
"415 571 CURVE SMOOTH",
"269 362 LINE",
"345 327 LINE",
"398 397 LINE",
"548 587 LINE SMOOTH",
"563 605 OFFCURVE",
"591 635 OFFCURVE",
"648 635 CURVE"
);
},
{
closed = 1;
nodes = (
"273 302 OFFCURVE",
"330 192 OFFCURVE",
"363 132 CURVE SMOOTH",
"396 73 OFFCURVE",
"411 -14 OFFCURVE",
"540 -14 CURVE SMOOTH",
"593 -14 OFFCURVE",
"620 3 OFFCURVE",
"641 31 CURVE",
"641 71 LINE",
"580 78 OFFCURVE",
"559 149 OFFCURVE",
"494 233 CURVE SMOOTH",
"436 308 OFFCURVE",
"392 386 OFFCURVE",
"235 386 CURVE",
"225 350 LINE",
"217 326 LINE"
);
},
{
closed = 1;
nodes = (
"298 16 OFFCURVE",
"307 40 OFFCURVE",
"307 64 CURVE",
"263 64 OFFCURVE",
"247 77 OFFCURVE",
"247 114 CURVE SMOOTH",
"247 584 LINE SMOOTH",
"247 621 OFFCURVE",
"263 635 OFFCURVE",
"307 635 CURVE",
"307 658 OFFCURVE",
"298 682 OFFCURVE",
"285 698 CURVE",
"40 698 LINE",
"26 682 OFFCURVE",
"18 658 OFFCURVE",
"18 635 CURVE {name = hr03;}",
"62 635 OFFCURVE",
"78 621 OFFCURVE",
"78 584 CURVE SMOOTH",
"78 114 LINE SMOOTH",
"78 77 OFFCURVE",
"62 64 OFFCURVE",
"18 64 CURVE",
"18 40 OFFCURVE",
"26 16 OFFCURVE",
"40 0 CURVE {name = hr04;}",
"285 0 LINE"
);
}
);
width = 657;
}
);
leftKerningGroup = H;
leftMetricsKey = H;
rightKerningGroup = K;
unicode = 004B;
},
{
color = 4;
glyphname = L;
lastChange = "2018-06-05 14:25:21 +0000";
layers = (
{
anchors = (
{
name = btm;
position = "{266, 0}";
},
{
name = top;
position = "{266, 975}";
}
);
layerId = "184835E3-72D9-430C-A639-2454AC4A0BE8";
paths = (
{
closed = 1;
nodes = (
"507 0 OFFCURVE",
"529 44 OFFCURVE",
"529 124 CURVE SMOOTH",
"529 171 OFFCURVE",
"511 210 OFFCURVE",
"486 229 CURVE",
"416 229 LINE",
"416 134 OFFCURVE",
"375 85 OFFCURVE",
"275 85 CURVE SMOOTH",
"244 85 LINE",
"244 584 LINE SMOOTH",
"244 621 OFFCURVE",
"266 635 OFFCURVE",
"310 635 CURVE",
"310 658 OFFCURVE",
"303 682 OFFCURVE",
"288 698 CURVE",
"41 698 LINE",
"26 682 OFFCURVE",
"18 658 OFFCURVE",
"18 635 CURVE",
"63 635 OFFCURVE",
"80 621 OFFCURVE",
"80 584 CURVE SMOOTH",
"80 114 LINE SMOOTH",
"80 77 OFFCURVE",
"63 64 OFFCURVE",
"18 64 CURVE {name = hr02;}",
"18 40 OFFCURVE",
"26 16 OFFCURVE",
"41 0 CURVE {name = hr03;}",
"438 0 LINE SMOOTH {name = hr01;}"
);
}
);
width = 541;
}
);
leftKerningGroup = H;
leftMetricsKey = H;
rightKerningGroup = L;
unicode = 004C;
},
{
color = 4;
glyphname = M;
lastChange = "2018-06-05 15:59:35 +0000";
layers = (
{
anchors = (
{
name = btm;
position = "{448, 0}";
},
{
name = top;
position = "{448, 975}";
}
);
layerId = "184835E3-72D9-430C-A639-2454AC4A0BE8";
paths = (
{
closed = 1;
nodes = (
"495 370 LINE",
"457 246 LINE",
"417 370 LINE",
"311 631 LINE SMOOTH",
"287 688 OFFCURVE",
"248 698 OFFCURVE",
"191 698 CURVE SMOOTH",
"41 698 LINE",
"27 682 OFFCURVE",
"18 658 OFFCURVE",
"18 635 CURVE",
"63 635 OFFCURVE",
"89 621 OFFCURVE",
"89 584 CURVE SMOOTH",
"89 114 LINE SMOOTH",
"89 77 OFFCURVE",
"66 64 OFFCURVE",
"18 64 CURVE",
"18 40 OFFCURVE",
"26 16 OFFCURVE",
"40 0 CURVE",
"248 0 LINE",
"261 16 OFFCURVE",
"270 40 OFFCURVE",
"270 64 CURVE",
"219 64 OFFCURVE",
"194 77 OFFCURVE",
"194 114 CURVE SMOOTH",
"194 528 LINE",
"392 45 LINE",
"430 45 OFFCURVE",
"460 55 OFFCURVE",
"478 99 CURVE SMOOTH",
"648 528 LINE",
"648 114 LINE SMOOTH",
"648 77 OFFCURVE",
"631 64 OFFCURVE",
"586 64 CURVE",
"586 40 OFFCURVE",
"595 16 OFFCURVE",
"608 0 CURVE",
"856 0 LINE",
"870 16 OFFCURVE",
"879 40 OFFCURVE",
"879 64 CURVE",
"831 64 OFFCURVE",
"812 77 OFFCURVE",
"812 114 CURVE SMOOTH",
"812 584 LINE SMOOTH",
"812 621 OFFCURVE",
"834 635 OFFCURVE",
"879 635 CURVE",
"879 658 OFFCURVE",
"870 682 OFFCURVE",
"856 698 CURVE",
"621 698 LINE {name = hr00;}"
);
}
);
width = 897;
}
);
leftKerningGroup = M;
leftMetricsKey = H;
rightKerningGroup = M;
rightMetricsKey = H;
unicode = 004D;
},
{
color = 4;
glyphname = N;
lastChange = "2018-06-05 14:36:55 +0000";
layers = (
{
anchors = (
{
name = btm;
position = "{351, -9}";
},
{
name = top;
position = "{351, 966}";
}
);
layerId = "184835E3-72D9-430C-A639-2454AC4A0BE8";
paths = (
{
closed = 1;
nodes = (
"489 24 LINE",
"514 -13 OFFCURVE",
"527 -24 OFFCURVE",
"600 -25 CURVE",
"627 -25 LINE",
"627 571 LINE SMOOTH",
"627 608 OFFCURVE",
"646 622 OFFCURVE",
"690 622 CURVE",
"690 645 OFFCURVE",
"681 669 OFFCURVE",
"667 685 CURVE",
"468 685 LINE",
"453 669 OFFCURVE",
"445 645 OFFCURVE",
"445 622 CURVE",
"490 622 OFFCURVE",
"508 608 OFFCURVE",
"508 571 CURVE SMOOTH",
"508 259 LINE",
"288 600 LINE",
"254 652 OFFCURVE",
"210 685 OFFCURVE",
"167 685 CURVE SMOOTH",
"40 685 LINE",
"26 669 OFFCURVE",
"18 645 OFFCURVE",
"18 622 CURVE",
"63 622 OFFCURVE",
"80 608 OFFCURVE",
"80 571 CURVE SMOOTH",
"80 101 LINE SMOOTH",
"80 64 OFFCURVE",
"63 50 OFFCURVE",
"18 50 CURVE",
"18 27 OFFCURVE",
"26 4 OFFCURVE",
"40 -13 CURVE",
"231 -13 LINE",
"245 4 OFFCURVE",
"254 27 OFFCURVE",
"254 50 CURVE",
"209 50 OFFCURVE",
"191 64 OFFCURVE",
"191 101 CURVE SMOOTH",
"191 462 LINE {name = hr00;}"
);
}
);
width = 703;
}
);
leftKerningGroup = N;
leftMetricsKey = H;
rightKerningGroup = N;
unicode = 004E;
},
{
color = 4;
glyphname = O;
lastChange = "2018-06-05 16:02:32 +0000";
layers = (
{
anchors = (
{
name = btm;
position = "{337, -9}";
},
{
name = top;
position = "{337, 966}";
}
);
layerId = "184835E3-72D9-430C-A639-2454AC4A0BE8";
paths = (
{
closed = 1;
nodes = (
"524 -25 OFFCURVE",
"647 108 OFFCURVE",
"647 336 CURVE SMOOTH",
"647 554 OFFCURVE",
"530 698 OFFCURVE",
"336 698 CURVE SMOOTH",
"150 698 OFFCURVE",
"28 565 OFFCURVE",
"28 336 CURVE SMOOTH",
"28 119 OFFCURVE",
"143 -25 OFFCURVE",
"337 -25 CURVE SMOOTH"
);
},
{
closed = 1;
nodes = (
"268 48 OFFCURVE",
"213 107 OFFCURVE",
"213 333 CURVE SMOOTH",
"213 575 OFFCURVE",
"277 624 OFFCURVE",
"339 624 CURVE SMOOTH",
"409 624 OFFCURVE",
"463 565 OFFCURVE",
"463 340 CURVE SMOOTH",
"463 97 OFFCURVE",
"399 48 OFFCURVE",
"337 48 CURVE SMOOTH {name = hr00;}"
);
}
);
width = 675;
}
);
leftKerningGroup = O;
rightKerningGroup = O;
unicode = 004F;
},
{
color = 4;
glyphname = OE;
lastChange = "2018-06-05 14:41:19 +0000";
layers = (
{
anchors = (
{
name = btm;
position = "{466, -12}";
},
{
name = top;
position = "{466, 963}";
}
);
layerId = "184835E3-72D9-430C-A639-2454AC4A0BE8";
paths = (
{
closed = 1;
nodes = (
"805 111 OFFCURVE",
"766 71 OFFCURVE",
"697 71 CURVE SMOOTH",
"592 71 LINE",
"592 301 LINE",
"675 301 LINE SMOOTH",
"712 301 OFFCURVE",
"740 284 OFFCURVE",
"740 231 CURVE",
"770 231 OFFCURVE",
"797 239 OFFCURVE",
"818 252 CURVE",
"818 428 LINE",
"797 441 OFFCURVE",
"769 449 OFFCURVE",
"740 449 CURVE",
"740 395 OFFCURVE",
"712 374 OFFCURVE",
"675 374 CURVE SMOOTH",
"592 374 LINE",
"592 596 LINE",
"688 596 LINE SMOOTH",
"741 596 OFFCURVE",
"770 551 OFFCURVE",
"783 508 CURVE",
"808 514 OFFCURVE",
"846 531 OFFCURVE",
"863 546 CURVE",
"863 579 OFFCURVE",
"849 665 OFFCURVE",
"833 698 CURVE",
"808 698 OFFCURVE",
"781 692 OFFCURVE",
"756 681 CURVE",
"421 681 LINE",
"393 689 OFFCURVE",
"367 690 OFFCURVE",
"333 690 CURVE SMOOTH",
"147 690 OFFCURVE",
"28 560 OFFCURVE",
"28 335 CURVE SMOOTH",
"28 115 OFFCURVE",
"142 -26 OFFCURVE",
"328 -26 CURVE SMOOTH",
"360 -26 OFFCURVE",
"388 -25 OFFCURVE",
"413 -17 CURVE",
"797 -17 LINE",
"822 -28 OFFCURVE",
"849 -33 OFFCURVE",
"873 -33 CURVE",
"892 3 OFFCURVE",
"905 128 OFFCURVE",
"905 167 CURVE",
"822 167 LINE"
);
},
{
closed = 1;
nodes = (
"216 573 OFFCURVE",
"274 620 OFFCURVE",
"346 620 CURVE SMOOTH",
"381 620 OFFCURVE",
"411 608 OFFCURVE",
"428 587 CURVE",
"428 69 LINE",
"406 52 OFFCURVE",
"378 44 OFFCURVE",
"348 44 CURVE SMOOTH {name = hr01;}",
"266 44 OFFCURVE",
"216 102 OFFCURVE",
"216 328 CURVE SMOOTH"
);
}
);
width = 915;
}
);
leftKerningGroup = O;
leftMetricsKey = O;
rightKerningGroup = E;
rightMetricsKey = E;
unicode = 0152;
},
{
color = 4;
glyphname = P;
lastChange = "2018-06-05 14:41:15 +0000";
layers = (
{
anchors = (
{
name = btm;
position = "{297, 0}";
},
{
name = top;
position = "{297, 975}";
}
);
layerId = "184835E3-72D9-430C-A639-2454AC4A0BE8";
paths = (
{
closed = 1;
nodes = (
"242 705 OFFCURVE",
"171 698 OFFCURVE",
"40 698 CURVE",
"27 681 OFFCURVE",
"18 658 OFFCURVE",
"18 635 CURVE",
"63 635 OFFCURVE",
"81 621 OFFCURVE",
"81 584 CURVE SMOOTH",
"81 114 LINE SMOOTH",
"81 77 OFFCURVE",
"63 64 OFFCURVE",
"18 64 CURVE",
"18 40 OFFCURVE",
"27 16 OFFCURVE",
"41 0 CURVE",
"332 0 LINE",
"346 16 OFFCURVE",
"354 40 OFFCURVE",
"354 64 CURVE",
"265 64 OFFCURVE",
"245 81 OFFCURVE",
"245 159 CURVE SMOOTH",
"245 247 LINE",
"287 247 LINE SMOOTH",
"488 247 OFFCURVE",
"584 348 OFFCURVE",
"584 479 CURVE SMOOTH",
"584 625 OFFCURVE",
"510 705 OFFCURVE",
"298 705 CURVE SMOOTH {name = hr00;}"
);
},
{
closed = 1;
nodes = (
"410 414 OFFCURVE",
"395 327 OFFCURVE",
"271 327 CURVE SMOOTH",
"262 327 OFFCURVE",
"254 327 OFFCURVE",
"245 329 CURVE",
"245 622 LINE",
"256 625 OFFCURVE",
"268 626 OFFCURVE",
"282 626 CURVE SMOOTH",
"381 626 OFFCURVE",
"410 558 OFFCURVE",
"410 482 CURVE SMOOTH"
);
}
);
width = 585;
}
);
leftKerningGroup = H;
leftMetricsKey = H;
rightKerningGroup = P;
unicode = 0050;
},
{
color = 4;
glyphname = Thorn;
lastChange = "2018-06-05 14:41:39 +0000";
layers = (
{
anchors = (
{
name = btm;
position = "{312, 0}";
},
{
name = top;
position = "{312, 975}";
}
);
layerId = "184835E3-72D9-430C-A639-2454AC4A0BE8";
paths = (
{
closed = 1;
nodes = (
"271 141 OFFCURVE",
"316 138 OFFCURVE",
"342 138 CURVE SMOOTH",
"492 138 OFFCURVE",
"603 218 OFFCURVE",
"603 356 CURVE SMOOTH",
"603 484 OFFCURVE",
"507 572 OFFCURVE",
"318 572 CURVE SMOOTH",
"291 572 OFFCURVE",
"262 571 OFFCURVE",
"230 567 CURVE",
"245 485 LINE",
"260 487 OFFCURVE",
"273 488 OFFCURVE",
"286 488 CURVE SMOOTH",
"375 488 OFFCURVE",
"429 446 OFFCURVE",
"429 356 CURVE SMOOTH",
"429 269 OFFCURVE",
"378 218 OFFCURVE",
"299 218 CURVE SMOOTH",
"284 218 OFFCURVE",
"262 219 OFFCURVE",
"245 224 CURVE",
"245 148 LINE {name = hr00;}"
);
},
{
closed = 1;
nodes = (
"245 621 OFFCURVE",
"267 635 OFFCURVE",
"311 635 CURVE",
"311 658 OFFCURVE",
"303 682 OFFCURVE",
"289 698 CURVE",
"41 698 LINE",
"27 682 OFFCURVE",
"18 658 OFFCURVE",
"18 635 CURVE",
"63 635 OFFCURVE",
"81 621 OFFCURVE",
"81 584 CURVE SMOOTH",
"81 114 LINE SMOOTH",
"81 77 OFFCURVE",
"63 64 OFFCURVE",
"18 64 CURVE",
"18 40 OFFCURVE",
"27 16 OFFCURVE",
"41 0 CURVE",
"332 0 LINE",
"347 16 OFFCURVE",
"355 40 OFFCURVE",
"355 64 CURVE",
"265 64 OFFCURVE",
"245 81 OFFCURVE",
"245 159 CURVE SMOOTH",
"245 584 LINE SMOOTH"
);
}
);
width = 604;
}
);
leftKerningGroup = H;
leftMetricsKey = H;
rightKerningGroup = Thorn;
rightMetricsKey = P;
unicode = 00DE;
},
{
color = 4;
glyphname = Q;
lastChange = "2018-06-05 14:42:17 +0000";
layers = (
{
anchors = (
{
name = btm;
position = "{391, -119}";
},
{
name = top;
position = "{391, 856}";
}
);
components = (
{
name = O;
}
);
layerId = "184835E3-72D9-430C-A639-2454AC4A0BE8";
paths = (
{
closed = 1;
nodes = (
"468 -94 OFFCURVE",
"492 -188 OFFCURVE",
"613 -188 CURVE SMOOTH",
"703 -188 OFFCURVE",
"740 -139 OFFCURVE",
"740 -106 CURVE SMOOTH",
"740 -96 OFFCURVE",
"732 -76 OFFCURVE",
"726 -68 CURVE",
"705 -76 OFFCURVE",
"682 -79 OFFCURVE",
"661 -79 CURVE SMOOTH",
"637 -79 OFFCURVE",
"615 -74 OFFCURVE",
"597 -65 CURVE SMOOTH",
"562 -47 OFFCURVE",
"481 0 OFFCURVE",
"417 0 CURVE SMOOTH",
"318 0 OFFCURVE",
"259 -36 OFFCURVE",
"230 -88 CURVE",
"261 -123 LINE",
"304 -96 OFFCURVE",
"329 -94 OFFCURVE",
"355 -94 CURVE SMOOTH",
"360 -94 OFFCURVE",
"366 -94 OFFCURVE",
"371 -94 CURVE SMOOTH {name = hr00;}"
);
}
);
width = 675;
}
);
leftKerningGroup = O;
rightKerningGroup = O;
unicode = 0051;
},
{
color = 4;
glyphname = R;
lastChange = "2018-06-05 14:46:02 +0000";
layers = (
{
anchors = (
{
name = btm;
position = "{328, 0}";
},
{
name = top;
position = "{328, 975}";
}
);
layerId = "184835E3-72D9-430C-A639-2454AC4A0BE8";
paths = (
{
closed = 1;
nodes = (
"473 304 OFFCURVE",
"449 319 OFFCURVE",
"397 321 CURVE",
"381 311 LINE",
"518 325 OFFCURVE",
"581 405 OFFCURVE",
"581 513 CURVE SMOOTH {name = hr00;}",
"581 619 OFFCURVE",
"503 710 OFFCURVE",
"295 710 CURVE SMOOTH",
"241 710 OFFCURVE",
"113 706 OFFCURVE",
"41 698 CURVE",
"27 682 OFFCURVE",
"18 658 OFFCURVE",
"18 635 CURVE",
"63 635 OFFCURVE",
"80 621 OFFCURVE",
"80 584 CURVE SMOOTH",
"80 114 LINE SMOOTH",
"80 77 OFFCURVE",
"63 63 OFFCURVE",
"18 63 CURVE",
"18 40 OFFCURVE",
"27 17 OFFCURVE",
"41 0 CURVE",
"289 0 LINE",
"303 17 OFFCURVE",
"311 40 OFFCURVE",
"311 63 CURVE",
"272 63 OFFCURVE",
"245 77 OFFCURVE",
"245 114 CURVE SMOOTH",
"245 297 LINE",
"279 297 LINE",
"407 249 OFFCURVE",
"337 -14 OFFCURVE",
"553 -14 CURVE SMOOTH",
"606 -14 OFFCURVE",
"624 2 OFFCURVE",
"646 27 CURVE",
"646 65 LINE",
"574 81 OFFCURVE",
"581 126 OFFCURVE",
"527 215 CURVE SMOOTH"
);
},
{
closed = 1;
nodes = (
"256 629 OFFCURVE",
"277 630 OFFCURVE",
"290 630 CURVE SMOOTH",
"377 630 OFFCURVE",
"419 586 OFFCURVE",
"419 503 CURVE SMOOTH",
"419 422 OFFCURVE",
"381 368 OFFCURVE",
"285 368 CURVE SMOOTH",
"275 368 OFFCURVE",
"254 369 OFFCURVE",
"245 370 CURVE",
"245 626 LINE"
);
}
);
width = 641;
}
);
leftKerningGroup = H;
leftMetricsKey = H;
rightKerningGroup = R;
unicode = 0052;
},
{
color = 4;
glyphname = S;
lastChange = "2018-06-05 14:46:06 +0000";
layers = (
{
anchors = (
{
name = btm;
position = "{282, -5}";
},
{
name = top;
position = "{282, 970}";
}
);
layerId = "184835E3-72D9-430C-A639-2454AC4A0BE8";
paths = (
{
closed = 1;
nodes = (
"25 166 OFFCURVE",
"46 37 OFFCURVE",
"72 -15 CURVE",
"149 19 LINE",
"210 -7 OFFCURVE",
"264 -15 OFFCURVE",
"310 -15 CURVE SMOOTH",
"457 -15 OFFCURVE",
"544 60 OFFCURVE",
"544 170 CURVE SMOOTH {name = hr02;}",
"544 303 OFFCURVE",
"425 374 OFFCURVE",
"334 419 CURVE SMOOTH",
"272 450 OFFCURVE",
"212 482 OFFCURVE",
"212 546 CURVE SMOOTH",
"212 593 OFFCURVE",
"233 628 OFFCURVE",
"288 628 CURVE SMOOTH",
"347 628 OFFCURVE",
"405 595 OFFCURVE",
"433 482 CURVE",
"516 482 LINE",
"516 486 OFFCURVE",
"516 492 OFFCURVE",
"516 497 CURVE SMOOTH",
"516 562 OFFCURVE",
"515 661 OFFCURVE",
"488 708 CURVE",
"403 682 LINE",
"370 700 OFFCURVE",
"309 708 OFFCURVE",
"270 708 CURVE SMOOTH",
"144 708 OFFCURVE",
"46 649 OFFCURVE",
"46 528 CURVE SMOOTH",
"46 415 OFFCURVE",
"121 343 OFFCURVE",
"236 281 CURVE SMOOTH",
"304 244 OFFCURVE",
"381 207 OFFCURVE",
"381 142 CURVE SMOOTH",
"381 110 OFFCURVE",
"370 65 OFFCURVE",
"309 65 CURVE SMOOTH",
"225 65 OFFCURVE",
"146 133 OFFCURVE",
"125 246 CURVE",
"25 246 LINE {name = hr01;}"
);
}
);
width = 569;
}
);
leftKerningGroup = S;
rightKerningGroup = S;
unicode = 0053;
},
{
color = 4;
glyphname = Schwa;
lastChange = "2018-06-05 15:58:27 +0000";
layers = (
{
layerId = "184835E3-72D9-430C-A639-2454AC4A0BE8";
paths = (
{
closed = 1;
nodes = (
"130 534 OFFCURVE",
"184 561 OFFCURVE",
"255 561 CURVE SMOOTH",
"356 561 OFFCURVE",
"410 503 OFFCURVE",
"410 341 CURVE SMOOTH",
"410 289 LINE SMOOTH",
"410 118 OFFCURVE",
"334 89 OFFCURVE",
"280 89 CURVE SMOOTH",
"238 89 OFFCURVE",
"176 118 OFFCURVE",
"176 228 CURVE SMOOTH",
"176 262 OFFCURVE",
"175 281 OFFCURVE",
"201 281 CURVE SMOOTH",
"458 281 LINE",
"463 364 LINE",
"104 364 LINE SMOOTH",
"41 364 OFFCURVE",
"28 306 OFFCURVE",
"28 240 CURVE SMOOTH",
"28 75 OFFCURVE",
"124 -14 OFFCURVE",
"273 -14 CURVE SMOOTH",
"441 -14 OFFCURVE",
"569 119 OFFCURVE",
"569 346 CURVE SMOOTH",
"569 566 OFFCURVE",
"455 695 OFFCURVE",
"281 695 CURVE SMOOTH",
"148 695 OFFCURVE",
"61 623 OFFCURVE",
"61 581 CURVE SMOOTH",
"61 563 OFFCURVE",
"79 518 OFFCURVE",
"92 503 CURVE {name = hr00;}"
);
}
);
width = 597;
}
);
leftKerningGroup = uni018F;
leftMetricsKey = O;
rightKerningGroup = uni018F;
rightMetricsKey = O;
unicode = 018F;
},
{
color = 4;
glyphname = T;
lastChange = "2018-06-05 15:58:41 +0000";
layers = (
{
anchors = (
{
name = btm;
position = "{323, 0}";
},
{
name = top;
position = "{323, 975}";
}
);
layerId = "184835E3-72D9-430C-A639-2454AC4A0BE8";
paths = (
{
closed = 1;
nodes = (
"579 714 OFFCURVE",
"547 708 OFFCURVE",
"522 697 CURVE",
"124 697 LINE",
"100 708 OFFCURVE",
"66 714 OFFCURVE",
"42 714 CURVE",
"18 661 OFFCURVE",
"10 534 OFFCURVE",
"10 478 CURVE",
"27 471 OFFCURVE",
"69 470 OFFCURVE",
"94 467 CURVE",
"107 583 OFFCURVE",
"152 619 OFFCURVE",
"239 619 CURVE SMOOTH",
"241 619 LINE",
"241 118 LINE SMOOTH",
"241 81 OFFCURVE",
"205 64 OFFCURVE",
"153 64 CURVE",
"153 40 OFFCURVE",
"161 16 OFFCURVE",
"175 0 CURVE",
"471 0 LINE",
"486 16 OFFCURVE",
"494 40 OFFCURVE",
"494 64 CURVE",
"442 64 OFFCURVE",
"405 81 OFFCURVE",
"405 118 CURVE SMOOTH",
"405 619 LINE",
"409 619 LINE SMOOTH {name = hr01;}",
"504 619 OFFCURVE",
"539 583 OFFCURVE",
"552 467 CURVE",
"578 470 OFFCURVE",
"618 471 OFFCURVE",
"636 478 CURVE",
"636 534 OFFCURVE",
"628 661 OFFCURVE",
"604 714 CURVE"
);
}
);
width = 646;
}
);
leftKerningGroup = T;
rightKerningGroup = T;
unicode = 0054;
},
{
color = 4;
glyphname = U;
lastChange = "2018-06-05 15:59:10 +0000";
layers = (
{
anchors = (
{
name = btm;
position = "{347, -4}";
},
{
name = top;
position = "{347, 971}";
}
);
layerId = "184835E3-72D9-430C-A639-2454AC4A0BE8";
paths = (
{
closed = 1;
nodes = (
"612 621 OFFCURVE",
"632 635 OFFCURVE",
"683 635 CURVE",
"683 659 OFFCURVE",
"675 682 OFFCURVE",
"661 698 CURVE",
"441 698 LINE",
"426 682 OFFCURVE",
"419 659 OFFCURVE",
"419 635 CURVE",
"469 635 OFFCURVE",
"490 621 OFFCURVE",
"490 585 CURVE SMOOTH",
"490 224 LINE SMOOTH",
"490 146 OFFCURVE",
"449 91 OFFCURVE",
"369 91 CURVE SMOOTH",
"293 91 OFFCURVE",
"246 160 OFFCURVE",
"246 250 CURVE SMOOTH",
"246 585 LINE SMOOTH",
"246 621 OFFCURVE",
"263 635 OFFCURVE",
"308 635 CURVE",
"308 659 OFFCURVE",
"300 682 OFFCURVE",
"285 698 CURVE",
"35 698 LINE",
"20 682 OFFCURVE",
"12 659 OFFCURVE",
"12 635 CURVE",
"57 635 OFFCURVE",
"74 621 OFFCURVE",
"74 585 CURVE SMOOTH",
"74 271 LINE SMOOTH",
"74 90 OFFCURVE",
"180 -5 OFFCURVE",
"351 -5 CURVE SMOOTH",
"525 -5 OFFCURVE",
"612 87 OFFCURVE",
"612 271 CURVE SMOOTH",
"612 585 LINE SMOOTH {name = hr00;}"
);
}
);
width = 695;
}
);
leftKerningGroup = U;
rightKerningGroup = U;
unicode = 0055;
},
{
color = 4;
glyphname = V;
lastChange = "2018-06-05 15:57:37 +0000";
layers = (
{
anchors = (
{
name = btm;
position = "{347, -6}";
},
{
name = top;
position = "{347, 969}";
}
);
layerId = "184835E3-72D9-430C-A639-2454AC4A0BE8";
paths = (
{
closed = 1;
nodes = (
"439 678 OFFCURVE",
"436 659 OFFCURVE",
"436 635 CURVE",
"475 635 OFFCURVE",
"495 617 OFFCURVE",
"495 590 CURVE SMOOTH",
"495 584 OFFCURVE",
"493 577 OFFCURVE",
"491 569 CURVE SMOOTH",
"411 293 LINE",
"381 185 LINE",
"351 295 LINE",
"267 566 LINE SMOOTH",
"264 575 OFFCURVE",
"261 583 OFFCURVE",
"261 590 CURVE SMOOTH",
"261 618 OFFCURVE",
"282 635 OFFCURVE",
"320 635 CURVE",
"320 659 OFFCURVE",
"311 682 OFFCURVE",
"302 698 CURVE",
"6 698 LINE",
"-6 678 OFFCURVE",
"-10 659 OFFCURVE",
"-10 635 CURVE",
"36 635 OFFCURVE",
"59 623 OFFCURVE",
"73 588 CURVE SMOOTH",
"306 -7 LINE",
"337 -7 LINE SMOOTH",
"397 -7 OFFCURVE",
"423 21 OFFCURVE",
"446 89 CURVE SMOOTH",
"616 588 LINE SMOOTH",
"628 624 OFFCURVE",
"655 635 OFFCURVE",
"700 635 CURVE",
"700 659 OFFCURVE",
"696 679 OFFCURVE",
"684 698 CURVE",
"452 698 LINE {name = hr00;}"
);
}
);
width = 690;
}
);
leftKerningGroup = V;
rightKerningGroup = V;
unicode = 0056;
},
{
color = 4;
glyphname = W;
lastChange = "2018-06-05 15:57:37 +0000";
layers = (
{
anchors = (
{
name = btm;
position = "{515, -2}";
},
{
name = top;
position = "{515, 973}";
}
);
layerId = "184835E3-72D9-430C-A639-2454AC4A0BE8";
paths = (
{
closed = 1;
nodes = (
"657 -7 LINE",
"697 -7 LINE SMOOTH",
"763 -7 OFFCURVE",
"807 36 OFFCURVE",
"833 130 CURVE SMOOTH",
"959 588 LINE SMOOTH",
"969 623 OFFCURVE",
"995 635 OFFCURVE",
"1040 635 CURVE",
"1040 658 OFFCURVE",
"1036 679 OFFCURVE",
"1025 698 CURVE",
"790 698 LINE",
"779 678 OFFCURVE",
"776 658 OFFCURVE",
"776 635 CURVE",
"819 635 OFFCURVE",
"846 612 OFFCURVE",
"846 578 CURVE SMOOTH",
"846 573 OFFCURVE",
"845 565 OFFCURVE",
"843 558 CURVE SMOOTH",
"744 175 LINE",
"627 557 LINE SMOOTH",
"624 567 OFFCURVE",
"622 577 OFFCURVE",
"622 586 CURVE SMOOTH",
"622 616 OFFCURVE",
"642 635 OFFCURVE",
"685 635 CURVE",
"685 658 OFFCURVE",
"676 682 OFFCURVE",
"668 698 CURVE",
"401 698 LINE",
"390 678 OFFCURVE",
"386 658 OFFCURVE",
"386 635 CURVE",
"425 635 OFFCURVE",
"454 616 OFFCURVE",
"454 582 CURVE SMOOTH",
"454 577 OFFCURVE",
"453 569 OFFCURVE",
"451 563 CURVE SMOOTH",
"349 175 LINE",
"235 575 LINE SMOOTH",
"234 580 OFFCURVE",
"232 586 OFFCURVE",
"232 591 CURVE SMOOTH",
"232 614 OFFCURVE",
"247 635 OFFCURVE",
"282 635 CURVE",
"282 658 OFFCURVE",
"273 682 OFFCURVE",
"265 698 CURVE",
"5 698 LINE",
"-7 678 OFFCURVE",
"-10 658 OFFCURVE",
"-10 635 CURVE",
"35 635 OFFCURVE",
"52 623 OFFCURVE",
"63 588 CURVE SMOOTH",
"256 -7 LINE",
"295 -7 LINE SMOOTH",
"362 -7 OFFCURVE",
"404 36 OFFCURVE",
"431 130 CURVE SMOOTH",
"514 416 LINE {name = hr00;}"
);
}
);
width = 1030;
}
);
leftKerningGroup = W;
rightKerningGroup = W;
unicode = 0057;
},
{
color = 4;
glyphname = X;
lastChange = "2018-06-05 15:57:46 +0000";
layers = (
{
anchors = (
{
name = btm;
position = "{357, 0}";
},
{
name = top;
position = "{357, 975}";
}
);
layerId = "184835E3-72D9-430C-A639-2454AC4A0BE8";
paths = (
{
closed = 1;
nodes = (
"400 411 LINE",
"402 326 LINE",
"581 585 LINE SMOOTH",
"605 620 OFFCURVE",
"624 635 OFFCURVE",
"679 635 CURVE",
"679 659 OFFCURVE",
"670 682 OFFCURVE",
"655 698 CURVE",
"427 698 LINE",
"412 682 OFFCURVE",
"404 659 OFFCURVE",
"404 635 CURVE",
"435 635 OFFCURVE",
"452 619 OFFCURVE",
"452 598 CURVE SMOOTH",
"452 590 OFFCURVE",
"451 581 OFFCURVE",
"445 572 CURVE",
"354 403 LINE",
"404 405 LINE",
"295 572 LINE SMOOTH",
"286 585 OFFCURVE",
"279 598 OFFCURVE",
"279 609 CURVE SMOOTH",
"279 624 OFFCURVE",
"293 635 OFFCURVE",
"335 635 CURVE",
"335 659 OFFCURVE",
"326 682 OFFCURVE",
"311 698 CURVE",
"27 698 LINE",
"13 682 OFFCURVE",
"5 659 OFFCURVE",
"5 635 CURVE",
"44 635 OFFCURVE",
"80 617 OFFCURVE",
"109 574 CURVE SMOOTH",
"297 300 LINE",
"298 385 LINE",
"107 113 LINE SMOOTH",
"82 77 OFFCURVE",
"63 64 OFFCURVE",
"9 64 CURVE",
"9 40 OFFCURVE",
"18 16 OFFCURVE",
"33 0 CURVE",
"260 0 LINE",
"275 16 OFFCURVE",
"283 40 OFFCURVE",
"283 64 CURVE",
"252 64 OFFCURVE",
"234 80 OFFCURVE",
"234 101 CURVE SMOOTH",
"234 109 OFFCURVE",
"237 118 OFFCURVE",
"243 127 CURVE SMOOTH",
"355 300 LINE",
"296 299 LINE",
"415 127 LINE SMOOTH",
"424 114 OFFCURVE",
"429 102 OFFCURVE",
"429 91 CURVE SMOOTH",
"429 75 OFFCURVE",
"415 64 OFFCURVE",
"375 64 CURVE",
"375 40 OFFCURVE",
"384 16 OFFCURVE",
"399 0 CURVE",
"683 0 LINE",
"697 16 OFFCURVE",
"705 40 OFFCURVE",
"705 64 CURVE",
"662 64 OFFCURVE",
"622 90 OFFCURVE",
"597 126 CURVE SMOOTH"
);
}
);
width = 710;
}
);
leftKerningGroup = X;
rightKerningGroup = X;
unicode = 0058;
},
{
color = 4;
glyphname = Y;
lastChange = "2018-06-05 15:57:57 +0000";
layers = (
{
anchors = (
{
name = btm;
position = "{330, 0}";
},
{
name = top;
position = "{330, 975}";
}
);
layerId = "184835E3-72D9-430C-A639-2454AC4A0BE8";
paths = (
{
closed = 1;
nodes = (
"438 698 LINE",
"423 682 OFFCURVE",
"415 659 OFFCURVE",
"415 635 CURVE",
"446 635 OFFCURVE",
"474 616 OFFCURVE",
"474 591 CURVE SMOOTH",
"474 585 OFFCURVE",
"472 578 OFFCURVE",
"469 572 CURVE SMOOTH",
"339 336 LINE",
"386 335 LINE",
"279 546 LINE SMOOTH",
"269 566 OFFCURVE",
"263 583 OFFCURVE",
"263 596 CURVE SMOOTH",
"263 622 OFFCURVE",
"282 635 OFFCURVE",
"323 635 CURVE",
"323 659 OFFCURVE",
"315 682 OFFCURVE",
"300 698 CURVE",
"14 698 LINE",
"-1 682 OFFCURVE",
"-10 659 OFFCURVE",
"-10 635 CURVE",
"17 635 OFFCURVE",
"49 617 OFFCURVE",
"64 591 CURVE SMOOTH",
"284 210 LINE",
"263 306 LINE",
"263 114 LINE SMOOTH",
"263 77 OFFCURVE",
"215 64 OFFCURVE",
"171 64 CURVE",
"171 40 OFFCURVE",
"179 16 OFFCURVE",
"193 0 CURVE",
"494 0 LINE",
"508 16 OFFCURVE",
"516 40 OFFCURVE",
"516 64 CURVE",
"469 64 OFFCURVE",
"420 77 OFFCURVE",
"420 114 CURVE SMOOTH",
"420 309 LINE",
"389 213 LINE",
"594 585 LINE SMOOTH {name = hr00;}",
"615 624 OFFCURVE",
"617 635 OFFCURVE",
"671 635 CURVE",
"671 659 OFFCURVE",
"662 682 OFFCURVE",
"647 698 CURVE"
);
}
);
width = 661;
}
);
leftKerningGroup = Y;
rightKerningGroup = Y;
unicode = 0059;
},
{
color = 4;
glyphname = Z;
lastChange = "2018-06-05 15:58:05 +0000";
layers = (
{
anchors = (
{
name = btm;
position = "{343, -12}";
},
{
name = top;
position = "{343, 963}";
}
);
layerId = "184835E3-72D9-430C-A639-2454AC4A0BE8";
paths = (
{
closed = 1;
nodes = (
"628 661 LINE",
"603 698 LINE",
"114 698 LINE",
"92 654 OFFCURVE",
"76 563 OFFCURVE",
"76 473 CURVE",
"170 473 LINE",
"184 572 OFFCURVE",
"236 619 OFFCURVE",
"323 619 CURVE SMOOTH",
"420 619 LINE",
"54 38 LINE",
"79 0 LINE",
"515 0 LINE",
"539 -11 OFFCURVE",
"566 -16 OFFCURVE",
"590 -16 CURVE",
"608 20 OFFCURVE",
"632 200 OFFCURVE",
"632 239 CURVE",
"542 239 LINE",
"523 182 OFFCURVE",
"475 79 OFFCURVE",
"408 79 CURVE",
"274 79 LINE {name = hr00;}"
);
}
);
width = 686;
}
);
leftKerningGroup = Z;
rightKerningGroup = Z;
unicode = 005A;
},
{
color = 4;
glyphname = a;
lastChange = "2018-06-05 16:10:31 +0000";
layers = (
{
anchors = (
{
name = btm;
position = "{261, -5}";
},
{
name = top;
position = "{261, 970}";
}
);
layerId = "184835E3-72D9-430C-A639-2454AC4A0BE8";
paths = (
{
closed = 1;
nodes = (
"16 50 OFFCURVE",
"82 -14 OFFCURVE",
"182 -14 CURVE SMOOTH",
"242 -14 OFFCURVE",
"286 9 OFFCURVE",
"313 33 CURVE",
"331 3 OFFCURVE",
"364 -14 OFFCURVE",
"409 -14 CURVE SMOOTH",
"448 -14 OFFCURVE",
"495 -1 OFFCURVE",
"513 24 CURVE",
"513 56 LINE",
"482 63 OFFCURVE",
"465 83 OFFCURVE",
"465 114 CURVE SMOOTH",
"465 386 LINE SMOOTH",
"465 490 OFFCURVE",
"399 545 OFFCURVE",
"266 545 CURVE SMOOTH",
"116 545 OFFCURVE",
"50 477 OFFCURVE",
"50 410 CURVE SMOOTH",
"50 364 OFFCURVE",
"83 329 OFFCURVE",
"134 329 CURVE SMOOTH",
"179 329 OFFCURVE",
"215 359 OFFCURVE",
"215 403 CURVE SMOOTH",
"215 426 OFFCURVE",
"204 449 OFFCURVE",
"177 458 CURVE",
"190 468 OFFCURVE",
"210 474 OFFCURVE",
"231 474 CURVE SMOOTH",
"272 474 OFFCURVE",
"301 453 OFFCURVE",
"301 397 CURVE SMOOTH",
"301 264 LINE",
"274 278 OFFCURVE",
"227 286 OFFCURVE",
"188 286 CURVE SMOOTH",
"69 286 OFFCURVE",
"16 223 OFFCURVE",
"16 137 CURVE SMOOTH {name = hr00;}"
);
},
{
closed = 1;
nodes = (
"288 73 OFFCURVE",
"266 67 OFFCURVE",
"247 67 CURVE SMOOTH",
"207 67 OFFCURVE",
"181 93 OFFCURVE",
"181 136 CURVE SMOOTH",
"181 182 OFFCURVE",
"210 204 OFFCURVE",
"245 204 CURVE SMOOTH",
"265 204 OFFCURVE",
"287 196 OFFCURVE",
"301 187 CURVE",
"301 83 LINE"
);
}
);
width = 526;
}
);
leftKerningGroup = a;
rightKerningGroup = n;
unicode = 0061;
},
{
color = 4;
glyphname = ae;
lastChange = "2018-06-05 03:32:55 +0000";
layers = (
{
anchors = (
{
name = btm;
position = "{430, -5}";
},
{
name = top;
position = "{430, 970}";
}
);
layerId = "184835E3-72D9-430C-A639-2454AC4A0BE8";
paths = (
{
closed = 1;
nodes = (
"68 49 OFFCURVE",
"133 -15 OFFCURVE",
"237 -15 CURVE SMOOTH",
"335 -15 OFFCURVE",
"413 43 OFFCURVE",
"462 108 CURVE",
"517 113 LINE",
"517 360 LINE SMOOTH",
"517 465 OFFCURVE",
"456 543 OFFCURVE",
"310 543 CURVE SMOOTH",
"173 543 OFFCURVE",
"103 474 OFFCURVE",
"103 408 CURVE SMOOTH",
"103 363 OFFCURVE",
"136 327 OFFCURVE",
"186 327 CURVE SMOOTH",
"231 327 OFFCURVE",
"267 357 OFFCURVE",
"267 400 CURVE SMOOTH",
"267 424 OFFCURVE",
"257 448 OFFCURVE",
"230 456 CURVE",
"243 466 OFFCURVE",
"263 472 OFFCURVE",
"283 472 CURVE SMOOTH",
"325 472 OFFCURVE",
"352 450 OFFCURVE",
"352 395 CURVE SMOOTH",
"352 263 LINE",
"326 277 OFFCURVE",
"280 285 OFFCURVE",
"241 285 CURVE SMOOTH",
"133 285 OFFCURVE",
"68 222 OFFCURVE",
"68 136 CURVE SMOOTH {name = hr01;}"
);
},
{
closed = 1;
nodes = (
"339 74 OFFCURVE",
"321 66 OFFCURVE",
"297 66 CURVE SMOOTH",
"263 66 OFFCURVE",
"233 90 OFFCURVE",
"233 135 CURVE SMOOTH",
"233 180 OFFCURVE",
"262 203 OFFCURVE",
"298 203 CURVE SMOOTH",
"317 203 OFFCURVE",
"339 195 OFFCURVE",
"352 186 CURVE",
"352 88 LINE"
);
},
{
closed = 1;
nodes = (
"414 35 OFFCURVE",
"491 -15 OFFCURVE",
"592 -15 CURVE SMOOTH",
"707 -15 OFFCURVE",
"778 51 OFFCURVE",
"778 86 CURVE SMOOTH",
"778 97 OFFCURVE",
"770 126 OFFCURVE",
"759 136 CURVE {name = hr02;}",
"724 111 OFFCURVE",
"687 96 OFFCURVE",
"642 96 CURVE SMOOTH",
"566 96 OFFCURVE",
"517 140 OFFCURVE",
"517 265 CURVE SMOOTH",
"517 307 LINE SMOOTH",
"517 439 OFFCURVE",
"555 472 OFFCURVE",
"592 472 CURVE SMOOTH",
"620 472 OFFCURVE",
"646 452 OFFCURVE",
"646 369 CURVE SMOOTH",
"646 342 OFFCURVE",
"643 324 OFFCURVE",
"620 324 CURVE SMOOTH",
"464 324 LINE",
"460 248 LINE",
"727 248 LINE SMOOTH",
"780 248 OFFCURVE",
"792 292 OFFCURVE",
"792 343 CURVE SMOOTH",
"792 470 OFFCURVE",
"718 543 OFFCURVE",
"601 543 CURVE SMOOTH",
"493 543 OFFCURVE",
"414 482 OFFCURVE",
"374 367 CURVE",
"376 121 LINE"
);
}
);
width = 860;
}
);
leftKerningGroup = a;
rightKerningGroup = e;
unicode = 00E6;
userData = {
com.typemytype.robofont.guides = (
{
angle = 90;
isGlobal = 0;
magnetic = 5;
x = 938;
y = 0;
}
);
};
},
{
color = 4;
glyphname = b;
lastChange = "2018-06-05 16:37:43 +0000";
layers = (
{
anchors = (
{
name = btm;
position = "{290, -6}";
},
{
name = top;
position = "{290, 969}";
}
);
layerId = "184835E3-72D9-430C-A639-2454AC4A0BE8";
paths = (
{
closed = 1;
nodes = (
"301 540 OFFCURVE",
"264 529 OFFCURVE",
"237 501 CURVE",
"240 596 LINE",
"240 728 LINE SMOOTH",
"240 761 OFFCURVE",
"228 774 OFFCURVE",
"196 774 CURVE SMOOTH",
"153 774 OFFCURVE",
"63 748 OFFCURVE",
"18 717 CURVE",
"18 685 LINE",
"62 685 OFFCURVE",
"79 666 OFFCURVE",
"79 636 CURVE SMOOTH",
"79 22 LINE",
"126 -1 OFFCURVE",
"226 -13 OFFCURVE",
"285 -13 CURVE SMOOTH",
"434 -13 OFFCURVE",
"553 91 OFFCURVE",
"553 283 CURVE SMOOTH",
"553 458 OFFCURVE",
"457 540 OFFCURVE",
"347 540 CURVE SMOOTH"
);
},
{
closed = 1;
nodes = (
"269 60 OFFCURVE",
"253 66 OFFCURVE",
"240 79 CURVE",
"240 444 LINE",
"250 451 OFFCURVE",
"263 455 OFFCURVE",
"278 455 CURVE SMOOTH",
"339 455 OFFCURVE",
"386 395 OFFCURVE",
"386 249 CURVE SMOOTH",
"386 106 OFFCURVE",
"342 60 OFFCURVE",
"288 60 CURVE SMOOTH"
);
}
);
width = 579;
}
);
leftKerningGroup = h;
leftMetricsKey = l;
rightKerningGroup = o;
rightMetricsKey = o;
unicode = 0062;
},
{
color = 4;
glyphname = c;
lastChange = "2018-06-05 16:49:22 +0000";
layers = (
{
anchors = (
{
name = btm;
position = "{234, -5}";
},
{
name = top;
position = "{234, 970}";
}
);
layerId = "184835E3-72D9-430C-A639-2454AC4A0BE8";
paths = (
{
closed = 1;
nodes = (
"397 107 OFFCURVE",
"357 96 OFFCURVE",
"321 96 CURVE SMOOTH",
"244 96 OFFCURVE",
"196 148 OFFCURVE",
"196 295 CURVE SMOOTH",
"196 431 OFFCURVE",
"244 472 OFFCURVE",
"282 472 CURVE SMOOTH",
"290 472 OFFCURVE",
"297 471 OFFCURVE",
"311 463 CURVE",
"294 450 OFFCURVE",
"281 432 OFFCURVE",
"281 402 CURVE SMOOTH",
"281 359 OFFCURVE",
"312 326 OFFCURVE",
"357 326 CURVE SMOOTH",
"407 326 OFFCURVE",
"443 360 OFFCURVE",
"443 422 CURVE SMOOTH",
"443 490 OFFCURVE",
"388 543 OFFCURVE",
"286 543 CURVE SMOOTH",
"138 543 OFFCURVE",
"26 438 OFFCURVE",
"26 260 CURVE SMOOTH",
"26 88 OFFCURVE",
"127 -15 OFFCURVE",
"273 -15 CURVE SMOOTH",
"366 -15 OFFCURVE",
"441 34 OFFCURVE",
"441 77 CURVE SMOOTH",
"441 91 OFFCURVE",
"433 114 OFFCURVE",
"422 127 CURVE {name = hr00;}"
);
}
);
width = 469;
}
);
leftKerningGroup = o;
leftMetricsKey = o;
rightKerningGroup = c;
unicode = 0063;
},
{
color = 4;
glyphname = d;
lastChange = "2018-06-05 16:37:57 +0000";
layers = (
{
anchors = (
{
name = btm;
position = "{288, -5}";
},
{
name = car;
position = "{608, 529}";
},
{
name = top;
position = "{288, 970}";
}
);
layerId = "184835E3-72D9-430C-A639-2454AC4A0BE8";
paths = (
{
closed = 1;
nodes = (
"524 59 OFFCURVE",
"507 79 OFFCURVE",
"507 111 CURVE SMOOTH",
"507 729 LINE SMOOTH",
"507 762 OFFCURVE",
"494 775 OFFCURVE",
"463 775 CURVE SMOOTH",
"420 775 OFFCURVE",
"328 753 OFFCURVE",
"279 726 CURVE",
"279 685 LINE",
"334 685 OFFCURVE",
"346 666 OFFCURVE",
"346 636 CURVE SMOOTH",
"346 596 LINE",
"349 536 LINE",
"327 538 OFFCURVE",
"305 540 OFFCURVE",
"288 540 CURVE SMOOTH",
"139 540 OFFCURVE",
"26 431 OFFCURVE",
"26 239 CURVE SMOOTH",
"26 69 OFFCURVE",
"121 -13 OFFCURVE",
"230 -13 CURVE SMOOTH",
"284 -13 OFFCURVE",
"325 -3 OFFCURVE",
"353 34 CURVE",
"369 2 OFFCURVE",
"414 -13 OFFCURVE",
"451 -13 CURVE SMOOTH",
"491 -13 OFFCURVE",
"537 0 OFFCURVE",
"556 25 CURVE",
"555 53 LINE"
);
},
{
closed = 1;
nodes = (
"239 72 OFFCURVE",
"193 136 OFFCURVE",
"193 274 CURVE SMOOTH",
"193 420 OFFCURVE",
"236 469 OFFCURVE",
"290 469 CURVE SMOOTH",
"314 469 OFFCURVE",
"332 459 OFFCURVE",
"346 440 CURVE",
"346 90 LINE",
"336 79 OFFCURVE",
"320 72 OFFCURVE",
"299 72 CURVE SMOOTH"
);
}
);
width = 578;
}
);
leftKerningGroup = o;
leftMetricsKey = o;
rightKerningGroup = l;
unicode = 0064;
},
{
color = 4;
glyphname = eth;
lastChange = "2018-06-05 03:44:54 +0000";
layers = (
{
anchors = (
{
name = btm;
position = "{273, -5}";
},
{
name = top;
position = "{273, 970}";
}
);
layerId = "184835E3-72D9-430C-A639-2454AC4A0BE8";
paths = (
{
closed = 1;
nodes = (
"444 789 OFFCURVE",
"428 800 OFFCURVE",
"408 811 CURVE",
"157 646 LINE",
"157 632 OFFCURVE",
"179 599 OFFCURVE",
"203 595 CURVE",
"450 760 LINE {name = hr00;}"
);
},
{
closed = 1;
nodes = (
"238 57 OFFCURVE",
"203 92 OFFCURVE",
"203 248 CURVE SMOOTH",
"203 405 OFFCURVE",
"230 438 OFFCURVE",
"278 438 CURVE SMOOTH",
"315 438 OFFCURVE",
"361 420 OFFCURVE",
"361 339 CURVE",
"389 386 LINE",
"389 461 OFFCURVE",
"332 510 OFFCURVE",
"248 510 CURVE SMOOTH",
"135 510 OFFCURVE",
"26 419 OFFCURVE",
"26 240 CURVE SMOOTH",
"26 80 OFFCURVE",
"129 -15 OFFCURVE",
"276 -15 CURVE SMOOTH",
"426 -15 OFFCURVE",
"521 90 OFFCURVE",
"521 296 CURVE SMOOTH",
"521 604 OFFCURVE",
"334 803 OFFCURVE",
"190 803 CURVE SMOOTH",
"156 803 OFFCURVE",
"141 792 OFFCURVE",
"129 758 CURVE",
"320 669 OFFCURVE",
"361 495 OFFCURVE",
"361 339 CURVE SMOOTH",
"361 92 OFFCURVE",
"337 57 OFFCURVE",
"281 57 CURVE SMOOTH"
);
}
);
width = 547;
}
);
leftKerningGroup = eth;
leftMetricsKey = o;
rightKerningGroup = eth;
rightMetricsKey = o;
unicode = 00F0;
},
{
color = 4;
glyphname = e;
lastChange = "2018-06-05 17:13:22 +0000";
layers = (
{
anchors = (
{
name = btm;
position = "{247, -6}";
},
{
name = top;
position = "{247, 969}";
}
);
layerId = "184835E3-72D9-430C-A639-2454AC4A0BE8";
paths = (
{
closed = 1;
nodes = (
"246 95 OFFCURVE",
"198 135 OFFCURVE",
"194 247 CURVE",
"408 247 LINE SMOOTH",
"460 247 OFFCURVE",
"472 291 OFFCURVE",
"472 342 CURVE SMOOTH",
"472 469 OFFCURVE",
"395 542 OFFCURVE",
"275 542 CURVE SMOOTH",
"131 542 OFFCURVE",
"26 434 OFFCURVE",
"26 260 CURVE SMOOTH",
"26 91 OFFCURVE",
"120 -16 OFFCURVE",
"269 -16 CURVE SMOOTH",
"384 -16 OFFCURVE",
"455 50 OFFCURVE",
"455 83 CURVE SMOOTH",
"455 97 OFFCURVE",
"447 124 OFFCURVE",
"435 135 CURVE {name = hr00;}",
"401 110 OFFCURVE",
"363 95 OFFCURVE",
"318 95 CURVE SMOOTH"
);
},
{
closed = 1;
nodes = (
"297 473 OFFCURVE",
"321 453 OFFCURVE",
"321 368 CURVE SMOOTH",
"321 342 OFFCURVE",
"318 323 OFFCURVE",
"295 323 CURVE SMOOTH",
"194 323 LINE",
"197 441 OFFCURVE",
"234 473 OFFCURVE",
"269 473 CURVE SMOOTH"
);
}
);
width = 494;
}
);
leftKerningGroup = o;
leftMetricsKey = o;
rightKerningGroup = e;
unicode = 0065;
},
{
color = 4;
glyphname = schwa;
lastChange = "2018-06-05 16:40:36 +0000";
layers = (
{
anchors = (
{
name = btm;
position = "{265, -5}";
}
);
layerId = "184835E3-72D9-430C-A639-2454AC4A0BE8";
paths = (
{
closed = 1;
nodes = (
"130 543 OFFCURVE",
"59 476 OFFCURVE",
"59 444 CURVE SMOOTH",
"59 430 OFFCURVE",
"67 403 OFFCURVE",
"79 391 CURVE {name = hr00;}",
"113 417 OFFCURVE",
"151 432 OFFCURVE",
"196 432 CURVE SMOOTH",
"268 432 OFFCURVE",
"316 392 OFFCURVE",
"320 280 CURVE",
"106 280 LINE SMOOTH",
"54 280 OFFCURVE",
"42 236 OFFCURVE",
"42 185 CURVE SMOOTH",
"42 58 OFFCURVE",
"119 -15 OFFCURVE",
"239 -15 CURVE SMOOTH",
"383 -15 OFFCURVE",
"488 93 OFFCURVE",
"488 266 CURVE SMOOTH",
"488 436 OFFCURVE",
"394 543 OFFCURVE",
"245 543 CURVE SMOOTH"
);
},
{
closed = 1;
nodes = (
"217 54 OFFCURVE",
"193 74 OFFCURVE",
"193 159 CURVE SMOOTH",
"193 185 OFFCURVE",
"196 204 OFFCURVE",
"219 204 CURVE SMOOTH",
"320 204 LINE",
"317 86 OFFCURVE",
"280 54 OFFCURVE",
"245 54 CURVE SMOOTH"
);
}
);
width = 514;
}
);
leftKerningGroup = uni0259;
rightKerningGroup = uni0259;
rightMetricsKey = o;
unicode = 0259;
},
{
color = 4;
glyphname = f;
lastChange = "2018-06-05 17:21:25 +0000";
layers = (
{
anchors = (
{
name = btm;
position = "{192, 0}";
},
{
name = top;
position = "{192, 975}";
}
);
layerId = "184835E3-72D9-430C-A639-2454AC4A0BE8";
paths = (
{
closed = 1;
nodes = (
"324 450 LINE",
"339 473 OFFCURVE",
"341 510 OFFCURVE",
"341 540 CURVE",
"245 540 LINE SMOOTH",
"232 540 OFFCURVE",
"212 586 OFFCURVE",
"212 647 CURVE SMOOTH",
"212 703 OFFCURVE",
"240 750 OFFCURVE",
"276 750 CURVE SMOOTH {name = hr02;}",
"285 750 OFFCURVE",
"298 745 OFFCURVE",
"302 737 CURVE",
"273 716 OFFCURVE",
"270 692 OFFCURVE",
"270 674 CURVE SMOOTH",
"270 633 OFFCURVE",
"309 603 OFFCURVE",
"352 603 CURVE SMOOTH",
"400 603 OFFCURVE",
"430 644 OFFCURVE",
"430 697 CURVE SMOOTH",
"430 752 OFFCURVE",
"376 822 OFFCURVE",
"272 822 CURVE SMOOTH",
"152 822 OFFCURVE",
"71 754 OFFCURVE",
"71 615 CURVE SMOOTH",
"71 580 OFFCURVE",
"81 555 OFFCURVE",
"81 506 CURVE",
"92 549 LINE",
"70 532 OFFCURVE",
"57 521 OFFCURVE",
"20 512 CURVE",
"20 450 LINE {name = hr03;}",
"132 450 LINE",
"81 501 LINE",
"81 109 LINE SMOOTH",
"81 70 OFFCURVE",
"66 54 OFFCURVE",
"26 54 CURVE",
"26 33 OFFCURVE",
"34 15 OFFCURVE",
"49 0 CURVE",
"313 0 LINE",
"328 15 OFFCURVE",
"336 33 OFFCURVE",
"336 54 CURVE",
"256 54 OFFCURVE",
"242 73 OFFCURVE",
"242 118 CURVE SMOOTH",
"242 501 LINE {name = hr01;}",
"191 450 LINE {name = hr01;}"
);
}
);
width = 352;
}
);
leftKerningGroup = f;
rightKerningGroup = f;
unicode = 0066;
},
{
color = 4;
glyphname = g;
lastChange = "2018-06-05 17:16:00 +0000";
layers = (
{
anchors = (
{
name = btm;
position = "{263, -133}";
},
{
name = top;
position = "{259, 975}";
}
);
layerId = "184835E3-72D9-430C-A639-2454AC4A0BE8";
paths = (
{
closed = 1;
nodes = (
"482 247 OFFCURVE",
"482 374 CURVE SMOOTH",
"482 422 OFFCURVE",
"443 484 OFFCURVE",
"404 507 CURVE",
"429 451 LINE",
"437 490 OFFCURVE",
"431 519 OFFCURVE",
"449 535 CURVE",
"468 516 OFFCURVE",
"486 511 OFFCURVE",
"504 511 CURVE SMOOTH",
"540 511 OFFCURVE",
"564 533 OFFCURVE",
"564 573 CURVE SMOOTH",
"564 607 OFFCURVE",
"550 641 OFFCURVE",
"482 641 CURVE SMOOTH",
"439 641 OFFCURVE",
"382 598 OFFCURVE",
"382 542 CURVE SMOOTH",
"382 530 OFFCURVE",
"384 511 OFFCURVE",
"388 497 CURVE",
"393 513 LINE",
"358 532 OFFCURVE",
"308 544 OFFCURVE",
"244 544 CURVE SMOOTH",
"243 544 LINE SMOOTH",
"107 544 OFFCURVE",
"22 469 OFFCURVE",
"22 368 CURVE SMOOTH",
"22 266 OFFCURVE",
"114 187 OFFCURVE",
"235 187 CURVE SMOOTH",
"368 187 OFFCURVE"
);
},
{
closed = 1;
nodes = (
"217 253 OFFCURVE",
"191 284 OFFCURVE",
"191 357 CURVE SMOOTH {name = hr00;}",
"191 437 OFFCURVE",
"213 478 OFFCURVE",
"252 478 CURVE SMOOTH",
"285 478 OFFCURVE",
"314 456 OFFCURVE",
"314 382 CURVE SMOOTH",
"314 291 OFFCURVE",
"291 253 OFFCURVE",
"252 253 CURVE SMOOTH"
);
},
{
closed = 1;
nodes = (
"421 -249 OFFCURVE",
"524 -166 OFFCURVE",
"524 -56 CURVE SMOOTH",
"524 47 OFFCURVE",
"425 92 OFFCURVE",
"268 116 CURVE SMOOTH",
"203 126 OFFCURVE",
"172 133 OFFCURVE",
"172 167 CURVE SMOOTH",
"172 183 OFFCURVE",
"179 198 OFFCURVE",
"191 207 CURVE",
"186 218 LINE",
"108 218 OFFCURVE",
"69 153 OFFCURVE",
"69 124 CURVE SMOOTH",
"69 66 OFFCURVE",
"97 18 OFFCURVE",
"231 -8 CURVE SMOOTH",
"320 -25 OFFCURVE",
"370 -36 OFFCURVE",
"370 -83 CURVE SMOOTH",
"370 -124 OFFCURVE",
"343 -164 OFFCURVE",
"277 -164 CURVE SMOOTH",
"188 -164 OFFCURVE",
"158 -118 OFFCURVE",
"158 -59 CURVE SMOOTH",
"158 -26 OFFCURVE",
"165 15 OFFCURVE",
"217 31 CURVE",
"179 46 LINE",
"67 40 OFFCURVE",
"8 -18 OFFCURVE",
"8 -86 CURVE SMOOTH",
"8 -179 OFFCURVE",
"91 -249 OFFCURVE",
"263 -249 CURVE SMOOTH"
);
}
);
width = 535;
}
);
leftKerningGroup = g;
rightKerningGroup = g;
unicode = 0067;
},
{
color = 4;
glyphname = h;
lastChange = "2018-06-05 14:19:29 +0000";
layers = (
{
anchors = (
{
name = btm;
position = "{308, -8}";
},
{
name = top;
position = "{308, 967}";
}
);
layerId = "184835E3-72D9-430C-A639-2454AC4A0BE8";
paths = (
{
closed = 1;
nodes = (
"545 488 OFFCURVE",
"497 536 OFFCURVE",
"403 536 CURVE SMOOTH",
"326 536 OFFCURVE",
"268 506 OFFCURVE",
"235 457 CURVE",
"237 384 LINE",
"254 417 OFFCURVE",
"285 438 OFFCURVE",
"315 438 CURVE SMOOTH",
"354 438 OFFCURVE",
"381 414 OFFCURVE",
"381 371 CURVE SMOOTH",
"381 30 LINE SMOOTH",
"381 -14 OFFCURVE",
"421 -22 OFFCURVE",
"471 -22 CURVE SMOOTH",
"519 -22 OFFCURVE",
"570 -10 OFFCURVE",
"594 12 CURVE",
"592 40 LINE",
"561 46 OFFCURVE",
"545 65 OFFCURVE",
"545 98 CURVE SMOOTH",
"545 400 LINE SMOOTH {name = hr00;}"
);
},
{
closed = 1;
nodes = (
"85 61 OFFCURVE",
"70 46 OFFCURVE",
"30 46 CURVE",
"30 24 OFFCURVE",
"38 7 OFFCURVE",
"53 -8 CURVE",
"279 -8 LINE",
"294 7 OFFCURVE",
"302 24 OFFCURVE",
"302 46 CURVE",
"262 46 OFFCURVE",
"247 61 OFFCURVE",
"247 100 CURVE SMOOTH",
"247 426 LINE",
"244 441 LINE",
"247 537 LINE",
"247 724 LINE SMOOTH",
"247 757 OFFCURVE",
"234 770 OFFCURVE",
"204 770 CURVE SMOOTH",
"159 770 OFFCURVE",
"67 748 OFFCURVE",
"18 722 CURVE",
"18 681 LINE",
"73 681 OFFCURVE",
"85 662 OFFCURVE",
"85 632 CURVE SMOOTH",
"85 100 LINE SMOOTH"
);
}
);
width = 611;
}
);
leftKerningGroup = h;
leftMetricsKey = b;
rightKerningGroup = n;
rightMetricsKey = n;
unicode = 0068;
},
{
color = 4;
glyphname = i;
lastChange = "2018-06-05 16:10:51 +0000";
layers = (
{
anchors = (
{
name = btm;
position = "{155, 0}";
},
{
name = top;
position = "{155, 975}";
}
);
layerId = "184835E3-72D9-430C-A639-2454AC4A0BE8";
paths = (
{
closed = 1;
nodes = (
"240 530 OFFCURVE",
"226 543 OFFCURVE",
"195 543 CURVE SMOOTH",
"151 543 OFFCURVE",
"69 522 OFFCURVE",
"20 495 CURVE",
"20 450 LINE",
"75 450 OFFCURVE",
"78 432 OFFCURVE",
"78 401 CURVE SMOOTH",
"78 109 LINE SMOOTH",
"78 69 OFFCURVE",
"63 54 OFFCURVE",
"24 54 CURVE",
"24 31 OFFCURVE",
"32 15 OFFCURVE",
"47 0 CURVE",
"271 0 LINE",
"286 15 OFFCURVE",
"294 31 OFFCURVE",
"294 54 CURVE",
"255 54 OFFCURVE",
"240 68 OFFCURVE",
"240 108 CURVE SMOOTH",
"240 497 LINE SMOOTH {name = hr00;}"
);
},
{
closed = 1;
nodes = (
"248 756 OFFCURVE",
"213 792 OFFCURVE",
"158 792 CURVE SMOOTH",
"103 792 OFFCURVE",
"67 756 OFFCURVE",
"67 703 CURVE SMOOTH",
"67 649 OFFCURVE",
"101 613 OFFCURVE",
"156 613 CURVE SMOOTH",
"211 613 OFFCURVE",
"248 649 OFFCURVE",
"248 703 CURVE SMOOTH"
);
}
);
width = 312;
}
);
leftKerningGroup = i;
rightKerningGroup = i;
unicode = 0069;
},
{
glyphname = idotless;
lastChange = "2018-06-05 03:01:37 +0000";
layers = (
{
anchors = (
{
name = btm;
position = "{251, 0}";
},
{
name = top;
position = "{251, 975}";
}
);
layerId = "184835E3-72D9-430C-A639-2454AC4A0BE8";
paths = (
{
closed = 1;
nodes = (
"337 530 OFFCURVE",
"323 543 OFFCURVE",
"292 543 CURVE SMOOTH",
"248 543 OFFCURVE",
"166 522 OFFCURVE",
"117 495 CURVE",
"117 450 LINE",
"172 450 OFFCURVE",
"175 432 OFFCURVE",
"175 401 CURVE SMOOTH",
"175 109 LINE SMOOTH",
"175 69 OFFCURVE",
"160 54 OFFCURVE",
"121 54 CURVE",
"121 31 OFFCURVE",
"129 15 OFFCURVE",
"144 0 CURVE",
"368 0 LINE",
"383 15 OFFCURVE",
"391 31 OFFCURVE",
"391 54 CURVE",
"352 54 OFFCURVE",
"337 68 OFFCURVE",
"337 108 CURVE SMOOTH",
"337 497 LINE SMOOTH {name = hr00;}"
);
}
);
width = 500;
}
);
leftKerningGroup = idotless;
rightKerningGroup = idotless;
unicode = 0131;
},
{
color = 4;
glyphname = j;
lastChange = "2018-06-05 16:05:41 +0000";
layers = (
{
anchors = (
{
name = btm;
position = "{184, -97}";
},
{
name = top;
position = "{184, 878}";
}
);
background = {
paths = (
{
closed = 1;
nodes = (
"272 530 OFFCURVE",
"258 543 OFFCURVE",
"227 543 CURVE SMOOTH",
"183 543 OFFCURVE",
"101 522 OFFCURVE",
"52 495 CURVE",
"52 450 LINE",
"107 450 OFFCURVE",
"110 432 OFFCURVE",
"110 401 CURVE SMOOTH",
"110 109 LINE SMOOTH",
"110 69 OFFCURVE",
"95 54 OFFCURVE",
"56 54 CURVE",
"56 31 OFFCURVE",
"64 15 OFFCURVE",
"79 0 CURVE",
"303 0 LINE",
"318 15 OFFCURVE",
"326 31 OFFCURVE",
"326 54 CURVE",
"287 54 OFFCURVE",
"272 68 OFFCURVE",
"272 108 CURVE SMOOTH",
"272 497 LINE SMOOTH {name = hr00;}"
);
}
);
};
layerId = "184835E3-72D9-430C-A639-2454AC4A0BE8";
paths = (
{
closed = 1;
nodes = (
"280 749 OFFCURVE",
"243 783 OFFCURVE",
"189 783 CURVE SMOOTH",
"134 783 OFFCURVE",
"99 749 OFFCURVE",
"99 695 CURVE SMOOTH",
"99 643 OFFCURVE",
"134 606 OFFCURVE",
"189 606 CURVE SMOOTH",
"243 606 OFFCURVE",
"280 643 OFFCURVE",
"280 695 CURVE SMOOTH {name = hr00;}"
);
},
{
closed = 1;
nodes = (
"196 -188 OFFCURVE",
"270 -129 OFFCURVE",
"270 -3 CURVE SMOOTH",
"270 498 LINE SMOOTH",
"270 531 OFFCURVE",
"259 543 OFFCURVE",
"227 543 CURVE SMOOTH",
"185 543 OFFCURVE",
"94 521 OFFCURVE",
"45 496 CURVE",
"45 451 LINE",
"99 451 OFFCURVE",
"111 433 OFFCURVE",
"111 402 CURVE SMOOTH",
"111 4 LINE SMOOTH",
"111 -79 OFFCURVE",
"81 -105 OFFCURVE",
"29 -105 CURVE",
"25 -111 OFFCURVE",
"20 -125 OFFCURVE",
"20 -134 CURVE SMOOTH",
"20 -159 OFFCURVE",
"47 -188 OFFCURVE",
"109 -188 CURVE SMOOTH"
);
}
);
width = 298;
}
);
rightMetricsKey = i;
unicode = 006A;
},
{
glyphname = jdotless;
lastChange = "2018-06-05 16:07:01 +0000";
layers = (
{
anchors = (
{
name = top;
position = "{178, 975}";
}
);
layerId = "184835E3-72D9-430C-A639-2454AC4A0BE8";
paths = (
{
closed = 1;
nodes = (
"196 -188 OFFCURVE",
"270 -129 OFFCURVE",
"270 -3 CURVE SMOOTH",
"270 498 LINE SMOOTH",
"270 531 OFFCURVE",
"259 543 OFFCURVE",
"227 543 CURVE SMOOTH",
"185 543 OFFCURVE",
"94 521 OFFCURVE",
"45 496 CURVE",
"45 451 LINE",
"99 451 OFFCURVE",
"111 433 OFFCURVE",
"111 402 CURVE SMOOTH",
"111 4 LINE SMOOTH",
"111 -79 OFFCURVE",
"81 -105 OFFCURVE",
"29 -105 CURVE",
"25 -111 OFFCURVE",
"20 -125 OFFCURVE",
"20 -134 CURVE SMOOTH",
"20 -159 OFFCURVE",
"47 -188 OFFCURVE",
"109 -188 CURVE SMOOTH"
);
}
);
width = 297;
}
);
unicode = 0237;
},
{
color = 4;
glyphname = k;
lastChange = "2018-06-05 03:26:12 +0000";
layers = (
{
anchors = (
{
name = btm;
position = "{303, -3}";
},
{
name = top;
position = "{303, 972}";
}
);
layerId = "184835E3-72D9-430C-A639-2454AC4A0BE8";
paths = (
{
closed = 1;
nodes = (
"347 225 OFFCURVE",
"306 -10 OFFCURVE",
"494 -10 CURVE SMOOTH",
"543 -10 OFFCURVE",
"589 6 OFFCURVE",
"593 34 CURVE",
"593 58 LINE",
"541 76 OFFCURVE",
"538 101 OFFCURVE",
"470 211 CURVE SMOOTH",
"427 279 OFFCURVE",
"386 296 OFFCURVE",
"301 296 CURVE",
"239 260 LINE {name = hr00;}"
);
},
{
closed = 1;
nodes = (
"85 65 OFFCURVE",
"70 50 OFFCURVE",
"30 50 CURVE",
"30 28 OFFCURVE",
"38 11 OFFCURVE",
"54 -3 CURVE",
"279 -3 LINE",
"294 11 OFFCURVE",
"303 28 OFFCURVE",
"303 50 CURVE",
"262 50 OFFCURVE",
"247 65 OFFCURVE",
"247 104 CURVE SMOOTH",
"247 728 LINE SMOOTH",
"247 762 OFFCURVE",
"234 775 OFFCURVE",
"202 775 CURVE SMOOTH",
"160 775 OFFCURVE",
"67 752 OFFCURVE",
"18 726 CURVE",
"18 686 LINE",
"73 686 OFFCURVE",
"85 667 OFFCURVE",
"85 636 CURVE SMOOTH",
"85 104 LINE SMOOTH"
);
},
{
closed = 1;
nodes = (
"528 461 OFFCURVE",
"542 475 OFFCURVE",
"578 475 CURVE",
"578 497 OFFCURVE",
"575 520 OFFCURVE",
"559 536 CURVE",
"334 536 LINE",
"319 520 OFFCURVE",
"311 497 OFFCURVE",
"311 475 CURVE",
"338 475 OFFCURVE",
"360 463 OFFCURVE",
"373 442 CURVE SMOOTH",
"379 433 OFFCURVE",
"364 416 OFFCURVE",
"355 407 CURVE SMOOTH",
"244 290 LINE",
"244 262 LINE",
"347 284 LINE",
"514 448 LINE SMOOTH"
);
}
);
width = 593;
}
);
leftKerningGroup = h;
leftMetricsKey = l;
rightKerningGroup = k;
unicode = 006B;
},
{
color = 4;
glyphname = kgreenlandic;
lastChange = "2018-06-05 16:38:36 +0000";
layers = (
{
layerId = "184835E3-72D9-430C-A639-2454AC4A0BE8";
paths = (
{
closed = 1;
nodes = (
"384 219 OFFCURVE",
"353 -13 OFFCURVE",
"541 -13 CURVE SMOOTH",
"590 -13 OFFCURVE",
"636 2 OFFCURVE",
"640 31 CURVE",
"640 59 LINE",
"588 78 OFFCURVE",
"575 98 OFFCURVE",
"506 204 CURVE SMOOTH",
"462 272 OFFCURVE",
"423 289 OFFCURVE",
"338 289 CURVE",
"277 254 LINE {name = hr00;}"
);
},
{
closed = 1;
nodes = (
"121 73 OFFCURVE",
"106 58 OFFCURVE",
"65 58 CURVE",
"65 36 OFFCURVE",
"74 15 OFFCURVE",
"89 0 CURVE",
"316 0 LINE",
"331 15 OFFCURVE",
"339 36 OFFCURVE",
"339 58 CURVE",
"299 58 OFFCURVE",
"284 73 OFFCURVE",
"284 112 CURVE SMOOTH",
"284 494 LINE SMOOTH",
"284 527 OFFCURVE",
"271 540 OFFCURVE",
"239 540 CURVE SMOOTH",
"197 540 OFFCURVE",
"102 518 OFFCURVE",
"54 492 CURVE",
"54 451 LINE",
"109 451 OFFCURVE",
"121 432 OFFCURVE",
"121 401 CURVE SMOOTH",
"121 113 LINE SMOOTH"
);
},
{
closed = 1;
nodes = (
"565 453 OFFCURVE",
"578 469 OFFCURVE",
"611 469 CURVE",
"611 490 OFFCURVE",
"607 514 OFFCURVE",
"592 529 CURVE",
"389 529 LINE",
"373 514 OFFCURVE",
"366 490 OFFCURVE",
"366 469 CURVE",
"392 469 OFFCURVE",
"410 450 OFFCURVE",
"410 430 CURVE SMOOTH",
"410 420 OFFCURVE",
"405 410 OFFCURVE",
"396 401 CURVE SMOOTH",
"281 288 LINE",
"281 255 LINE",
"384 278 LINE",
"552 441 LINE SMOOTH"
);
}
);
width = 689;
}
);
leftKerningGroup = h;
rightKerningGroup = k;
unicode = 0138;
},
{
color = 4;
glyphname = l;
lastChange = "2018-06-05 16:07:28 +0000";
layers = (
{
anchors = (
{
name = btm;
position = "{161, 0}";
},
{
name = car;
position = "{373, 529}";
},
{
name = top;
position = "{161, 975}";
}
);
layerId = "184835E3-72D9-430C-A639-2454AC4A0BE8";
paths = (
{
closed = 1;
nodes = (
"86 69 OFFCURVE",
"70 54 OFFCURVE",
"31 54 CURVE",
"31 32 OFFCURVE",
"39 16 OFFCURVE",
"54 0 CURVE",
"278 0 LINE",
"293 16 OFFCURVE",
"302 32 OFFCURVE",
"302 54 CURVE",
"262 54 OFFCURVE",
"247 68 OFFCURVE",
"247 109 CURVE SMOOTH",
"247 733 LINE SMOOTH",
"247 766 OFFCURVE",
"234 778 OFFCURVE",
"203 778 CURVE SMOOTH",
"159 778 OFFCURVE",
"68 757 OFFCURVE",
"18 730 CURVE",
"18 690 LINE",
"74 690 OFFCURVE",
"86 670 OFFCURVE",
"86 640 CURVE SMOOTH",
"86 109 LINE SMOOTH {name = hr00;}"
);
}
);
width = 325;
}
);
leftKerningGroup = h;
rightKerningGroup = l;
unicode = 006C;
},
{
color = 4;
glyphname = m;
lastChange = "2018-06-05 16:03:46 +0000";
layers = (
{
anchors = (
{
name = btm;
position = "{444, -8}";
},
{
name = top;
position = "{444, 967}";
}
);
layerId = "184835E3-72D9-430C-A639-2454AC4A0BE8";
paths = (
{
closed = 1;
nodes = (
"827 488 OFFCURVE",
"780 536 OFFCURVE",
"684 536 CURVE SMOOTH",
"609 536 OFFCURVE",
"552 506 OFFCURVE",
"519 457 CURVE",
"521 387 LINE",
"539 421 OFFCURVE",
"568 438 OFFCURVE",
"601 438 CURVE SMOOTH {name = hr02;}",
"637 438 OFFCURVE",
"663 414 OFFCURVE",
"663 371 CURVE SMOOTH",
"663 30 LINE SMOOTH",
"663 -12 OFFCURVE",
"704 -22 OFFCURVE",
"753 -22 CURVE SMOOTH",
"815 -22 OFFCURVE",
"852 -10 OFFCURVE",
"876 11 CURVE",
"876 40 LINE",
"845 46 OFFCURVE",
"827 61 OFFCURVE",
"827 92 CURVE SMOOTH",
"827 399 LINE SMOOTH {name = hr01;}"
);
},
{
closed = 1;
nodes = (
"542 488 OFFCURVE",
"494 536 OFFCURVE",
"398 536 CURVE SMOOTH",
"322 536 OFFCURVE",
"264 504 OFFCURVE",
"232 455 CURVE",
"234 384 LINE",
"251 418 OFFCURVE",
"283 438 OFFCURVE",
"316 438 CURVE SMOOTH",
"351 438 OFFCURVE",
"379 414 OFFCURVE",
"379 371 CURVE SMOOTH",
"379 100 LINE SMOOTH",
"379 61 OFFCURVE",
"366 46 OFFCURVE",
"332 46 CURVE {name = hr03;}",
"332 24 OFFCURVE",
"341 7 OFFCURVE",
"355 -8 CURVE",
"568 -8 LINE",
"583 7 OFFCURVE",
"592 24 OFFCURVE",
"592 46 CURVE",
"557 46 OFFCURVE",
"542 61 OFFCURVE",
"542 100 CURVE SMOOTH",
"542 399 LINE SMOOTH"
);
},
{
closed = 1;
nodes = (
"283 7 OFFCURVE",
"291 24 OFFCURVE",
"291 46 CURVE",
"258 46 OFFCURVE",
"245 61 OFFCURVE",
"245 100 CURVE SMOOTH",
"246 447 LINE SMOOTH",
"246 520 OFFCURVE",
"225 536 OFFCURVE",
"194 536 CURVE SMOOTH",
"158 536 OFFCURVE",
"61 514 OFFCURVE",
"15 487 CURVE",
"15 443 LINE",
"66 443 OFFCURVE",
"82 428 OFFCURVE",
"82 393 CURVE SMOOTH",
"82 100 LINE SMOOTH",
"82 61 OFFCURVE",
"66 46 OFFCURVE",
"26 46 CURVE",
"26 24 OFFCURVE",
"35 7 OFFCURVE",
"50 -8 CURVE",
"267 -8 LINE"
);
}
);
width = 893;
}
);
leftKerningGroup = n;
leftMetricsKey = n;
rightKerningGroup = n;
rightMetricsKey = n;
unicode = 006D;
},
{
color = 4;
glyphname = n;
lastChange = "2018-06-05 03:02:59 +0000";
layers = (
{
anchors = (
{
name = btm;
position = "{320, -3}";
},
{
name = top;
position = "{305, 972}";
}
);
layerId = "184835E3-72D9-430C-A639-2454AC4A0BE8";
paths = (
{
closed = 1;
nodes = (
"538 497 OFFCURVE",
"490 540 OFFCURVE",
"397 540 CURVE SMOOTH",
"321 540 OFFCURVE",
"264 504 OFFCURVE",
"233 455 CURVE",
"236 397 LINE",
"253 425 OFFCURVE",
"281 443 OFFCURVE",
"314 443 CURVE SMOOTH",
"348 443 OFFCURVE",
"374 425 OFFCURVE",
"374 370 CURVE SMOOTH",
"374 35 LINE SMOOTH",
"374 -5 OFFCURVE",
"407 -9 OFFCURVE",
"464 -9 CURVE SMOOTH",
"507 -9 OFFCURVE",
"566 3 OFFCURVE",
"587 24 CURVE",
"586 53 LINE",
"555 59 OFFCURVE",
"538 78 OFFCURVE",
"538 111 CURVE SMOOTH",
"538 384 LINE SMOOTH {name = hr00;}"
);
},
{
closed = 1;
nodes = (
"292 12 OFFCURVE",
"300 29 OFFCURVE",
"300 50 CURVE",
"260 50 OFFCURVE",
"245 66 OFFCURVE",
"245 105 CURVE SMOOTH",
"245 452 LINE SMOOTH",
"245 525 OFFCURVE",
"225 540 OFFCURVE",
"194 540 CURVE SMOOTH",
"158 540 OFFCURVE",
"61 518 OFFCURVE",
"15 492 CURVE",
"15 447 LINE",
"66 447 OFFCURVE",
"82 432 OFFCURVE",
"82 397 CURVE SMOOTH",
"82 105 LINE SMOOTH",
"82 66 OFFCURVE",
"66 50 OFFCURVE",
"26 50 CURVE",
"26 29 OFFCURVE",
"35 12 OFFCURVE",
"50 -3 CURVE",
"277 -3 LINE"
);
}
);
width = 604;
}
);
leftKerningGroup = n;
rightKerningGroup = n;
unicode = 006E;
},
{
color = 4;
glyphname = eng;
lastChange = "2018-06-05 16:03:59 +0000";
layers = (
{
layerId = "184835E3-72D9-430C-A639-2454AC4A0BE8";
paths = (
{
closed = 1;
nodes = (
"292 -90 OFFCURVE",
"300 -68 OFFCURVE",
"300 -47 CURVE",
"261 -47 OFFCURVE",
"245 -32 OFFCURVE",
"245 8 CURVE SMOOTH",
"245 350 LINE SMOOTH",
"245 423 OFFCURVE",
"226 439 OFFCURVE",
"194 439 CURVE SMOOTH",
"158 439 OFFCURVE",
"62 417 OFFCURVE",
"15 391 CURVE",
"15 346 LINE",
"66 346 OFFCURVE",
"82 331 OFFCURVE",
"82 296 CURVE SMOOTH",
"82 8 LINE SMOOTH",
"82 -31 OFFCURVE",
"66 -47 OFFCURVE",
"27 -47 CURVE",
"27 -68 OFFCURVE",
"35 -90 OFFCURVE",
"50 -105 CURVE",
"277 -105 LINE {name = hr00;}"
);
},
{
closed = 1;
nodes = (
"462 -301 OFFCURVE",
"539 -242 OFFCURVE",
"539 -114 CURVE SMOOTH",
"538 303 LINE SMOOTH",
"538 391 OFFCURVE",
"491 439 OFFCURVE",
"397 439 CURVE SMOOTH",
"322 439 OFFCURVE",
"265 409 OFFCURVE",
"233 359 CURVE",
"235 296 LINE",
"252 322 OFFCURVE",
"281 341 OFFCURVE",
"315 341 CURVE SMOOTH",
"348 341 OFFCURVE",
"374 317 OFFCURVE",
"374 274 CURVE SMOOTH",
"375 -107 LINE SMOOTH",
"375 -190 OFFCURVE",
"346 -217 OFFCURVE",
"294 -217 CURVE",
"288 -224 OFFCURVE",
"285 -238 OFFCURVE",
"285 -247 CURVE SMOOTH",
"285 -271 OFFCURVE",
"312 -301 OFFCURVE",
"374 -301 CURVE SMOOTH"
);
}
);
width = 561;
}
);
leftKerningGroup = n;
leftMetricsKey = n;
rightKerningGroup = j;
rightMetricsKey = d;
unicode = 014B;
},
{
color = 4;
glyphname = o;
lastChange = "2018-06-05 16:52:07 +0000";
layers = (
{
anchors = (
{
name = btm;
position = "{274, -5}";
},
{
name = top;
position = "{274, 970}";
}
);
layerId = "184835E3-72D9-430C-A639-2454AC4A0BE8";
paths = (
{
closed = 1;
nodes = (
"417 -13 OFFCURVE",
"522 84 OFFCURVE",
"522 271 CURVE SMOOTH",
"522 448 OFFCURVE",
"422 543 OFFCURVE",
"279 543 CURVE SMOOTH",
"130 543 OFFCURVE",
"26 443 OFFCURVE",
"26 255 CURVE SMOOTH",
"26 79 OFFCURVE",
"126 -13 OFFCURVE",
"269 -13 CURVE SMOOTH"
);
},
{
closed = 1;
nodes = (
"231 59 OFFCURVE",
"201 96 OFFCURVE",
"201 282 CURVE SMOOTH {name = hr00;}",
"201 438 OFFCURVE",
"228 472 OFFCURVE",
"271 472 CURVE SMOOTH",
"317 472 OFFCURVE",
"346 435 OFFCURVE",
"346 247 CURVE SMOOTH",
"346 93 OFFCURVE",
"319 59 OFFCURVE",
"277 59 CURVE SMOOTH"
);
}
);
width = 548;
}
);
leftKerningGroup = o;
rightKerningGroup = o;
unicode = 006F;
},
{
color = 4;
glyphname = oe;
lastChange = "2018-06-05 16:26:01 +0000";
layers = (
{
anchors = (
{
name = btm;
position = "{410, -5}";
},
{
name = top;
position = "{410, 970}";
}
);
layerId = "184835E3-72D9-430C-A639-2454AC4A0BE8";
paths = (
{
closed = 1;
nodes = (
"418 -15 OFFCURVE",
"523 84 OFFCURVE",
"523 271 CURVE SMOOTH",
"523 448 OFFCURVE",
"423 543 OFFCURVE",
"280 543 CURVE SMOOTH",
"130 543 OFFCURVE",
"26 443 OFFCURVE",
"26 255 CURVE SMOOTH",
"26 79 OFFCURVE",
"126 -15 OFFCURVE",
"269 -15 CURVE SMOOTH"
);
},
{
closed = 1;
nodes = (
"232 57 OFFCURVE",
"203 94 OFFCURVE",
"203 282 CURVE SMOOTH {name = hr00;}",
"203 438 OFFCURVE",
"229 472 OFFCURVE",
"271 472 CURVE SMOOTH",
"317 472 OFFCURVE",
"346 435 OFFCURVE",
"346 247 CURVE SMOOTH",
"346 91 OFFCURVE",
"320 57 OFFCURVE",
"278 57 CURVE SMOOTH"
);
},
{
closed = 1;
nodes = (
"728 111 OFFCURVE",
"691 96 OFFCURVE",
"646 96 CURVE SMOOTH",
"571 96 OFFCURVE",
"522 140 OFFCURVE",
"522 265 CURVE SMOOTH",
"522 307 LINE SMOOTH",
"522 439 OFFCURVE",
"559 474 OFFCURVE",
"596 474 CURVE SMOOTH",
"625 474 OFFCURVE",
"650 454 OFFCURVE",
"650 369 CURVE SMOOTH",
"650 343 OFFCURVE",
"647 324 OFFCURVE",
"624 324 CURVE SMOOTH",
"467 324 LINE",
"464 248 LINE",
"731 248 LINE SMOOTH",
"784 248 OFFCURVE",
"796 292 OFFCURVE",
"796 343 CURVE SMOOTH",
"796 470 OFFCURVE",
"723 543 OFFCURVE",
"604 543 CURVE SMOOTH",
"459 543 OFFCURVE",
"353 436 OFFCURVE",
"353 261 CURVE SMOOTH",
"353 92 OFFCURVE",
"448 -15 OFFCURVE",
"597 -15 CURVE SMOOTH",
"712 -15 OFFCURVE",
"782 51 OFFCURVE",
"782 84 CURVE SMOOTH",
"782 98 OFFCURVE",
"774 125 OFFCURVE",
"763 136 CURVE {name = hr00;}"
);
}
);
width = 816;
}
);
leftKerningGroup = o;
leftMetricsKey = o;
rightKerningGroup = e;
rightMetricsKey = e;
unicode = 0153;
},
{
color = 4;
glyphname = p;
lastChange = "2018-06-05 16:37:19 +0000";
layers = (
{
anchors = (
{
name = btm;
position = "{288, -100}";
},
{
name = top;
position = "{288, 875}";
}
);
background = {
paths = (
{
closed = 1;
nodes = (
"278 542 OFFCURVE",
"241 531 OFFCURVE",
"214 503 CURVE",
"217 598 LINE",
"217 730 LINE SMOOTH",
"217 763 OFFCURVE",
"205 776 OFFCURVE",
"173 776 CURVE SMOOTH",
"130 776 OFFCURVE",
"40 750 OFFCURVE",
"-5 719 CURVE",
"-5 687 LINE",
"39 687 OFFCURVE",
"56 668 OFFCURVE",
"56 638 CURVE SMOOTH",
"56 24 LINE",
"103 1 OFFCURVE",
"203 -16 OFFCURVE",
"262 -16 CURVE SMOOTH",
"411 -16 OFFCURVE",
"530 93 OFFCURVE",
"530 285 CURVE SMOOTH",
"530 460 OFFCURVE",
"434 542 OFFCURVE",
"324 542 CURVE SMOOTH"
);
},
{
closed = 1;
nodes = (
"246 57 OFFCURVE",
"230 63 OFFCURVE",
"217 76 CURVE",
"217 446 LINE",
"227 453 OFFCURVE",
"240 457 OFFCURVE",
"255 457 CURVE SMOOTH",
"316 457 OFFCURVE",
"363 397 OFFCURVE",
"363 251 CURVE SMOOTH",
"363 108 OFFCURVE",
"319 57 OFFCURVE",
"265 57 CURVE SMOOTH"
);
}
);
};
layerId = "184835E3-72D9-430C-A639-2454AC4A0BE8";
paths = (
{
closed = 1;
nodes = (
"434 -11 OFFCURVE",
"549 99 OFFCURVE",
"549 290 CURVE SMOOTH",
"549 459 OFFCURVE",
"458 540 OFFCURVE",
"352 540 CURVE SMOOTH",
"305 540 OFFCURVE",
"263 529 OFFCURVE",
"233 500 CURVE",
"225 532 OFFCURVE",
"206 540 OFFCURVE",
"180 540 CURVE SMOOTH",
"145 540 OFFCURVE",
"62 518 OFFCURVE",
"18 492 CURVE",
"18 447 LINE",
"69 447 OFFCURVE",
"85 432 OFFCURVE",
"85 397 CURVE SMOOTH",
"85 -82 LINE SMOOTH",
"85 -121 OFFCURVE",
"78 -137 OFFCURVE",
"38 -137 CURVE",
"38 -159 OFFCURVE",
"47 -175 OFFCURVE",
"62 -190 CURVE",
"287 -190 LINE",
"302 -175 OFFCURVE",
"310 -159 OFFCURVE",
"310 -137 CURVE",
"280 -137 OFFCURVE",
"246 -121 OFFCURVE",
"246 -82 CURVE SMOOTH",
"246 -9 LINE",
"261 -10 OFFCURVE",
"274 -11 OFFCURVE",
"285 -11 CURVE SMOOTH"
);
},
{
closed = 1;
nodes = (
"381 112 OFFCURVE",
"338 62 OFFCURVE",
"284 62 CURVE SMOOTH",
"270 62 OFFCURVE",
"258 65 OFFCURVE",
"246 72 CURVE",
"246 445 LINE",
"254 449 OFFCURVE",
"264 451 OFFCURVE",
"274 451 CURVE SMOOTH",
"334 451 OFFCURVE",
"381 394 OFFCURVE",
"381 256 CURVE SMOOTH"
);
}
);
width = 575;
}
);
leftKerningGroup = p;
leftMetricsKey = b;
rightKerningGroup = o;
rightMetricsKey = b;
unicode = 0070;
},
{
glyphname = thorn;
lastChange = "2018-06-03 05:49:19 +0000";
layers = (
{
anchors = (
{
name = btm;
position = "{462, -270}";
},
{
name = top;
position = "{462, 664}";
}
);
components = (
{
name = b;
transform = "{0.75, 0, 0, 0.75, 11, -101}";
}
);
layerId = "184835E3-72D9-430C-A639-2454AC4A0BE8";
paths = (
{
closed = 1;
nodes = (
"456 -379 OFFCURVE",
"469 -354 OFFCURVE",
"469 -320 CURVE",
"411 -320 OFFCURVE",
"388 -296 OFFCURVE",
"387 -236 CURVE SMOOTH",
"385 -33 LINE",
"145 32 LINE",
"145 -236 LINE SMOOTH",
"145 -296 OFFCURVE",
"124 -320 OFFCURVE",
"63 -320 CURVE",
"63 -354 OFFCURVE",
"76 -379 OFFCURVE",
"99 -402 CURVE",
"433 -402 LINE"
);
}
);
width = 798;
}
);
leftKerningGroup = h;
leftMetricsKey = b;
rightKerningGroup = o;
rightMetricsKey = b;
unicode = 00FE;
},
{
color = 4;
glyphname = q;
lastChange = "2018-06-05 16:38:53 +0000";
layers = (
{
anchors = (
{
name = btm;
position = "{284, -112}";
},
{
name = top;
position = "{284, 863}";
}
);
layerId = "184835E3-72D9-430C-A639-2454AC4A0BE8";
paths = (
{
closed = 1;
nodes = (
"499 409 LINE SMOOTH {name = hr00;}",
"499 449 OFFCURVE",
"501 465 OFFCURVE",
"541 465 CURVE",
"541 487 OFFCURVE",
"533 510 OFFCURVE",
"517 525 CURVE",
"452 525 LINE SMOOTH",
"436 525 OFFCURVE",
"421 523 OFFCURVE",
"407 520 CURVE",
"370 532 OFFCURVE",
"329 540 OFFCURVE",
"289 540 CURVE SMOOTH",
"140 540 OFFCURVE",
"26 430 OFFCURVE",
"26 239 CURVE SMOOTH",
"26 68 OFFCURVE",
"121 -13 OFFCURVE",
"231 -13 CURVE SMOOTH",
"274 -13 OFFCURVE",
"310 -2 OFFCURVE",
"336 24 CURVE",
"336 -166 LINE SMOOTH",
"336 -208 OFFCURVE",
"376 -218 OFFCURVE",
"425 -218 CURVE SMOOTH",
"487 -218 OFFCURVE",
"524 -206 OFFCURVE",
"548 -184 CURVE",
"548 -157 LINE",
"517 -150 OFFCURVE",
"499 -135 OFFCURVE",
"499 -103 CURVE SMOOTH"
);
},
{
closed = 1;
nodes = (
"240 74 OFFCURVE",
"193 135 OFFCURVE",
"193 273 CURVE SMOOTH",
"193 420 OFFCURVE",
"236 468 OFFCURVE",
"290 468 CURVE SMOOTH",
"307 468 OFFCURVE",
"323 464 OFFCURVE",
"336 455 CURVE",
"336 83 LINE",
"327 78 OFFCURVE",
"315 74 OFFCURVE",
"300 74 CURVE SMOOTH"
);
}
);
width = 570;
}
);
leftKerningGroup = o;
leftMetricsKey = d;
rightKerningGroup = q;
rightMetricsKey = d;
unicode = 0071;
},
{
color = 4;
glyphname = r;
lastChange = "2018-06-05 17:12:06 +0000";
layers = (
{
anchors = (
{
name = btm;
position = "{170, 0}";
},
{
name = top;
position = "{227, 975}";
}
);
layerId = "184835E3-72D9-430C-A639-2454AC4A0BE8";
paths = (
{
closed = 1;
nodes = (
"307 457 OFFCURVE",
"295 448 OFFCURVE",
"295 421 CURVE SMOOTH",
"295 388 OFFCURVE",
"319 357 OFFCURVE",
"365 357 CURVE SMOOTH",
"417 357 OFFCURVE",
"455 397 OFFCURVE",
"455 454 CURVE SMOOTH",
"455 505 OFFCURVE",
"429 540 OFFCURVE",
"363 540 CURVE SMOOTH",
"294 540 OFFCURVE",
"239 486 OFFCURVE",
"222 441 CURVE",
"202 359 LINE",
"249 439 OFFCURVE",
"289 446 OFFCURVE",
"339 450 CURVE",
"321 465 LINE {name = hr00;}"
);
},
{
closed = 1;
nodes = (
"236 453 LINE",
"236 525 OFFCURVE",
"223 540 OFFCURVE",
"192 540 CURVE SMOOTH",
"155 540 OFFCURVE",
"62 519 OFFCURVE",
"15 492 CURVE",
"15 447 LINE",
"66 447 OFFCURVE",
"81 433 OFFCURVE",
"81 398 CURVE SMOOTH",
"81 109 LINE SMOOTH",
"81 69 OFFCURVE",
"66 54 OFFCURVE",
"27 54 CURVE",
"27 31 OFFCURVE",
"35 15 OFFCURVE",
"50 0 CURVE",
"319 0 LINE",
"334 15 OFFCURVE",
"342 31 OFFCURVE",
"342 54 CURVE",
"262 54 OFFCURVE",
"245 72 OFFCURVE",
"245 118 CURVE SMOOTH",
"245 437 LINE"
);
}
);
width = 455;
}
);
leftKerningGroup = n;
leftMetricsKey = n;
rightKerningGroup = r;
unicode = 0072;
},
{
color = 4;
glyphname = s;
lastChange = "2018-06-05 16:39:25 +0000";
layers = (
{
anchors = (
{
name = btm;
position = "{213, -5}";
},
{
name = top;
position = "{213, 970}";
}
);
layerId = "184835E3-72D9-430C-A639-2454AC4A0BE8";
paths = (
{
closed = 1;
nodes = (
"330 -15 OFFCURVE",
"439 31 OFFCURVE",
"439 143 CURVE SMOOTH",
"439 246 OFFCURVE",
"356 286 OFFCURVE",
"283 324 CURVE SMOOTH",
"229 352 OFFCURVE",
"178 377 OFFCURVE",
"178 423 CURVE SMOOTH",
"178 452 OFFCURVE",
"202 479 OFFCURVE",
"246 479 CURVE SMOOTH",
"272 479 OFFCURVE",
"291 472 OFFCURVE",
"306 460 CURVE",
"296 448 OFFCURVE",
"291 427 OFFCURVE",
"291 411 CURVE SMOOTH",
"291 377 OFFCURVE",
"320 355 OFFCURVE",
"354 355 CURVE SMOOTH",
"391 355 OFFCURVE",
"421 382 OFFCURVE",
"421 423 CURVE SMOOTH",
"421 480 OFFCURVE",
"369 543 OFFCURVE",
"229 543 CURVE SMOOTH",
"94 543 OFFCURVE",
"18 476 OFFCURVE",
"18 388 CURVE SMOOTH",
"18 283 OFFCURVE",
"103 243 OFFCURVE",
"177 203 CURVE SMOOTH",
"231 174 OFFCURVE",
"282 148 OFFCURVE",
"282 108 CURVE SMOOTH",
"282 82 OFFCURVE",
"255 58 OFFCURVE",
"209 58 CURVE SMOOTH",
"179 58 OFFCURVE",
"144 68 OFFCURVE",
"132 80 CURVE",
"143 94 OFFCURVE",
"148 105 OFFCURVE",
"148 123 CURVE SMOOTH",
"148 162 OFFCURVE",
"118 188 OFFCURVE",
"81 188 CURVE SMOOTH",
"40 188 OFFCURVE",
"10 157 OFFCURVE",
"10 110 CURVE SMOOTH",
"10 33 OFFCURVE",
"123 -15 OFFCURVE",
"218 -15 CURVE SMOOTH {name = hr00;}"
);
}
);
width = 449;
}
);
leftKerningGroup = s;
rightKerningGroup = s;
unicode = 0073;
},
{
color = 4;
glyphname = germandbls;
lastChange = "2018-06-05 16:39:47 +0000";
layers = (
{
anchors = (
{
name = btm;
position = "{322, -5}";
},
{
name = top;
position = "{322, 970}";
}
);
layerId = "184835E3-72D9-430C-A639-2454AC4A0BE8";
paths = (
{
closed = 1;
nodes = (
"97 539 LINE",
"75 522 OFFCURVE",
"52 506 OFFCURVE",
"15 496 CURVE",
"15 434 LINE",
"76 434 LINE",
"76 108 LINE SMOOTH",
"76 68 OFFCURVE",
"60 53 OFFCURVE",
"21 53 CURVE",
"21 31 OFFCURVE",
"29 10 OFFCURVE",
"45 -5 CURVE",
"238 -5 LINE",
"238 592 LINE SMOOTH",
"238 682 OFFCURVE",
"292 711 OFFCURVE",
"330 711 CURVE SMOOTH",
"372 711 OFFCURVE",
"402 692 OFFCURVE",
"402 645 CURVE SMOOTH {name = hr02;}",
"402 546 OFFCURVE",
"323 523 OFFCURVE",
"323 426 CURVE SMOOTH",
"323 251 OFFCURVE",
"489 230 OFFCURVE",
"489 103 CURVE SMOOTH {name = hr03;}",
"489 72 OFFCURVE",
"473 54 OFFCURVE",
"439 54 CURVE SMOOTH",
"417 54 OFFCURVE",
"402 62 OFFCURVE",
"392 73 CURVE",
"402 84 OFFCURVE",
"409 101 OFFCURVE",
"409 119 CURVE SMOOTH",
"409 155 OFFCURVE",
"385 181 OFFCURVE",
"353 181 CURVE SMOOTH",
"310 181 OFFCURVE",
"283 146 OFFCURVE",
"283 103 CURVE SMOOTH",
"283 42 OFFCURVE",
"336 -15 OFFCURVE",
"442 -15 CURVE SMOOTH",
"538 -15 OFFCURVE",
"634 26 OFFCURVE",
"634 151 CURVE SMOOTH",
"634 337 OFFCURVE",
"481 342 OFFCURVE",
"481 469 CURVE SMOOTH",
"481 526 OFFCURVE",
"543 553 OFFCURVE",
"540 636 CURVE SMOOTH {name = hr04;}",
"537 738 OFFCURVE",
"466 782 OFFCURVE",
"350 782 CURVE SMOOTH",
"205 782 OFFCURVE",
"86 679 OFFCURVE",
"86 489 CURVE",
"114 495 LINE {name = hr01;}"
);
}
);
width = 652;
}
);
leftKerningGroup = h;
leftMetricsKey = n;
rightKerningGroup = germandbls;
unicode = 00DF;
},
{
color = 4;
glyphname = t;
lastChange = "2018-06-05 17:13:11 +0000";
layers = (
{
anchors = (
{
name = btm;
position = "{206, -2}";
},
{
name = car;
position = "{328, 529}";
},
{
name = top;
position = "{170, 1032}";
}
);
background = {
paths = (
{
closed = 1;
nodes = (
"517 978 LINE",
"552 1031 OFFCURVE",
"555 1111 OFFCURVE",
"555 1177 CURVE",
"350 1177 LINE SMOOTH",
"302 1177 OFFCURVE",
"274 1281 OFFCURVE",
"274 1416 CURVE SMOOTH",
"274 1541 OFFCURVE",
"335 1612 OFFCURVE",
"410 1612 CURVE SMOOTH {name = hr02;}",
"433 1612 OFFCURVE",
"442 1601 OFFCURVE",
"445 1589 CURVE",
"411 1566 OFFCURVE",
"398 1518 OFFCURVE",
"398 1478 CURVE SMOOTH",
"398 1385 OFFCURVE",
"484 1326 OFFCURVE",
"573 1326 CURVE SMOOTH",
"681 1326 OFFCURVE",
"755 1417 OFFCURVE",
"755 1536 CURVE SMOOTH",
"755 1656 OFFCURVE",
"637 1805 OFFCURVE",
"403 1805 CURVE SMOOTH",
"135 1805 OFFCURVE",
"-47 1655 OFFCURVE",
"-47 1345 CURVE SMOOTH",
"-47 1268 OFFCURVE",
"-25 1212 OFFCURVE",
"-25 1103 CURVE",
"0 1200 LINE",
"-48 1162 OFFCURVE",
"-77 1136 OFFCURVE",
"-161 1115 CURVE",
"-161 978 LINE {name = hr03;}",
"89 978 LINE",
"-25 1092 LINE",
"-25 242 LINE SMOOTH",
"-25 154 OFFCURVE",
"-59 120 OFFCURVE",
"-147 120 CURVE",
"-147 71 OFFCURVE",
"-129 34 OFFCURVE",
"-95 0 CURVE",
"493 0 LINE",
"526 34 OFFCURVE",
"545 71 OFFCURVE",
"545 120 CURVE",
"367 120 OFFCURVE",
"336 162 OFFCURVE",
"336 262 CURVE SMOOTH",
"336 1092 LINE {name = hr01;}",
"222 978 LINE {name = hr01;}"
);
}
);
};
layerId = "184835E3-72D9-430C-A639-2454AC4A0BE8";
paths = (
{
closed = 1;
nodes = (
"349 464 OFFCURVE",
"350 497 OFFCURVE",
"350 529 CURVE",
"231 529 LINE",
"232 657 LINE SMOOTH",
"232 689 OFFCURVE",
"179 710 OFFCURVE",
"130 700 CURVE",
"130 599 OFFCURVE",
"107 510 OFFCURVE",
"15 501 CURVE",
"15 440 LINE",
"76 440 LINE",
"76 166 LINE SMOOTH",
"76 33 OFFCURVE",
"149 -7 OFFCURVE",
"233 -7 CURVE SMOOTH",
"344 -7 OFFCURVE",
"379 40 OFFCURVE",
"379 84 CURVE SMOOTH",
"379 96 OFFCURVE",
"375 125 OFFCURVE",
"360 137 CURVE",
"350 125 OFFCURVE",
"323 106 OFFCURVE",
"282 106 CURVE SMOOTH",
"255 106 OFFCURVE",
"233 116 OFFCURVE",
"233 159 CURVE SMOOTH",
"233 440 LINE",
"334 440 LINE {name = hr00;}"
);
}
);
width = 384;
}
);
leftKerningGroup = t;
rightKerningGroup = t;
unicode = 0074;
userData = {
com.typemytype.robofont.guides = (
{
angle = 0;
isGlobal = 0;
magnetic = 5;
x = 0;
y = -31;
}
);
};
},
{
color = 4;
glyphname = tbar;
lastChange = "2018-06-05 16:10:04 +0000";
layers = (
{
components = (
{
name = t;
transform = "{1, 0, 0, 1, 5, 0}";
}
);
guideLines = (
{
angle = 270;
position = "{355, 389}";
}
);
layerId = "184835E3-72D9-430C-A639-2454AC4A0BE8";
paths = (
{
closed = 1;
nodes = (
"17 335 OFFCURVE",
"15 317 OFFCURVE",
"15 298 CURVE SMOOTH",
"15 282 OFFCURVE",
"17 265 OFFCURVE",
"22 254 CURVE",
"341 254 LINE",
"353 273 OFFCURVE",
"355 318 OFFCURVE",
"355 344 CURVE",
"22 344 LINE {name = hr00;}"
);
}
);
width = 403;
}
);
leftMetricsKey = t;
rightMetricsKey = t;
unicode = 0167;
},
{
color = 4;
glyphname = u;
lastChange = "2018-06-05 16:40:17 +0000";
layers = (
{
anchors = (
{
name = btm;
position = "{282, -3}";
},
{
name = top;
position = "{282, 972}";
}
);
layerId = "184835E3-72D9-430C-A639-2454AC4A0BE8";
paths = (
{
closed = 1;
nodes = (
"341 26 OFFCURVE",
"381 -10 OFFCURVE",
"435 -10 CURVE SMOOTH",
"478 -10 OFFCURVE",
"530 3 OFFCURVE",
"552 28 CURVE",
"552 56 LINE",
"521 59 OFFCURVE",
"504 82 OFFCURVE",
"504 114 CURVE SMOOTH",
"504 482 LINE SMOOTH",
"504 529 OFFCURVE",
"489 539 OFFCURVE",
"437 539 CURVE SMOOTH",
"362 539 OFFCURVE",
"303 513 OFFCURVE",
"285 499 CURVE",
"285 455 LINE",
"320 455 OFFCURVE",
"341 447 OFFCURVE",
"341 424 CURVE",
"341 91 LINE SMOOTH {name = hr01;}"
);
},
{
closed = 1;
nodes = (
"61 52 OFFCURVE",
"115 -10 OFFCURVE",
"209 -10 CURVE SMOOTH",
"270 -10 OFFCURVE",
"320 17 OFFCURVE",
"352 69 CURVE",
"350 141 LINE",
"334 112 OFFCURVE",
"302 84 OFFCURVE",
"268 84 CURVE SMOOTH {name = hr02;}",
"235 84 OFFCURVE",
"224 106 OFFCURVE",
"224 146 CURVE SMOOTH",
"224 482 LINE SMOOTH",
"224 529 OFFCURVE",
"212 539 OFFCURVE",
"160 539 CURVE SMOOTH",
"90 539 OFFCURVE",
"29 513 OFFCURVE",
"12 499 CURVE",
"12 455 LINE",
"43 455 OFFCURVE",
"61 447 OFFCURVE",
"61 424 CURVE",
"61 149 LINE"
);
}
);
width = 574;
}
);
leftKerningGroup = u;
rightKerningGroup = u;
rightMetricsKey = d;
unicode = 0075;
},
{
color = 4;
glyphname = v;
lastChange = "2018-06-05 16:40:25 +0000";
layers = (
{
anchors = (
{
name = btm;
position = "{280, -2}";
},
{
name = top;
position = "{280, 973}";
}
);
layerId = "184835E3-72D9-430C-A639-2454AC4A0BE8";
paths = (
{
closed = 1;
nodes = (
"216 417 OFFCURVE",
"215 425 OFFCURVE",
"215 431 CURVE SMOOTH",
"215 462 OFFCURVE",
"235 476 OFFCURVE",
"262 476 CURVE",
"262 497 OFFCURVE",
"254 521 OFFCURVE",
"239 536 CURVE",
"11 536 LINE",
"-4 521 OFFCURVE",
"-10 497 OFFCURVE",
"-10 476 CURVE",
"25 476 OFFCURVE",
"34 460 OFFCURVE",
"48 424 CURVE SMOOTH",
"209 -7 LINE",
"307 -7 LINE SMOOTH",
"367 -7 OFFCURVE",
"385 26 OFFCURVE",
"406 100 CURVE",
"511 424 LINE SMOOTH",
"523 460 OFFCURVE",
"536 476 OFFCURVE",
"571 476 CURVE",
"571 497 OFFCURVE",
"566 521 OFFCURVE",
"551 536 CURVE",
"362 536 LINE",
"347 521 OFFCURVE",
"343 497 OFFCURVE",
"343 476 CURVE",
"375 476 OFFCURVE",
"395 462 OFFCURVE",
"395 434 CURVE SMOOTH",
"395 427 OFFCURVE",
"393 418 OFFCURVE",
"391 410 CURVE SMOOTH",
"354 269 LINE",
"309 94 LINE",
"262 269 LINE",
"219 410 LINE SMOOTH {name = hr00;}"
);
}
);
width = 561;
}
);
leftKerningGroup = v;
rightKerningGroup = v;
unicode = 0076;
},
{
color = 4;
glyphname = w;
lastChange = "2018-06-05 16:53:41 +0000";
layers = (
{
anchors = (
{
name = btm;
position = "{434, -2}";
},
{
name = top;
position = "{434, 973}";
}
);
layerId = "184835E3-72D9-430C-A639-2454AC4A0BE8";
paths = (
{
closed = 1;
nodes = (
"296 -7 LINE SMOOTH",
"359 -7 OFFCURVE",
"371 24 OFFCURVE",
"391 100 CURVE SMOOTH",
"500 519 LINE",
"402 519 LINE",
"282 60 LINE",
"305 61 LINE",
"209 416 LINE SMOOTH",
"206 427 OFFCURVE",
"206 435 OFFCURVE",
"206 443 CURVE SMOOTH",
"206 467 OFFCURVE",
"219 476 OFFCURVE",
"245 476 CURVE",
"245 497 OFFCURVE",
"241 521 OFFCURVE",
"225 536 CURVE",
"4 536 LINE",
"-11 521 OFFCURVE",
"-15 497 OFFCURVE",
"-15 476 CURVE",
"22 476 OFFCURVE",
"40 466 OFFCURVE",
"52 430 CURVE SMOOTH",
"193 -7 LINE {name = hr00;}"
);
},
{
closed = 1;
nodes = (
"535 426 OFFCURVE",
"534 435 OFFCURVE",
"534 442 CURVE SMOOTH",
"534 467 OFFCURVE",
"547 476 OFFCURVE",
"574 476 CURVE",
"574 497 OFFCURVE",
"570 521 OFFCURVE",
"555 536 CURVE",
"339 536 LINE",
"322 521 OFFCURVE",
"319 497 OFFCURVE",
"319 476 CURVE",
"355 476 OFFCURVE",
"375 467 OFFCURVE",
"386 430 CURVE SMOOTH",
"519 -7 LINE",
"618 -7 LINE SMOOTH",
"683 -7 OFFCURVE",
"697 26 OFFCURVE",
"718 102 CURVE SMOOTH",
"810 430 LINE SMOOTH",
"820 466 OFFCURVE",
"840 476 OFFCURVE",
"877 476 CURVE",
"877 497 OFFCURVE",
"873 521 OFFCURVE",
"857 536 CURVE",
"676 536 LINE",
"661 521 OFFCURVE",
"657 497 OFFCURVE",
"657 476 CURVE",
"683 476 OFFCURVE",
"697 467 OFFCURVE",
"697 443 CURVE SMOOTH",
"697 435 OFFCURVE",
"696 427 OFFCURVE",
"693 416 CURVE SMOOTH",
"610 60 LINE",
"631 60 LINE",
"538 416 LINE SMOOTH"
);
}
);
width = 862;
}
);
leftKerningGroup = w;
rightKerningGroup = w;
unicode = 0077;
},
{
color = 4;
glyphname = x;
lastChange = "2018-06-05 16:40:25 +0000";
layers = (
{
anchors = (
{
name = btm;
position = "{325, 6}";
},
{
name = top;
position = "{325, 981}";
}
);
layerId = "184835E3-72D9-430C-A639-2454AC4A0BE8";
paths = (
{
closed = 1;
nodes = (
"288 443 OFFCURVE",
"283 455 OFFCURVE",
"283 464 CURVE SMOOTH",
"283 478 OFFCURVE",
"295 485 OFFCURVE",
"316 485 CURVE",
"316 507 OFFCURVE",
"313 531 OFFCURVE",
"296 545 CURVE",
"65 545 LINE",
"48 531 OFFCURVE",
"44 507 OFFCURVE",
"44 485 CURVE",
"81 485 OFFCURVE",
"104 456 OFFCURVE",
"126 424 CURVE",
"234 271 LINE",
"264 241 LINE",
"340 135 LINE",
"348 123 OFFCURVE",
"351 113 OFFCURVE",
"351 103 CURVE SMOOTH",
"351 87 OFFCURVE",
"338 75 OFFCURVE",
"311 75 CURVE",
"311 53 OFFCURVE",
"316 32 OFFCURVE",
"332 17 CURVE",
"574 17 LINE",
"589 32 OFFCURVE",
"599 53 OFFCURVE",
"599 75 CURVE",
"570 75 OFFCURVE",
"537 99 OFFCURVE",
"510 139 CURVE",
"379 316 LINE",
"350 347 LINE",
"297 428 LINE {name = hr00;}"
);
},
{
closed = 1;
nodes = (
"529 471 OFFCURVE",
"553 485 OFFCURVE",
"587 485 CURVE",
"587 507 OFFCURVE",
"583 531 OFFCURVE",
"566 545 CURVE",
"393 545 LINE",
"377 531 OFFCURVE",
"373 507 OFFCURVE",
"373 485 CURVE",
"387 485 OFFCURVE",
"404 477 OFFCURVE",
"404 458 CURVE SMOOTH",
"404 449 OFFCURVE",
"400 438 OFFCURVE",
"390 423 CURVE",
"310 315 LINE",
"350 256 LINE",
"500 434 LINE"
);
},
{
closed = 1;
nodes = (
"101 103 OFFCURVE",
"67 79 OFFCURVE",
"38 75 CURVE",
"38 53 OFFCURVE",
"48 32 OFFCURVE",
"63 17 CURVE",
"245 17 LINE",
"260 32 OFFCURVE",
"265 53 OFFCURVE",
"265 75 CURVE",
"236 75 OFFCURVE",
"219 90 OFFCURVE",
"219 111 CURVE SMOOTH",
"219 120 OFFCURVE",
"223 129 OFFCURVE",
"230 140 CURVE SMOOTH",
"345 300 LINE",
"285 337 LINE",
"120 129 LINE"
);
}
);
width = 637;
}
);
leftKerningGroup = x;
rightKerningGroup = x;
unicode = 0078;
},
{
color = 4;
glyphname = y;
lastChange = "2018-06-05 16:40:25 +0000";
layers = (
{
anchors = (
{
name = btm;
position = "{282, -104}";
},
{
name = top;
position = "{282, 871}";
}
);
layerId = "184835E3-72D9-430C-A639-2454AC4A0BE8";
paths = (
{
closed = 1;
nodes = (
"226 412 OFFCURVE",
"225 424 OFFCURVE",
"225 433 CURVE SMOOTH",
"225 460 OFFCURVE",
"238 479 OFFCURVE",
"271 479 CURVE",
"271 502 OFFCURVE",
"262 524 OFFCURVE",
"247 540 CURVE",
"11 540 LINE",
"-4 524 OFFCURVE",
"-10 502 OFFCURVE",
"-10 479 CURVE",
"31 479 OFFCURVE",
"36 458 OFFCURVE",
"51 420 CURVE SMOOTH",
"205 37 LINE",
"351 37 LINE",
"230 400 LINE {name = hr00;}"
);
},
{
closed = 1;
nodes = (
"526 464 OFFCURVE",
"542 479 OFFCURVE",
"575 479 CURVE",
"575 502 OFFCURVE",
"570 524 OFFCURVE",
"555 540 CURVE",
"362 540 LINE",
"347 524 OFFCURVE",
"343 502 OFFCURVE",
"343 479 CURVE",
"376 479 OFFCURVE",
"392 465 OFFCURVE",
"392 437 CURVE SMOOTH",
"392 431 OFFCURVE",
"391 422 OFFCURVE",
"389 413 CURVE",
"310 65 LINE",
"292 55 LINE",
"265 -42 OFFCURVE",
"216 -66 OFFCURVE",
"173 -66 CURVE SMOOTH",
"138 -66 OFFCURVE",
"111 -55 OFFCURVE",
"93 -34 CURVE",
"69 -45 OFFCURVE",
"52 -72 OFFCURVE",
"52 -104 CURVE SMOOTH",
"52 -152 OFFCURVE",
"93 -192 OFFCURVE",
"176 -192 CURVE SMOOTH",
"276 -192 OFFCURVE",
"341 -126 OFFCURVE",
"400 63 CURVE",
"514 427 LINE"
);
}
);
width = 565;
}
);
leftKerningGroup = y;
rightKerningGroup = y;
unicode = 0079;
},
{
color = 4;
glyphname = z;
lastChange = "2018-06-05 14:32:50 +0000";
layers = (
{
anchors = (
{
name = btm;
position = "{304, 0}";
},
{
name = top;
position = "{304, 975}";
}
);
layerId = "184835E3-72D9-430C-A639-2454AC4A0BE8";
paths = (
{
closed = 1;
nodes = (
"187 68 LINE",
"204 32 LINE",
"281 131 LINE",
"534 488 LINE {name = hr02;}",
"504 529 LINE {name = hr03;}",
"79 529 LINE",
"80 464 OFFCURVE",
"79 398 OFFCURVE",
"96 350 CURVE",
"176 350 LINE",
"176 430 OFFCURVE",
"202 462 OFFCURVE",
"265 462 CURVE SMOOTH",
"390 462 LINE",
"373 497 LINE",
"303 409 LINE",
"47 38 LINE",
"75 0 LINE {name = hr01;}",
"499 0 LINE",
"523 47 OFFCURVE",
"525 109 OFFCURVE",
"525 161 CURVE SMOOTH",
"525 196 LINE",
"450 196 LINE",
"430 118 OFFCURVE",
"407 68 OFFCURVE",
"305 68 CURVE SMOOTH"
);
}
);
width = 578;
}
);
leftKerningGroup = z;
rightKerningGroup = z;
unicode = 007A;
},
{
color = 9;
glyphname = f_f;
lastChange = "2018-06-05 16:54:43 +0000";
layers = (
{
layerId = "184835E3-72D9-430C-A639-2454AC4A0BE8";
paths = (
{
closed = 1;
nodes = (
"462 440 LINE",
"462 109 LINE SMOOTH",
"462 70 OFFCURVE",
"447 54 OFFCURVE",
"407 54 CURVE",
"407 33 OFFCURVE",
"416 16 OFFCURVE",
"430 0 CURVE",
"704 0 LINE",
"718 16 OFFCURVE",
"728 33 OFFCURVE",
"728 54 CURVE",
"648 54 OFFCURVE",
"625 73 OFFCURVE",
"625 118 CURVE SMOOTH",
"625 440 LINE",
"728 440 LINE",
"744 463 OFFCURVE",
"745 500 OFFCURVE",
"745 530 CURVE",
"631 530 LINE SMOOTH",
"585 530 OFFCURVE",
"577 569 OFFCURVE",
"577 629 CURVE SMOOTH",
"577 686 OFFCURVE",
"609 722 OFFCURVE",
"636 722 CURVE SMOOTH",
"644 722 OFFCURVE",
"648 720 OFFCURVE",
"655 715 CURVE",
"640 705 OFFCURVE",
"634 683 OFFCURVE",
"634 665 CURVE SMOOTH",
"634 623 OFFCURVE",
"677 596 OFFCURVE",
"716 596 CURVE SMOOTH",
"765 596 OFFCURVE",
"798 637 OFFCURVE",
"798 691 CURVE SMOOTH",
"798 745 OFFCURVE",
"748 792 OFFCURVE",
"657 792 CURVE SMOOTH",
"538 792 OFFCURVE",
"451 709 OFFCURVE",
"451 582 CURVE SMOOTH",
"451 565 OFFCURVE",
"453 547 OFFCURVE",
"456 530 CURVE",
"271 530 LINE SMOOTH",
"225 530 OFFCURVE",
"217 569 OFFCURVE",
"217 629 CURVE SMOOTH",
"217 686 OFFCURVE",
"248 722 OFFCURVE",
"276 722 CURVE SMOOTH",
"284 722 OFFCURVE",
"288 720 OFFCURVE",
"295 715 CURVE",
"280 705 OFFCURVE",
"274 683 OFFCURVE",
"274 665 CURVE SMOOTH",
"274 623 OFFCURVE",
"316 596 OFFCURVE",
"356 596 CURVE SMOOTH",
"405 596 OFFCURVE",
"438 637 OFFCURVE",
"438 691 CURVE SMOOTH",
"438 745 OFFCURVE",
"388 792 OFFCURVE",
"297 792 CURVE SMOOTH",
"178 792 OFFCURVE",
"92 709 OFFCURVE",
"92 582 CURVE SMOOTH",
"92 564 OFFCURVE",
"92 545 OFFCURVE",
"96 527 CURVE",
"82 516 OFFCURVE",
"68 508 OFFCURVE",
"40 502 CURVE",
"40 440 LINE",
"102 440 LINE",
"102 109 LINE SMOOTH",
"102 70 OFFCURVE",
"86 54 OFFCURVE",
"47 54 CURVE",
"47 33 OFFCURVE",
"55 16 OFFCURVE",
"70 0 CURVE",
"343 0 LINE",
"359 16 OFFCURVE",
"367 33 OFFCURVE",
"367 54 CURVE",
"287 54 OFFCURVE",
"265 73 OFFCURVE",
"265 118 CURVE SMOOTH",
"265 440 LINE {name = hr00;}"
);
}
);
width = 726;
}
);
leftKerningGroup = f;
leftMetricsKey = f;
rightKerningGroup = f;
rightMetricsKey = f;
unicode = FB00;
},
{
glyphname = ordfeminine;
lastChange = "2018-06-03 05:48:24 +0000";
layers = (
{
layerId = "184835E3-72D9-430C-A639-2454AC4A0BE8";
paths = (
{
closed = 1;
nodes = (
"74 779 OFFCURVE",
"154 705 OFFCURVE",
"271 705 CURVE SMOOTH",
"337 705 OFFCURVE",
"383 728 OFFCURVE",
"416 759 CURVE",
"438 724 OFFCURVE",
"479 705 OFFCURVE",
"533 705 CURVE SMOOTH",
"583 705 OFFCURVE",
"638 720 OFFCURVE",
"661 749 CURVE",
"660 786 LINE",
"624 793 OFFCURVE",
"605 816 OFFCURVE",
"605 852 CURVE SMOOTH",
"605 1163 LINE SMOOTH",
"605 1283 OFFCURVE",
"527 1346 OFFCURVE",
"369 1346 CURVE SMOOTH",
"193 1346 OFFCURVE",
"114 1268 OFFCURVE",
"114 1193 CURVE SMOOTH",
"114 1139 OFFCURVE",
"155 1098 OFFCURVE",
"217 1098 CURVE SMOOTH",
"270 1098 OFFCURVE",
"311 1129 OFFCURVE",
"311 1176 CURVE SMOOTH",
"311 1203 OFFCURVE",
"297 1226 OFFCURVE",
"267 1239 CURVE",
"283 1252 OFFCURVE",
"306 1257 OFFCURVE",
"329 1257 CURVE SMOOTH",
"373 1257 OFFCURVE",
"401 1235 OFFCURVE",
"401 1176 CURVE SMOOTH",
"401 1024 LINE",
"372 1040 OFFCURVE",
"323 1049 OFFCURVE",
"279 1049 CURVE SMOOTH",
"152 1049 OFFCURVE",
"74 977 OFFCURVE",
"74 878 CURVE SMOOTH {name = hr00;}"
);
},
{
closed = 1;
nodes = (
"388 812 OFFCURVE",
"367 806 OFFCURVE",
"347 806 CURVE SMOOTH",
"307 806 OFFCURVE",
"278 832 OFFCURVE",
"278 878 CURVE SMOOTH",
"278 925 OFFCURVE",
"309 948 OFFCURVE",
"344 948 CURVE SMOOTH",
"366 948 OFFCURVE",
"387 938 OFFCURVE",
"401 929 CURVE",
"401 824 LINE"
);
}
);
width = 727;
}
);
leftKerningGroup = ordfeminine;
rightKerningGroup = ordfeminine;
unicode = 00AA;
},
{
glyphname = ordmasculine;
lastChange = "2018-06-03 05:48:24 +0000";
layers = (
{
layerId = "184835E3-72D9-430C-A639-2454AC4A0BE8";
paths = (
{
closed = 1;
nodes = (
"287 1219 OFFCURVE",
"315 1257 OFFCURVE",
"358 1257 CURVE SMOOTH",
"408 1257 OFFCURVE",
"439 1216 OFFCURVE",
"439 1005 CURVE SMOOTH",
"439 830 OFFCURVE",
"411 793 OFFCURVE",
"367 793 CURVE SMOOTH",
"318 793 OFFCURVE",
"287 836 OFFCURVE",
"287 1045 CURVE SMOOTH {name = hr00;}"
);
},
{
closed = 1;
nodes = (
"532 704 OFFCURVE",
"655 818 OFFCURVE",
"655 1033 CURVE SMOOTH",
"655 1237 OFFCURVE",
"538 1346 OFFCURVE",
"368 1346 CURVE SMOOTH",
"193 1346 OFFCURVE",
"70 1231 OFFCURVE",
"70 1015 CURVE SMOOTH",
"70 812 OFFCURVE",
"188 704 OFFCURVE",
"357 704 CURVE SMOOTH"
);
}
);
width = 725;
}
);
leftKerningGroup = ordmasculine;
rightKerningGroup = ordmasculine;
unicode = 00BA;
},
{
color = 9;
glyphname = Delta;
lastChange = "2018-06-05 03:00:37 +0000";
layers = (
{
layerId = "184835E3-72D9-430C-A639-2454AC4A0BE8";
paths = (
{
closed = 1;
nodes = (
"510 697 LINE",
"227 697 LINE",
"213 679 OFFCURVE",
"204 653 OFFCURVE",
"204 625 CURVE",
"248 625 OFFCURVE",
"285 620 OFFCURVE",
"315 609 CURVE",
"148 129 LINE SMOOTH",
"133 85 OFFCURVE",
"100 64 OFFCURVE",
"64 64 CURVE",
"64 40 OFFCURVE",
"72 16 OFFCURVE",
"87 0 CURVE",
"768 0 LINE",
"783 16 OFFCURVE",
"791 40 OFFCURVE",
"791 64 CURVE",
"757 64 OFFCURVE",
"721 85 OFFCURVE",
"706 129 CURVE SMOOTH"
);
},
{
closed = 1;
nodes = (
"332 79 LINE",
"293 79 OFFCURVE",
"269 79 OFFCURVE",
"269 115 CURVE SMOOTH",
"269 127 OFFCURVE",
"273 142 OFFCURVE",
"277 159 CURVE SMOOTH",
"390 552 LINE",
"399 539 OFFCURVE",
"406 523 OFFCURVE",
"412 506 CURVE SMOOTH",
"520 159 LINE SMOOTH",
"525 140 OFFCURVE",
"528 124 OFFCURVE",
"528 112 CURVE SMOOTH",
"528 78 OFFCURVE",
"509 79 OFFCURVE",
"474 79 CURVE",
"474 78 LINE",
"332 78 LINE"
);
}
);
width = 855;
}
);
leftKerningGroup = A;
rightKerningGroup = A;
unicode = 0394;
},
{
color = 9;
glyphname = Omega;
lastChange = "2018-06-05 03:00:37 +0000";
layers = (
{
layerId = "184835E3-72D9-430C-A639-2454AC4A0BE8";
paths = (
{
closed = 1;
nodes = (
"750 203 LINE",
"750 122 OFFCURVE",
"716 76 OFFCURVE",
"585 86 CURVE",
"585 109 OFFCURVE",
"767 220 OFFCURVE",
"767 399 CURVE SMOOTH",
"767 592 OFFCURVE",
"652 703 OFFCURVE",
"448 703 CURVE SMOOTH",
"244 703 OFFCURVE",
"129 592 OFFCURVE",
"129 399 CURVE SMOOTH",
"129 217 OFFCURVE",
"311 112 OFFCURVE",
"311 86 CURVE",
"147 86 OFFCURVE",
"146 122 OFFCURVE",
"146 203 CURVE",
"98 203 LINE",
"76 185 OFFCURVE",
"70 151 OFFCURVE",
"70 109 CURVE SMOOTH",
"70 53 OFFCURVE",
"92 0 OFFCURVE",
"176 0 CURVE SMOOTH {name = hr01;}",
"382 0 LINE",
"410 73 LINE",
"386 136 OFFCURVE",
"317 188 OFFCURVE",
"317 395 CURVE SMOOTH",
"317 559 OFFCURVE",
"357 629 OFFCURVE",
"450 629 CURVE SMOOTH",
"512 629 OFFCURVE",
"579 598 OFFCURVE",
"579 395 CURVE SMOOTH",
"579 188 OFFCURVE",
"510 136 OFFCURVE",
"486 73 CURVE",
"514 0 LINE",
"720 0 LINE SMOOTH {name = hr01;}",
"804 0 OFFCURVE",
"826 53 OFFCURVE",
"826 109 CURVE SMOOTH",
"826 151 OFFCURVE",
"820 185 OFFCURVE",
"798 203 CURVE"
);
}
);
width = 896;
}
);
leftKerningGroup = Omega;
rightKerningGroup = Omega;
unicode = 03A9;
},
{
color = 9;
glyphname = mu;
lastChange = "2018-06-05 03:00:37 +0000";
layers = (
{
layerId = "184835E3-72D9-430C-A639-2454AC4A0BE8";
paths = (
{
closed = 1;
nodes = (
"350 -181 OFFCURVE",
"407 -217 OFFCURVE",
"467 -217 CURVE SMOOTH",
"503 -217 OFFCURVE",
"548 -204 OFFCURVE",
"587 -150 CURVE",
"560 -117 LINE {name = hr02;}",
"551 -122 OFFCURVE",
"543 -124 OFFCURVE",
"537 -124 CURVE SMOOTH",
"522 -124 OFFCURVE",
"512 -112 OFFCURVE",
"512 -89 CURVE SMOOTH",
"512 298 LINE SMOOTH",
"512 329 OFFCURVE",
"471 344 OFFCURVE",
"430 344 CURVE SMOOTH",
"390 344 OFFCURVE",
"350 329 OFFCURVE",
"350 300 CURVE SMOOTH",
"350 -116 LINE SMOOTH {name = hr01;}"
);
},
{
closed = 1;
nodes = (
"147 -185 OFFCURVE",
"179 -217 OFFCURVE",
"231 -217 CURVE SMOOTH",
"276 -217 OFFCURVE",
"326 -192 OFFCURVE",
"361 -138 CURVE",
"359 -65 LINE",
"341 -96 OFFCURVE",
"311 -122 OFFCURVE",
"276 -122 CURVE SMOOTH",
"244 -122 OFFCURVE",
"219 -100 OFFCURVE",
"219 -61 CURVE SMOOTH",
"219 298 LINE SMOOTH",
"219 329 OFFCURVE",
"178 344 OFFCURVE",
"138 344 CURVE SMOOTH",
"97 344 OFFCURVE",
"57 329 OFFCURVE",
"57 300 CURVE SMOOTH",
"57 -50 LINE",
"54 -396 LINE",
"109 -396 LINE SMOOTH",
"149 -396 OFFCURVE",
"173 -373 OFFCURVE",
"173 -336 CURVE SMOOTH",
"173 -332 OFFCURVE",
"173 -329 OFFCURVE",
"173 -324 CURVE SMOOTH",
"145 -96 LINE",
"126 -159 LINE"
);
}
);
width = 636;
}
);
leftKerningGroup = uni03BC;
rightKerningGroup = uni03BC;
unicode = 03BC;
},
{
color = 9;
glyphname = pi;
lastChange = "2018-06-05 03:00:37 +0000";
layers = (
{
layerId = "184835E3-72D9-430C-A639-2454AC4A0BE8";
paths = (
{
closed = 1;
nodes = (
"389 460 LINE",
"409 21 LINE SMOOTH",
"410 -19 OFFCURVE",
"441 -22 OFFCURVE",
"498 -22 CURVE SMOOTH",
"541 -22 OFFCURVE",
"600 -10 OFFCURVE",
"621 11 CURVE",
"620 39 LINE",
"589 45 OFFCURVE",
"576 65 OFFCURVE",
"572 97 CURVE SMOOTH",
"530 460 LINE {name = hr00;}"
);
},
{
closed = 1;
nodes = (
"272 -8 OFFCURVE",
"277 52 OFFCURVE",
"278 100 CURVE SMOOTH",
"288 466 LINE",
"138 466 LINE",
"114 101 LINE SMOOTH",
"111 61 OFFCURVE",
"98 46 OFFCURVE",
"59 46 CURVE",
"59 24 OFFCURVE",
"67 7 OFFCURVE",
"82 -8 CURVE",
"236 -8 LINE"
);
},
{
closed = 1;
nodes = (
"58 394 LINE",
"633 394 LINE",
"633 532 LINE",
"58 532 LINE"
);
}
);
width = 688;
}
);
leftKerningGroup = pi;
rightKerningGroup = pi;
unicode = 03C0;
},
{
color = 9;
glyphname = zero;
lastChange = "2018-06-05 03:00:37 +0000";
layers = (
{
layerId = "184835E3-72D9-430C-A639-2454AC4A0BE8";
paths = (
{
closed = 1;
nodes = (
"514 -11 OFFCURVE",
"629 81 OFFCURVE",
"629 338 CURVE SMOOTH",
"629 594 OFFCURVE",
"517 700 OFFCURVE",
"343 700 CURVE SMOOTH",
"171 700 OFFCURVE",
"56 596 OFFCURVE",
"56 339 CURVE SMOOTH",
"56 84 OFFCURVE",
"168 -11 OFFCURVE",
"341 -11 CURVE SMOOTH"
);
},
{
closed = 1;
nodes = (
"284 59 OFFCURVE",
"237 100 OFFCURVE",
"237 337 CURVE SMOOTH",
"237 584 OFFCURVE",
"285 630 OFFCURVE",
"343 630 CURVE SMOOTH",
"401 630 OFFCURVE",
"447 584 OFFCURVE",
"447 340 CURVE SMOOTH",
"447 100 OFFCURVE",
"400 59 OFFCURVE",
"341 59 CURVE SMOOTH {name = hr00;}"
);
}
);
width = 685;
}
);
leftKerningGroup = zero;
rightKerningGroup = zero;
unicode = 0030;
userData = {
com.typemytype.robofont.guides = (
{
angle = 0;
isGlobal = 0;
magnetic = 5;
x = 0;
y = -27;
}
);
};
},
{
color = 9;
glyphname = one;
lastChange = "2018-06-05 03:00:37 +0000";
layers = (
{
layerId = "184835E3-72D9-430C-A639-2454AC4A0BE8";
paths = (
{
closed = 1;
nodes = (
"338 679 OFFCURVE",
"323 710 OFFCURVE",
"279 710 CURVE SMOOTH",
"261 710 OFFCURVE",
"239 705 OFFCURVE",
"194 679 CURVE SMOOTH",
"38 588 LINE",
"65 538 LINE",
"83 546 OFFCURVE",
"109 551 OFFCURVE",
"128 551 CURVE SMOOTH",
"158 551 OFFCURVE",
"173 540 OFFCURVE",
"173 519 CURVE SMOOTH",
"173 155 LINE SMOOTH",
"173 85 OFFCURVE",
"128 55 OFFCURVE",
"63 55 CURVE",
"63 35 OFFCURVE",
"72 14 OFFCURVE",
"87 0 CURVE",
"419 0 LINE",
"434 14 OFFCURVE",
"442 35 OFFCURVE",
"442 55 CURVE",
"373 55 OFFCURVE",
"338 84 OFFCURVE",
"338 155 CURVE SMOOTH",
"338 656 LINE SMOOTH {name = hr00;}"
);
}
);
width = 480;
}
);
leftKerningGroup = one;
rightKerningGroup = one;
unicode = 0031;
},
{
color = 9;
glyphname = two;
lastChange = "2018-06-05 03:00:37 +0000";
layers = (
{
layerId = "184835E3-72D9-430C-A639-2454AC4A0BE8";
paths = (
{
closed = 1;
nodes = (
"140 49 LINE",
"169 251 OFFCURVE",
"546 276 OFFCURVE",
"546 527 CURVE SMOOTH",
"546 663 OFFCURVE",
"436 728 OFFCURVE",
"299 728 CURVE SMOOTH",
"147 728 OFFCURVE",
"51 647 OFFCURVE",
"51 556 CURVE SMOOTH",
"51 494 OFFCURVE",
"94 459 OFFCURVE",
"142 459 CURVE SMOOTH",
"188 459 OFFCURVE",
"232 490 OFFCURVE",
"232 537 CURVE SMOOTH",
"232 568 OFFCURVE",
"210 601 OFFCURVE",
"177 611 CURVE",
"199 641 OFFCURVE",
"229 658 OFFCURVE",
"268 658 CURVE SMOOTH",
"324 658 OFFCURVE",
"368 624 OFFCURVE",
"368 544 CURVE SMOOTH",
"368 346 OFFCURVE",
"95 265 OFFCURVE",
"51 30 CURVE",
"83 5 LINE {name = hr01;}"
);
},
{
closed = 1;
nodes = (
"120 20 OFFCURVE",
"164 26 OFFCURVE",
"207 26 CURVE SMOOTH",
"286 26 OFFCURVE",
"330 6 OFFCURVE",
"400 6 CURVE SMOOTH {name = hr02;}",
"533 6 OFFCURVE",
"572 82 OFFCURVE",
"572 145 CURVE SMOOTH",
"572 184 OFFCURVE",
"557 221 OFFCURVE",
"536 240 CURVE",
"513 240 LINE",
"498 186 OFFCURVE",
"442 155 OFFCURVE",
"378 155 CURVE SMOOTH {name = hr03;}",
"310 155 LINE SMOOTH",
"253 155 OFFCURVE",
"202 142 OFFCURVE",
"148 114 CURVE",
"84 5 LINE"
);
}
);
width = 623;
}
);
leftKerningGroup = two;
rightKerningGroup = two;
unicode = 0032;
},
{
color = 9;
glyphname = three;
lastChange = "2018-06-05 03:00:37 +0000";
layers = (
{
layerId = "184835E3-72D9-430C-A639-2454AC4A0BE8";
paths = (
{
closed = 1;
nodes = (
"539 667 OFFCURVE",
"439 726 OFFCURVE",
"301 726 CURVE SMOOTH",
"172 726 OFFCURVE",
"67 673 OFFCURVE",
"67 582 CURVE SMOOTH",
"67 535 OFFCURVE",
"95 502 OFFCURVE",
"145 502 CURVE SMOOTH",
"194 502 OFFCURVE",
"219 535 OFFCURVE",
"219 564 CURVE SMOOTH",
"219 590 OFFCURVE",
"200 612 OFFCURVE",
"183 619 CURVE",
"203 644 OFFCURVE",
"233 656 OFFCURVE",
"265 656 CURVE SMOOTH",
"328 656 OFFCURVE",
"362 615 OFFCURVE",
"362 549 CURVE SMOOTH",
"362 488 OFFCURVE",
"332 416 OFFCURVE",
"206 383 CURVE",
"339 372 LINE",
"472 407 OFFCURVE",
"539 464 OFFCURVE",
"539 566 CURVE SMOOTH {name = hr00;}"
);
},
{
closed = 1;
nodes = (
"589 314 OFFCURVE",
"501 388 OFFCURVE",
"375 396 CURVE",
"206 383 LINE",
"225 332 LINE",
"266 332 LINE SMOOTH",
"353 332 OFFCURVE",
"407 273 OFFCURVE",
"407 204 CURVE SMOOTH",
"407 135 OFFCURVE",
"353 90 OFFCURVE",
"275 90 CURVE SMOOTH",
"236 90 OFFCURVE",
"196 102 OFFCURVE",
"180 116 CURVE",
"200 133 OFFCURVE",
"207 152 OFFCURVE",
"207 170 CURVE SMOOTH",
"207 206 OFFCURVE",
"178 234 OFFCURVE",
"133 234 CURVE SMOOTH",
"88 234 OFFCURVE",
"53 207 OFFCURVE",
"53 152 CURVE SMOOTH",
"53 58 OFFCURVE",
"154 1 OFFCURVE",
"293 1 CURVE SMOOTH",
"465 1 OFFCURVE",
"589 87 OFFCURVE",
"589 210 CURVE SMOOTH"
);
}
);
width = 640;
}
);
leftKerningGroup = three;
rightKerningGroup = three;
unicode = 0033;
},
{
color = 9;
glyphname = four;
lastChange = "2018-06-05 03:00:37 +0000";
layers = (
{
layerId = "184835E3-72D9-430C-A639-2454AC4A0BE8";
paths = (
{
closed = 1;
nodes = (
"621 301 OFFCURVE",
"584 274 OFFCURVE",
"531 274 CURVE SMOOTH",
"200 274 LINE",
"424 641 LINE",
"480 710 LINE",
"382 710 LINE",
"60 240 LINE",
"86 192 LINE",
"506 192 LINE SMOOTH",
"656 192 OFFCURVE",
"702 231 OFFCURVE",
"702 287 CURVE SMOOTH",
"702 316 OFFCURVE",
"684 341 OFFCURVE",
"662 348 CURVE",
"639 348 LINE {name = hr00;}"
);
},
{
closed = 1;
nodes = (
"366 72 OFFCURVE",
"320 59 OFFCURVE",
"257 59 CURVE",
"257 39 OFFCURVE",
"264 14 OFFCURVE",
"279 0 CURVE",
"611 0 LINE",
"626 14 OFFCURVE",
"635 39 OFFCURVE",
"635 59 CURVE",
"566 59 OFFCURVE",
"531 72 OFFCURVE",
"531 113 CURVE SMOOTH",
"531 710 LINE",
"480 710 LINE",
"366 633 LINE",
"366 114 LINE SMOOTH"
);
}
);
width = 761;
}
);
leftKerningGroup = four;
rightKerningGroup = four;
unicode = 0034;
},
{
color = 9;
glyphname = five;
lastChange = "2018-06-05 03:00:37 +0000";
layers = (
{
layerId = "184835E3-72D9-430C-A639-2454AC4A0BE8";
paths = (
{
closed = 1;
nodes = (
"200 87 OFFCURVE",
"217 109 OFFCURVE",
"217 139 CURVE SMOOTH",
"217 182 OFFCURVE",
"183 213 OFFCURVE",
"137 213 CURVE SMOOTH",
"90 213 OFFCURVE",
"51 180 OFFCURVE",
"51 124 CURVE SMOOTH",
"51 40 OFFCURVE",
"144 -20 OFFCURVE",
"285 -20 CURVE SMOOTH",
"473 -20 OFFCURVE",
"574 87 OFFCURVE",
"574 209 CURVE SMOOTH",
"574 332 OFFCURVE",
"475 415 OFFCURVE",
"329 415 CURVE SMOOTH",
"259 415 OFFCURVE",
"210 396 OFFCURVE",
"175 377 CURVE",
"198 342 LINE",
"229 633 LINE",
"112 572 LINE",
"113 571 OFFCURVE",
"115 570 OFFCURVE",
"118 570 CURVE SMOOTH",
"138 570 OFFCURVE",
"199 597 OFFCURVE",
"211 597 CURVE SMOOTH",
"294 597 OFFCURVE",
"314 535 OFFCURVE",
"409 535 CURVE SMOOTH",
"492 535 OFFCURVE",
"541 583 OFFCURVE",
"541 644 CURVE SMOOTH",
"541 675 OFFCURVE",
"530 703 OFFCURVE",
"512 716 CURVE",
"489 716 LINE",
"457 695 OFFCURVE",
"409 685 OFFCURVE",
"335 685 CURVE SMOOTH",
"107 685 LINE",
"93 349 LINE",
"132 304 LINE",
"162 318 OFFCURVE",
"208 326 OFFCURVE",
"245 326 CURVE SMOOTH",
"328 326 OFFCURVE",
"391 282 OFFCURVE",
"391 196 CURVE SMOOTH",
"391 120 OFFCURVE",
"340 64 OFFCURVE",
"249 64 CURVE SMOOTH",
"209 64 OFFCURVE",
"175 75 OFFCURVE",
"165 84 CURVE",
"153 67 LINE {name = hr00;}"
);
}
);
width = 624;
}
);
leftKerningGroup = five;
rightKerningGroup = five;
unicode = 0035;
},
{
color = 9;
glyphname = six;
lastChange = "2018-06-05 03:00:37 +0000";
layers = (
{
layerId = "184835E3-72D9-430C-A639-2454AC4A0BE8";
paths = (
{
closed = 1;
nodes = (
"318 427 OFFCURVE",
"266 408 OFFCURVE",
"231 375 CURVE",
"230 378 OFFCURVE",
"230 382 OFFCURVE",
"230 386 CURVE SMOOTH",
"230 569 OFFCURVE",
"293 635 OFFCURVE",
"366 635 CURVE SMOOTH {name = hr00;}",
"398 635 OFFCURVE",
"426 623 OFFCURVE",
"443 603 CURVE",
"420 591 OFFCURVE",
"406 566 OFFCURVE",
"406 541 CURVE SMOOTH",
"406 499 OFFCURVE",
"441 467 OFFCURVE",
"489 467 CURVE SMOOTH",
"541 467 OFFCURVE",
"572 506 OFFCURVE",
"572 557 CURVE SMOOTH",
"572 646 OFFCURVE",
"478 705 OFFCURVE",
"361 705 CURVE SMOOTH",
"193 705 OFFCURVE",
"53 586 OFFCURVE",
"53 330 CURVE SMOOTH",
"53 92 OFFCURVE",
"168 -20 OFFCURVE",
"333 -20 CURVE SMOOTH",
"495 -20 OFFCURVE",
"597 89 OFFCURVE",
"597 221 CURVE SMOOTH",
"597 348 OFFCURVE",
"503 427 OFFCURVE",
"379 427 CURVE SMOOTH"
);
},
{
closed = 1;
nodes = (
"281 55 OFFCURVE",
"229 105 OFFCURVE",
"229 252 CURVE SMOOTH",
"229 265 OFFCURVE",
"229 279 OFFCURVE",
"230 293 CURVE",
"248 328 OFFCURVE",
"284 345 OFFCURVE",
"327 345 CURVE SMOOTH",
"385 345 OFFCURVE",
"428 312 OFFCURVE",
"428 206 CURVE SMOOTH",
"428 100 OFFCURVE",
"387 55 OFFCURVE",
"336 55 CURVE SMOOTH"
);
}
);
width = 650;
}
);
leftKerningGroup = six;
rightKerningGroup = six;
unicode = 0036;
},
{
color = 9;
glyphname = seven;
lastChange = "2018-06-05 03:00:37 +0000";
layers = (
{
layerId = "184835E3-72D9-430C-A639-2454AC4A0BE8";
paths = (
{
closed = 1;
nodes = (
"539 684 OFFCURVE",
"490 674 OFFCURVE",
"444 674 CURVE SMOOTH",
"356 674 OFFCURVE",
"294 711 OFFCURVE",
"201 711 CURVE SMOOTH {name = hr02;}",
"93 711 OFFCURVE",
"52 661 OFFCURVE",
"52 594 CURVE SMOOTH",
"52 543 OFFCURVE",
"76 508 OFFCURVE",
"103 488 CURVE",
"131 488 LINE",
"156 532 OFFCURVE",
"201 558 OFFCURVE",
"271 558 CURVE SMOOTH",
"312 558 LINE SMOOTH",
"406 558 OFFCURVE",
"474 575 OFFCURVE",
"520 601 CURVE",
"576 711 LINE {name = hr01;}"
);
},
{
closed = 1;
nodes = (
"232 -15 OFFCURVE",
"273 -18 OFFCURVE",
"300 -18 CURVE SMOOTH",
"403 -18 OFFCURVE",
"407 26 OFFCURVE",
"410 60 CURVE SMOOTH",
"425 237 OFFCURVE",
"410 406 OFFCURVE",
"612 662 CURVE",
"576 711 LINE",
"548 670 LINE",
"324 418 OFFCURVE",
"238 223 OFFCURVE",
"210 1 CURVE"
);
}
);
width = 662;
}
);
leftKerningGroup = seven;
rightKerningGroup = seven;
unicode = 0037;
userData = {
com.typemytype.robofont.guides = (
{
angle = 0;
isGlobal = 0;
magnetic = 5;
x = 0;
y = -32;
}
);
};
},
{
color = 9;
glyphname = eight;
lastChange = "2018-06-05 03:00:37 +0000";
layers = (
{
layerId = "184835E3-72D9-430C-A639-2454AC4A0BE8";
paths = (
{
closed = 1;
nodes = (
"490 451 OFFCURVE",
"533 505 OFFCURVE",
"533 569 CURVE SMOOTH",
"533 642 OFFCURVE",
"476 726 OFFCURVE",
"319 726 CURVE SMOOTH",
"162 726 OFFCURVE",
"76 641 OFFCURVE",
"76 537 CURVE SMOOTH",
"76 462 OFFCURVE",
"121 409 OFFCURVE",
"182 365 CURVE",
"105 332 OFFCURVE",
"53 266 OFFCURVE",
"53 188 CURVE SMOOTH",
"53 94 OFFCURVE",
"130 1 OFFCURVE",
"302 1 CURVE SMOOTH",
"473 1 OFFCURVE",
"577 93 OFFCURVE",
"577 211 CURVE SMOOTH",
"577 292 OFFCURVE",
"529 359 OFFCURVE",
"427 416 CURVE"
);
},
{
closed = 1;
nodes = (
"391 656 OFFCURVE",
"420 613 OFFCURVE",
"420 564 CURVE SMOOTH",
"420 520 OFFCURVE",
"397 482 OFFCURVE",
"353 451 CURVE",
"260 496 OFFCURVE",
"235 535 OFFCURVE",
"235 575 CURVE SMOOTH",
"235 622 OFFCURVE",
"271 656 OFFCURVE",
"327 656 CURVE SMOOTH"
);
},
{
closed = 1;
nodes = (
"226 75 OFFCURVE",
"179 133 OFFCURVE",
"179 203 CURVE SMOOTH",
"179 253 OFFCURVE",
"204 297 OFFCURVE",
"250 322 CURVE",
"371 276 OFFCURVE",
"408 230 OFFCURVE",
"408 176 CURVE SMOOTH",
"408 119 OFFCURVE",
"369 75 OFFCURVE",
"302 75 CURVE SMOOTH"
);
}
);
width = 628;
}
);
leftKerningGroup = eight;
rightKerningGroup = eight;
unicode = 0038;
},
{
color = 9;
glyphname = nine;
lastChange = "2018-06-05 03:00:37 +0000";
layers = (
{
layerId = "184835E3-72D9-430C-A639-2454AC4A0BE8";
paths = (
{
closed = 1;
nodes = (
"247 78 OFFCURVE",
"223 88 OFFCURVE",
"203 113 CURVE",
"235 125 OFFCURVE",
"247 149 OFFCURVE",
"247 175 CURVE SMOOTH",
"247 222 OFFCURVE",
"209 245 OFFCURVE",
"168 245 CURVE SMOOTH",
"115 245 OFFCURVE",
"82 208 OFFCURVE",
"82 154 CURVE SMOOTH",
"82 64 OFFCURVE",
"179 1 OFFCURVE",
"298 1 CURVE SMOOTH",
"460 1 OFFCURVE",
"593 121 OFFCURVE",
"593 373 CURVE SMOOTH",
"593 378 OFFCURVE",
"593 384 OFFCURVE",
"593 389 CURVE SMOOTH",
"588 622 OFFCURVE",
"477 726 OFFCURVE",
"309 726 CURVE SMOOTH",
"141 726 OFFCURVE",
"52 619 OFFCURVE",
"52 489 CURVE SMOOTH",
"52 357 OFFCURVE",
"144 280 OFFCURVE",
"271 280 CURVE SMOOTH",
"383 280 OFFCURVE",
"466 340 OFFCURVE",
"472 426 CURVE",
"429 443 LINE",
"429 390 OFFCURVE",
"383 362 OFFCURVE",
"330 362 CURVE SMOOTH",
"265 362 OFFCURVE",
"216 404 OFFCURVE",
"216 507 CURVE SMOOTH",
"216 619 OFFCURVE",
"273 652 OFFCURVE",
"318 652 CURVE SMOOTH",
"366 652 OFFCURVE",
"417 615 OFFCURVE",
"417 437 CURVE SMOOTH",
"417 412 OFFCURVE",
"416 386 OFFCURVE",
"414 357 CURVE",
"416 316 LINE",
"416 310 OFFCURVE",
"416 305 OFFCURVE",
"416 301 CURVE SMOOTH",
"416 136 OFFCURVE",
"361 78 OFFCURVE",
"281 78 CURVE SMOOTH {name = hr00;}"
);
}
);
width = 646;
}
);
leftKerningGroup = nine;
rightKerningGroup = nine;
unicode = 0039;
},
{
color = 9;
glyphname = zero.osf;
lastChange = "2018-06-05 03:00:37 +0000";
layers = (
{
layerId = "184835E3-72D9-430C-A639-2454AC4A0BE8";
paths = (
{
closed = 1;
nodes = (
"514 -11 OFFCURVE",
"629 70 OFFCURVE",
"629 298 CURVE SMOOTH",
"629 523 OFFCURVE",
"517 617 OFFCURVE",
"343 617 CURVE SMOOTH",
"171 617 OFFCURVE",
"56 525 OFFCURVE",
"56 298 CURVE SMOOTH",
"56 72 OFFCURVE",
"168 -11 OFFCURVE",
"341 -11 CURVE SMOOTH"
);
},
{
closed = 1;
nodes = (
"284 51 OFFCURVE",
"237 87 OFFCURVE",
"237 296 CURVE SMOOTH",
"237 515 OFFCURVE",
"285 556 OFFCURVE",
"343 556 CURVE SMOOTH",
"401 556 OFFCURVE",
"447 515 OFFCURVE",
"447 299 CURVE SMOOTH",
"447 87 OFFCURVE",
"400 51 OFFCURVE",
"341 51 CURVE SMOOTH {name = hr00;}"
);
}
);
width = 685;
}
);
leftKerningGroup = zero.osf;
rightKerningGroup = zero.osf;
},
{
color = 9;
glyphname = one.osf;
lastChange = "2018-06-05 03:00:37 +0000";
layers = (
{
layerId = "184835E3-72D9-430C-A639-2454AC4A0BE8";
paths = (
{
closed = 1;
nodes = (
"338 592 OFFCURVE",
"323 619 OFFCURVE",
"279 619 CURVE SMOOTH",
"261 619 OFFCURVE",
"239 615 OFFCURVE",
"194 592 CURVE SMOOTH",
"38 511 LINE",
"65 467 LINE",
"83 475 OFFCURVE",
"109 479 OFFCURVE",
"128 479 CURVE SMOOTH",
"158 479 OFFCURVE",
"173 468 OFFCURVE",
"173 450 CURVE SMOOTH",
"173 129 LINE SMOOTH",
"173 67 OFFCURVE",
"128 41 OFFCURVE",
"63 41 CURVE",
"63 23 OFFCURVE",
"72 4 OFFCURVE",
"87 -8 CURVE",
"419 -8 LINE",
"434 4 OFFCURVE",
"442 23 OFFCURVE",
"442 41 CURVE",
"373 41 OFFCURVE",
"338 66 OFFCURVE",
"338 129 CURVE SMOOTH",
"338 571 LINE SMOOTH {name = hr00;}"
);
}
);
width = 480;
}
);
leftKerningGroup = one.osf;
rightKerningGroup = one.osf;
},
{
color = 9;
glyphname = two.osf;
lastChange = "2018-06-05 03:00:37 +0000";
layers = (
{
layerId = "184835E3-72D9-430C-A639-2454AC4A0BE8";
paths = (
{
closed = 1;
nodes = (
"140 43 LINE",
"169 218 OFFCURVE",
"546 220 OFFCURVE",
"546 437 CURVE SMOOTH",
"546 554 OFFCURVE",
"436 625 OFFCURVE",
"299 625 CURVE SMOOTH",
"126 625 OFFCURVE",
"51 541 OFFCURVE",
"51 462 CURVE SMOOTH",
"51 409 OFFCURVE",
"94 369 OFFCURVE",
"142 369 CURVE SMOOTH",
"188 369 OFFCURVE",
"232 396 OFFCURVE",
"232 435 CURVE SMOOTH",
"232 463 OFFCURVE",
"210 501 OFFCURVE",
"177 509 CURVE",
"199 535 OFFCURVE",
"218 565 OFFCURVE",
"268 565 CURVE SMOOTH",
"324 565 OFFCURVE",
"368 521 OFFCURVE",
"368 452 CURVE SMOOTH",
"368 279 OFFCURVE",
"95 231 OFFCURVE",
"51 26 CURVE",
"83 5 LINE {name = hr01;}"
);
},
{
closed = 1;
nodes = (
"120 18 OFFCURVE",
"164 24 OFFCURVE",
"207 24 CURVE SMOOTH",
"286 24 OFFCURVE",
"330 6 OFFCURVE",
"400 6 CURVE SMOOTH {name = hr02;}",
"533 6 OFFCURVE",
"572 73 OFFCURVE",
"572 127 CURVE SMOOTH",
"572 160 OFFCURVE",
"557 192 OFFCURVE",
"536 208 CURVE",
"513 208 LINE",
"498 161 OFFCURVE",
"442 135 OFFCURVE",
"378 135 CURVE SMOOTH {name = hr03;}",
"310 135 LINE SMOOTH",
"253 135 OFFCURVE",
"202 123 OFFCURVE",
"148 100 CURVE",
"84 5 LINE"
);
}
);
width = 623;
}
);
leftKerningGroup = two.osf;
rightKerningGroup = two.osf;
},
{
color = 9;
glyphname = three.osf;
lastChange = "2018-06-05 03:00:37 +0000";
layers = (
{
layerId = "184835E3-72D9-430C-A639-2454AC4A0BE8";
paths = (
{
closed = 1;
nodes = (
"539 446 OFFCURVE",
"439 506 OFFCURVE",
"301 506 CURVE SMOOTH",
"172 506 OFFCURVE",
"67 453 OFFCURVE",
"67 362 CURVE SMOOTH",
"67 315 OFFCURVE",
"95 281 OFFCURVE",
"145 281 CURVE SMOOTH",
"194 281 OFFCURVE",
"219 314 OFFCURVE",
"219 344 CURVE SMOOTH",
"219 370 OFFCURVE",
"200 392 OFFCURVE",
"183 399 CURVE",
"203 424 OFFCURVE",
"233 435 OFFCURVE",
"265 435 CURVE SMOOTH",
"328 435 OFFCURVE",
"362 395 OFFCURVE",
"362 329 CURVE SMOOTH",
"362 268 OFFCURVE",
"332 190 OFFCURVE",
"206 157 CURVE",
"339 153 LINE",
"472 188 OFFCURVE",
"539 244 OFFCURVE",
"539 346 CURVE SMOOTH {name = hr00;}"
);
},
{
closed = 1;
nodes = (
"589 84 OFFCURVE",
"501 164 OFFCURVE",
"375 171 CURVE",
"206 157 LINE",
"225 106 LINE",
"266 106 LINE SMOOTH",
"353 106 OFFCURVE",
"407 43 OFFCURVE",
"407 -26 CURVE SMOOTH",
"407 -96 OFFCURVE",
"353 -141 OFFCURVE",
"275 -141 CURVE SMOOTH",
"236 -141 OFFCURVE",
"196 -129 OFFCURVE",
"180 -114 CURVE",
"200 -97 OFFCURVE",
"207 -78 OFFCURVE",
"207 -60 CURVE SMOOTH",
"207 -24 OFFCURVE",
"178 4 OFFCURVE",
"133 4 CURVE SMOOTH",
"88 4 OFFCURVE",
"53 -23 OFFCURVE",
"53 -78 CURVE SMOOTH",
"53 -172 OFFCURVE",
"154 -229 OFFCURVE",
"293 -229 CURVE SMOOTH",
"465 -229 OFFCURVE",
"589 -143 OFFCURVE",
"589 -20 CURVE SMOOTH"
);
}
);
width = 640;
}
);
leftKerningGroup = three.osf;
rightKerningGroup = three.osf;
},
{
color = 9;
glyphname = four.osf;
lastChange = "2018-06-05 03:00:37 +0000";
layers = (
{
layerId = "184835E3-72D9-430C-A639-2454AC4A0BE8";
paths = (
{
closed = 1;
nodes = (
"621 301 OFFCURVE",
"584 274 OFFCURVE",
"531 274 CURVE SMOOTH",
"200 274 LINE",
"424 641 LINE",
"480 710 LINE",
"382 710 LINE",
"60 240 LINE",
"86 192 LINE",
"506 192 LINE SMOOTH",
"656 192 OFFCURVE",
"702 231 OFFCURVE",
"702 287 CURVE SMOOTH",
"702 316 OFFCURVE",
"684 341 OFFCURVE",
"662 348 CURVE",
"639 348 LINE {name = hr00;}"
);
},
{
closed = 1;
nodes = (
"366 72 OFFCURVE",
"320 59 OFFCURVE",
"257 59 CURVE",
"257 39 OFFCURVE",
"264 14 OFFCURVE",
"279 0 CURVE",
"611 0 LINE",
"626 14 OFFCURVE",
"635 39 OFFCURVE",
"635 59 CURVE",
"566 59 OFFCURVE",
"531 72 OFFCURVE",
"531 113 CURVE SMOOTH",
"531 710 LINE",
"480 710 LINE",
"366 633 LINE",
"366 114 LINE SMOOTH"
);
}
);
width = 761;
}
);
leftKerningGroup = four.osf;
rightKerningGroup = four.osf;
},
{
color = 9;
glyphname = five.osf;
lastChange = "2018-06-05 03:00:37 +0000";
layers = (
{
layerId = "184835E3-72D9-430C-A639-2454AC4A0BE8";
paths = (
{
closed = 1;
nodes = (
"200 -122 OFFCURVE",
"217 -100 OFFCURVE",
"217 -70 CURVE SMOOTH",
"217 -27 OFFCURVE",
"183 4 OFFCURVE",
"137 4 CURVE SMOOTH",
"90 4 OFFCURVE",
"51 -29 OFFCURVE",
"51 -85 CURVE SMOOTH",
"51 -169 OFFCURVE",
"144 -229 OFFCURVE",
"285 -229 CURVE SMOOTH",
"473 -229 OFFCURVE",
"574 -122 OFFCURVE",
"574 0 CURVE SMOOTH",
"574 123 OFFCURVE",
"475 226 OFFCURVE",
"329 226 CURVE SMOOTH",
"259 226 OFFCURVE",
"210 207 OFFCURVE",
"175 188 CURVE",
"198 153 LINE",
"229 443 LINE",
"112 383 LINE",
"113 382 OFFCURVE",
"115 381 OFFCURVE",
"118 381 CURVE SMOOTH",
"138 381 OFFCURVE",
"199 408 OFFCURVE",
"211 408 CURVE SMOOTH",
"294 408 OFFCURVE",
"314 346 OFFCURVE",
"409 346 CURVE SMOOTH",
"492 346 OFFCURVE",
"541 394 OFFCURVE",
"541 455 CURVE SMOOTH",
"541 486 OFFCURVE",
"530 513 OFFCURVE",
"512 527 CURVE",
"489 527 LINE",
"457 506 OFFCURVE",
"409 496 OFFCURVE",
"335 496 CURVE SMOOTH",
"107 496 LINE",
"93 160 LINE",
"132 116 LINE",
"162 129 OFFCURVE",
"208 137 OFFCURVE",
"245 137 CURVE SMOOTH",
"328 137 OFFCURVE",
"391 73 OFFCURVE",
"391 -13 CURVE SMOOTH",
"391 -90 OFFCURVE",
"340 -145 OFFCURVE",
"249 -145 CURVE SMOOTH",
"209 -145 OFFCURVE",
"175 -135 OFFCURVE",
"165 -125 CURVE",
"153 -143 LINE {name = hr00;}"
);
}
);
width = 624;
}
);
leftKerningGroup = five.osf;
rightKerningGroup = five.osf;
},
{
color = 9;
glyphname = six.osf;
lastChange = "2018-06-05 03:00:37 +0000";
layers = (
{
layerId = "184835E3-72D9-430C-A639-2454AC4A0BE8";
paths = (
{
closed = 1;
nodes = (
"398 629 OFFCURVE",
"426 617 OFFCURVE",
"443 598 CURVE",
"420 585 OFFCURVE",
"406 561 OFFCURVE",
"406 535 CURVE SMOOTH",
"406 493 OFFCURVE",
"441 461 OFFCURVE",
"489 461 CURVE SMOOTH",
"541 461 OFFCURVE",
"572 500 OFFCURVE",
"572 551 CURVE SMOOTH",
"572 641 OFFCURVE",
"478 699 OFFCURVE",
"361 699 CURVE SMOOTH",
"193 699 OFFCURVE",
"53 583 OFFCURVE",
"53 327 CURVE SMOOTH",
"53 90 OFFCURVE",
"168 -16 OFFCURVE",
"333 -16 CURVE SMOOTH",
"495 -16 OFFCURVE",
"597 93 OFFCURVE",
"597 225 CURVE SMOOTH",
"597 345 OFFCURVE",
"503 424 OFFCURVE",
"379 424 CURVE SMOOTH",
"262 424 OFFCURVE",
"181 355 OFFCURVE",
"174 251 CURVE",
"217 235 LINE",
"217 305 OFFCURVE",
"264 342 OFFCURVE",
"327 342 CURVE SMOOTH",
"385 342 OFFCURVE",
"428 309 OFFCURVE",
"428 210 CURVE SMOOTH",
"428 104 OFFCURVE",
"387 59 OFFCURVE",
"336 59 CURVE SMOOTH",
"281 59 OFFCURVE",
"229 102 OFFCURVE",
"229 249 CURVE SMOOTH",
"229 271 OFFCURVE",
"229 295 OFFCURVE",
"232 321 CURVE",
"231 362 LINE",
"231 369 OFFCURVE",
"230 376 OFFCURVE",
"230 383 CURVE SMOOTH",
"230 565 OFFCURVE",
"293 629 OFFCURVE",
"366 629 CURVE SMOOTH {name = hr00;}"
);
}
);
width = 650;
}
);
leftKerningGroup = six.osf;
rightKerningGroup = six.osf;
},
{
color = 9;
glyphname = seven.osf;
lastChange = "2018-06-05 03:00:37 +0000";
layers = (
{
layerId = "184835E3-72D9-430C-A639-2454AC4A0BE8";
paths = (
{
closed = 1;
nodes = (
"539 478 OFFCURVE",
"490 468 OFFCURVE",
"444 468 CURVE SMOOTH",
"356 468 OFFCURVE",
"294 506 OFFCURVE",
"201 506 CURVE SMOOTH {name = hr02;}",
"93 506 OFFCURVE",
"52 455 OFFCURVE",
"52 389 CURVE SMOOTH",
"52 338 OFFCURVE",
"76 303 OFFCURVE",
"103 283 CURVE",
"131 283 LINE",
"156 326 OFFCURVE",
"201 352 OFFCURVE",
"271 352 CURVE SMOOTH",
"312 352 LINE SMOOTH",
"406 352 OFFCURVE",
"474 369 OFFCURVE",
"520 396 CURVE",
"576 505 LINE {name = hr01;}"
);
},
{
closed = 1;
nodes = (
"220 -226 OFFCURVE",
"260 -229 OFFCURVE",
"287 -229 CURVE SMOOTH",
"390 -229 OFFCURVE",
"394 -185 OFFCURVE",
"398 -151 CURVE SMOOTH",
"413 26 OFFCURVE",
"410 201 OFFCURVE",
"612 456 CURVE",
"576 506 LINE",
"548 464 LINE",
"324 213 OFFCURVE",
"225 12 OFFCURVE",
"197 -211 CURVE"
);
}
);
width = 662;
}
);
leftKerningGroup = seven.osf;
rightKerningGroup = seven.osf;
},
{
color = 9;
glyphname = eight.osf;
lastChange = "2018-06-05 03:00:37 +0000";
layers = (
{
layerId = "184835E3-72D9-430C-A639-2454AC4A0BE8";
paths = (
{
closed = 1;
nodes = (
"490 423 OFFCURVE",
"533 476 OFFCURVE",
"533 540 CURVE SMOOTH",
"533 613 OFFCURVE",
"476 697 OFFCURVE",
"319 697 CURVE SMOOTH",
"162 697 OFFCURVE",
"76 612 OFFCURVE",
"76 508 CURVE SMOOTH",
"76 433 OFFCURVE",
"121 380 OFFCURVE",
"182 347 CURVE",
"105 314 OFFCURVE",
"53 248 OFFCURVE",
"53 170 CURVE SMOOTH",
"53 76 OFFCURVE",
"130 -17 OFFCURVE",
"302 -17 CURVE SMOOTH",
"473 -17 OFFCURVE",
"577 75 OFFCURVE",
"577 193 CURVE SMOOTH",
"577 274 OFFCURVE",
"529 329 OFFCURVE",
"427 388 CURVE"
);
},
{
closed = 1;
nodes = (
"391 627 OFFCURVE",
"420 585 OFFCURVE",
"420 536 CURVE SMOOTH",
"420 491 OFFCURVE",
"397 454 OFFCURVE",
"353 423 CURVE",
"260 467 OFFCURVE",
"235 506 OFFCURVE",
"235 546 CURVE SMOOTH",
"235 594 OFFCURVE",
"271 627 OFFCURVE",
"327 627 CURVE SMOOTH"
);
},
{
closed = 1;
nodes = (
"226 57 OFFCURVE",
"179 115 OFFCURVE",
"179 185 CURVE SMOOTH",
"179 235 OFFCURVE",
"204 279 OFFCURVE",
"250 304 CURVE",
"371 258 OFFCURVE",
"408 212 OFFCURVE",
"408 158 CURVE SMOOTH",
"408 101 OFFCURVE",
"369 57 OFFCURVE",
"302 57 CURVE SMOOTH"
);
}
);
width = 628;
}
);
leftKerningGroup = eight.osf;
rightKerningGroup = eight.osf;
},
{
color = 9;
glyphname = nine.osf;
lastChange = "2018-06-05 03:00:37 +0000";
layers = (
{
layerId = "184835E3-72D9-430C-A639-2454AC4A0BE8";
paths = (
{
closed = 1;
nodes = (
"247 -150 OFFCURVE",
"223 -140 OFFCURVE",
"203 -115 CURVE",
"235 -103 OFFCURVE",
"247 -79 OFFCURVE",
"247 -53 CURVE SMOOTH",
"247 -6 OFFCURVE",
"209 17 OFFCURVE",
"168 17 CURVE SMOOTH",
"115 17 OFFCURVE",
"82 -20 OFFCURVE",
"82 -74 CURVE SMOOTH",
"82 -164 OFFCURVE",
"179 -227 OFFCURVE",
"298 -227 CURVE SMOOTH",
"460 -227 OFFCURVE",
"593 -107 OFFCURVE",
"593 153 CURVE SMOOTH",
"593 158 OFFCURVE",
"593 164 OFFCURVE",
"593 170 CURVE SMOOTH",
"588 402 OFFCURVE",
"477 506 OFFCURVE",
"309 506 CURVE SMOOTH",
"141 506 OFFCURVE",
"52 400 OFFCURVE",
"52 270 CURVE SMOOTH",
"52 138 OFFCURVE",
"144 61 OFFCURVE",
"271 61 CURVE SMOOTH",
"383 61 OFFCURVE",
"466 121 OFFCURVE",
"472 207 CURVE",
"429 223 LINE",
"429 171 OFFCURVE",
"383 143 OFFCURVE",
"330 143 CURVE SMOOTH",
"265 143 OFFCURVE",
"216 184 OFFCURVE",
"216 288 CURVE SMOOTH",
"216 400 OFFCURVE",
"273 433 OFFCURVE",
"318 433 CURVE SMOOTH",
"366 433 OFFCURVE",
"417 395 OFFCURVE",
"417 217 CURVE SMOOTH",
"417 194 OFFCURVE",
"416 167 OFFCURVE",
"414 137 CURVE",
"416 97 LINE",
"416 92 OFFCURVE",
"416 86 OFFCURVE",
"416 81 CURVE SMOOTH",
"416 -92 OFFCURVE",
"361 -150 OFFCURVE",
"281 -150 CURVE SMOOTH {name = hr00;}"
);
}
);
width = 646;
}
);
leftKerningGroup = nine.osf;
rightKerningGroup = nine.osf;
},
{
glyphname = zero.osf.zero;
lastChange = "2018-06-05 02:48:57 +0000";
layers = (
{
components = (
{
name = zero.osf;
transform = "{0.75, 0, 0, 0.75, 47, 283}";
}
);
layerId = "184835E3-72D9-430C-A639-2454AC4A0BE8";
paths = (
{
closed = 1;
nodes = (
"502 344 LINE",
"768 1131 LINE",
"688 1163 LINE",
"422 376 LINE"
);
}
);
width = 922;
}
);
},
{
color = 9;
glyphname = zero.tf;
lastChange = "2018-06-05 03:00:37 +0000";
layers = (
{
layerId = "184835E3-72D9-430C-A639-2454AC4A0BE8";
paths = (
{
closed = 1;
nodes = (
"506 -11 OFFCURVE",
"620 81 OFFCURVE",
"620 338 CURVE SMOOTH",
"620 594 OFFCURVE",
"509 700 OFFCURVE",
"335 700 CURVE SMOOTH",
"163 700 OFFCURVE",
"48 596 OFFCURVE",
"48 339 CURVE SMOOTH",
"48 84 OFFCURVE",
"160 -11 OFFCURVE",
"334 -11 CURVE SMOOTH"
);
},
{
closed = 1;
nodes = (
"276 59 OFFCURVE",
"230 100 OFFCURVE",
"230 337 CURVE SMOOTH",
"230 584 OFFCURVE",
"277 630 OFFCURVE",
"335 630 CURVE SMOOTH",
"393 630 OFFCURVE",
"439 584 OFFCURVE",
"439 340 CURVE SMOOTH",
"439 100 OFFCURVE",
"392 59 OFFCURVE",
"334 59 CURVE SMOOTH {name = hr00;}"
);
}
);
width = 669;
}
);
leftKerningGroup = zero.tf;
rightKerningGroup = zero.tf;
},
{
color = 9;
glyphname = one.tf;
lastChange = "2018-06-05 03:00:37 +0000";
layers = (
{
layerId = "184835E3-72D9-430C-A639-2454AC4A0BE8";
paths = (
{
closed = 1;
nodes = (
"419 679 OFFCURVE",
"398 707 OFFCURVE",
"355 707 CURVE SMOOTH",
"336 707 OFFCURVE",
"320 698 OFFCURVE",
"296 684 CURVE SMOOTH",
"277 673 OFFCURVE",
"253 660 OFFCURVE",
"221 647 CURVE SMOOTH",
"51 580 LINE",
"78 501 LINE",
"96 509 OFFCURVE",
"164 521 OFFCURVE",
"212 521 CURVE SMOOTH",
"242 521 OFFCURVE",
"256 509 OFFCURVE",
"256 489 CURVE SMOOTH",
"256 151 LINE SMOOTH",
"256 80 OFFCURVE",
"179 67 OFFCURVE",
"60 67 CURVE",
"60 47 OFFCURVE",
"69 14 OFFCURVE",
"84 0 CURVE",
"574 0 LINE",
"589 14 OFFCURVE",
"597 47 OFFCURVE",
"597 67 CURVE",
"468 67 OFFCURVE",
"419 79 OFFCURVE",
"419 150 CURVE SMOOTH",
"419 656 LINE SMOOTH {name = hr00;}"
);
}
);
width = 646;
}
);
leftKerningGroup = one.tf;
rightKerningGroup = one.tf;
},
{
color = 9;
glyphname = two.tf;
lastChange = "2018-06-05 03:00:37 +0000";
layers = (
{
layerId = "184835E3-72D9-430C-A639-2454AC4A0BE8";
paths = (
{
closed = 1;
nodes = (
"518 240 LINE",
"503 186 OFFCURVE",
"448 155 OFFCURVE",
"383 155 CURVE SMOOTH",
"315 155 LINE SMOOTH",
"266 155 OFFCURVE",
"222 145 OFFCURVE",
"176 125 CURVE",
"212 176 OFFCURVE",
"273 215 OFFCURVE",
"335 254 CURVE SMOOTH",
"442 322 OFFCURVE",
"552 391 OFFCURVE",
"552 527 CURVE SMOOTH",
"552 663 OFFCURVE",
"441 728 OFFCURVE",
"305 728 CURVE SMOOTH",
"152 728 OFFCURVE",
"56 647 OFFCURVE",
"56 556 CURVE SMOOTH",
"56 494 OFFCURVE",
"99 459 OFFCURVE",
"148 459 CURVE SMOOTH",
"193 459 OFFCURVE",
"237 490 OFFCURVE",
"237 537 CURVE SMOOTH",
"237 568 OFFCURVE",
"216 601 OFFCURVE",
"183 611 CURVE",
"204 641 OFFCURVE",
"234 658 OFFCURVE",
"273 658 CURVE SMOOTH",
"329 658 OFFCURVE",
"373 624 OFFCURVE",
"373 544 CURVE SMOOTH",
"373 443 OFFCURVE",
"305 374 OFFCURVE",
"229 298 CURVE SMOOTH",
"156 225 OFFCURVE",
"78 146 OFFCURVE",
"56 30 CURVE",
"88 5 LINE",
"89 6 LINE",
"89 5 LINE",
"125 20 OFFCURVE",
"169 26 OFFCURVE",
"212 26 CURVE SMOOTH",
"253 26 OFFCURVE",
"284 21 OFFCURVE",
"314 16 CURVE SMOOTH",
"343 11 OFFCURVE",
"370 6 OFFCURVE",
"405 6 CURVE SMOOTH",
"538 6 OFFCURVE",
"578 82 OFFCURVE",
"578 145 CURVE SMOOTH",
"578 184 OFFCURVE",
"562 221 OFFCURVE",
"542 240 CURVE"
);
}
);
width = 625;
}
);
leftKerningGroup = two.tf;
rightKerningGroup = two.tf;
},
{
color = 9;
glyphname = three.tf;
lastChange = "2018-06-05 03:00:37 +0000";
layers = (
{
layerId = "184835E3-72D9-430C-A639-2454AC4A0BE8";
paths = (
{
closed = 1;
nodes = (
"494 429 OFFCURVE",
"539 482 OFFCURVE",
"539 566 CURVE SMOOTH",
"539 667 OFFCURVE",
"438 726 OFFCURVE",
"301 726 CURVE SMOOTH",
"171 726 OFFCURVE",
"66 673 OFFCURVE",
"66 582 CURVE SMOOTH",
"66 535 OFFCURVE",
"94 502 OFFCURVE",
"144 502 CURVE SMOOTH",
"193 502 OFFCURVE",
"218 535 OFFCURVE",
"218 564 CURVE SMOOTH",
"218 590 OFFCURVE",
"200 612 OFFCURVE",
"182 619 CURVE",
"203 644 OFFCURVE",
"232 656 OFFCURVE",
"265 656 CURVE SMOOTH",
"327 656 OFFCURVE",
"361 615 OFFCURVE",
"361 549 CURVE SMOOTH",
"361 488 OFFCURVE",
"332 416 OFFCURVE",
"206 383 CURVE",
"224 332 LINE",
"266 332 LINE SMOOTH",
"353 332 OFFCURVE",
"406 273 OFFCURVE",
"406 204 CURVE SMOOTH",
"406 135 OFFCURVE",
"352 90 OFFCURVE",
"275 90 CURVE SMOOTH",
"235 90 OFFCURVE",
"195 102 OFFCURVE",
"180 116 CURVE",
"199 133 OFFCURVE",
"206 152 OFFCURVE",
"206 170 CURVE SMOOTH",
"206 206 OFFCURVE",
"177 234 OFFCURVE",
"132 234 CURVE SMOOTH",
"87 234 OFFCURVE",
"52 207 OFFCURVE",
"52 152 CURVE SMOOTH",
"52 58 OFFCURVE",
"154 1 OFFCURVE",
"293 1 CURVE SMOOTH",
"464 1 OFFCURVE",
"588 87 OFFCURVE",
"588 210 CURVE SMOOTH",
"588 306 OFFCURVE",
"514 376 OFFCURVE",
"404 393 CURVE"
);
}
);
width = 638;
}
);
leftKerningGroup = three.tf;
rightKerningGroup = three.tf;
},
{
color = 9;
glyphname = four.tf;
lastChange = "2018-06-05 03:00:37 +0000";
layers = (
{
layerId = "184835E3-72D9-430C-A639-2454AC4A0BE8";
paths = (
{
closed = 1;
nodes = (
"569 266 OFFCURVE",
"532 239 OFFCURVE",
"488 239 CURVE SMOOTH",
"192 239 LINE",
"367 640 LINE",
"447 710 LINE",
"297 710 LINE",
"51 205 LINE",
"77 157 LINE",
"463 157 LINE SMOOTH",
"604 157 OFFCURVE",
"650 196 OFFCURVE",
"650 252 CURVE SMOOTH",
"650 281 OFFCURVE",
"632 306 OFFCURVE",
"610 313 CURVE",
"586 313 LINE {name = hr00;}"
);
},
{
closed = 1;
nodes = (
"333 72 OFFCURVE",
"287 59 OFFCURVE",
"223 59 CURVE",
"223 39 OFFCURVE",
"231 14 OFFCURVE",
"246 0 CURVE",
"578 0 LINE",
"593 14 OFFCURVE",
"602 39 OFFCURVE",
"602 59 CURVE",
"533 59 OFFCURVE",
"498 71 OFFCURVE",
"498 113 CURVE SMOOTH",
"498 710 LINE",
"447 710 LINE",
"333 633 LINE",
"333 113 LINE SMOOTH"
);
}
);
width = 693;
}
);
leftKerningGroup = four.tf;
rightKerningGroup = four.tf;
},
{
color = 9;
glyphname = five.tf;
lastChange = "2018-06-05 03:00:37 +0000";
layers = (
{
layerId = "184835E3-72D9-430C-A639-2454AC4A0BE8";
paths = (
{
closed = 1;
nodes = (
"203 87 OFFCURVE",
"220 109 OFFCURVE",
"220 139 CURVE SMOOTH",
"220 182 OFFCURVE",
"186 213 OFFCURVE",
"140 213 CURVE SMOOTH",
"93 213 OFFCURVE",
"54 180 OFFCURVE",
"54 124 CURVE SMOOTH",
"54 40 OFFCURVE",
"147 -20 OFFCURVE",
"288 -20 CURVE SMOOTH",
"477 -20 OFFCURVE",
"577 87 OFFCURVE",
"577 209 CURVE SMOOTH",
"577 332 OFFCURVE",
"479 415 OFFCURVE",
"332 415 CURVE SMOOTH",
"262 415 OFFCURVE",
"214 396 OFFCURVE",
"178 377 CURVE",
"202 342 LINE",
"233 633 LINE",
"115 572 LINE",
"116 571 OFFCURVE",
"118 570 OFFCURVE",
"121 570 CURVE SMOOTH",
"141 570 OFFCURVE",
"202 597 OFFCURVE",
"214 597 CURVE SMOOTH",
"297 597 OFFCURVE",
"317 535 OFFCURVE",
"412 535 CURVE SMOOTH",
"495 535 OFFCURVE",
"545 583 OFFCURVE",
"545 644 CURVE SMOOTH",
"545 675 OFFCURVE",
"533 703 OFFCURVE",
"516 716 CURVE",
"492 716 LINE",
"460 695 OFFCURVE",
"412 685 OFFCURVE",
"338 685 CURVE SMOOTH",
"110 685 LINE",
"96 349 LINE",
"135 304 LINE",
"165 318 OFFCURVE",
"211 326 OFFCURVE",
"248 326 CURVE SMOOTH",
"331 326 OFFCURVE",
"395 282 OFFCURVE",
"395 196 CURVE SMOOTH",
"395 120 OFFCURVE",
"343 64 OFFCURVE",
"252 64 CURVE SMOOTH",
"212 64 OFFCURVE",
"178 75 OFFCURVE",
"168 84 CURVE",
"156 67 LINE {name = hr00;}"
);
}
);
width = 626;
}
);
leftKerningGroup = five.tf;
rightKerningGroup = five.tf;
},
{
color = 9;
glyphname = eight.tf;
lastChange = "2018-06-05 03:00:37 +0000";
layers = (
{
layerId = "184835E3-72D9-430C-A639-2454AC4A0BE8";
paths = (
{
closed = 1;
nodes = (
"494 436 OFFCURVE",
"537 490 OFFCURVE",
"537 554 CURVE SMOOTH",
"537 627 OFFCURVE",
"480 711 OFFCURVE",
"323 711 CURVE SMOOTH",
"165 711 OFFCURVE",
"80 626 OFFCURVE",
"80 522 CURVE SMOOTH",
"80 447 OFFCURVE",
"125 394 OFFCURVE",
"186 350 CURVE",
"108 317 OFFCURVE",
"56 251 OFFCURVE",
"56 173 CURVE SMOOTH",
"56 79 OFFCURVE",
"134 -14 OFFCURVE",
"306 -14 CURVE SMOOTH",
"477 -14 OFFCURVE",
"581 78 OFFCURVE",
"581 196 CURVE SMOOTH",
"581 277 OFFCURVE",
"533 344 OFFCURVE",
"430 401 CURVE"
);
},
{
closed = 1;
nodes = (
"395 641 OFFCURVE",
"424 598 OFFCURVE",
"424 549 CURVE SMOOTH",
"424 505 OFFCURVE",
"401 467 OFFCURVE",
"357 436 CURVE",
"263 481 OFFCURVE",
"239 520 OFFCURVE",
"239 560 CURVE SMOOTH",
"239 607 OFFCURVE",
"274 641 OFFCURVE",
"331 641 CURVE SMOOTH"
);
},
{
closed = 1;
nodes = (
"234 60 OFFCURVE",
"188 118 OFFCURVE",
"188 188 CURVE SMOOTH",
"188 238 OFFCURVE",
"212 282 OFFCURVE",
"258 307 CURVE",
"379 261 OFFCURVE",
"416 215 OFFCURVE",
"416 161 CURVE SMOOTH",
"416 104 OFFCURVE",
"377 60 OFFCURVE",
"310 60 CURVE SMOOTH"
);
}
);
width = 628;
}
);
leftKerningGroup = eight.tf;
rightKerningGroup = eight.tf;
},
{
glyphname = zero.tf.zero;
lastChange = "2018-06-03 05:48:24 +0000";
layers = (
{
components = (
{
name = zero.tf;
transform = "{1, 0, 0, 1, 41, 20}";
}
);
layerId = "184835E3-72D9-430C-A639-2454AC4A0BE8";
paths = (
{
closed = 1;
nodes = (
"424 81 LINE",
"704 982 LINE",
"624 1014 LINE",
"344 113 LINE"
);
}
);
width = 1034;
}
);
leftMetricsKey = zero;
widthMetricsKey = zero;
},
{
color = 9;
glyphname = zero.tosf;
lastChange = "2018-06-05 03:00:37 +0000";
layers = (
{
layerId = "184835E3-72D9-430C-A639-2454AC4A0BE8";
paths = (
{
closed = 1;
nodes = (
"510 -11 OFFCURVE",
"625 70 OFFCURVE",
"625 298 CURVE SMOOTH",
"625 523 OFFCURVE",
"514 617 OFFCURVE",
"339 617 CURVE SMOOTH",
"167 617 OFFCURVE",
"53 525 OFFCURVE",
"53 298 CURVE SMOOTH",
"53 72 OFFCURVE",
"164 -11 OFFCURVE",
"338 -11 CURVE SMOOTH"
);
},
{
closed = 1;
nodes = (
"280 51 OFFCURVE",
"234 87 OFFCURVE",
"234 296 CURVE SMOOTH",
"234 515 OFFCURVE",
"282 556 OFFCURVE",
"339 556 CURVE SMOOTH",
"397 556 OFFCURVE",
"444 515 OFFCURVE",
"444 299 CURVE SMOOTH",
"444 87 OFFCURVE",
"397 51 OFFCURVE",
"339 51 CURVE SMOOTH {name = hr00;}"
);
}
);
width = 678;
}
);
leftKerningGroup = zero.tosf;
rightKerningGroup = zero.tosf;
},
{
color = 9;
glyphname = one.tosf;
lastChange = "2018-06-05 03:00:37 +0000";
layers = (
{
layerId = "184835E3-72D9-430C-A639-2454AC4A0BE8";
paths = (
{
closed = 1;
nodes = (
"421 552 OFFCURVE",
"400 580 OFFCURVE",
"357 580 CURVE SMOOTH",
"337 580 OFFCURVE",
"321 571 OFFCURVE",
"298 558 CURVE SMOOTH",
"278 547 OFFCURVE",
"255 534 OFFCURVE",
"222 521 CURVE SMOOTH",
"53 454 LINE",
"80 374 LINE",
"97 382 OFFCURVE",
"166 394 OFFCURVE",
"213 394 CURVE SMOOTH",
"244 394 OFFCURVE",
"257 382 OFFCURVE",
"257 362 CURVE SMOOTH",
"257 151 LINE SMOOTH",
"257 80 OFFCURVE",
"180 67 OFFCURVE",
"62 67 CURVE",
"62 47 OFFCURVE",
"70 14 OFFCURVE",
"85 0 CURVE",
"575 0 LINE",
"591 14 OFFCURVE",
"599 47 OFFCURVE",
"599 67 CURVE",
"469 67 OFFCURVE",
"421 79 OFFCURVE",
"421 150 CURVE SMOOTH",
"421 529 LINE SMOOTH {name = hr00;}"
);
}
);
width = 650;
}
);
leftKerningGroup = one.tosf;
rightKerningGroup = one.tosf;
},
{
color = 9;
glyphname = two.tosf;
lastChange = "2018-06-05 03:00:37 +0000";
layers = (
{
layerId = "184835E3-72D9-430C-A639-2454AC4A0BE8";
paths = (
{
closed = 1;
nodes = (
"140 43 LINE",
"171 218 OFFCURVE",
"547 220 OFFCURVE",
"547 437 CURVE SMOOTH",
"547 554 OFFCURVE",
"437 625 OFFCURVE",
"300 625 CURVE SMOOTH",
"127 625 OFFCURVE",
"52 541 OFFCURVE",
"52 462 CURVE SMOOTH",
"52 409 OFFCURVE",
"96 369 OFFCURVE",
"144 369 CURVE SMOOTH",
"189 369 OFFCURVE",
"233 396 OFFCURVE",
"233 435 CURVE SMOOTH",
"233 463 OFFCURVE",
"212 501 OFFCURVE",
"179 509 CURVE",
"200 535 OFFCURVE",
"218 565 OFFCURVE",
"269 565 CURVE SMOOTH",
"324 565 OFFCURVE",
"369 521 OFFCURVE",
"369 452 CURVE SMOOTH",
"369 279 OFFCURVE",
"97 231 OFFCURVE",
"53 26 CURVE",
"84 5 LINE {name = hr01;}"
);
},
{
closed = 1;
nodes = (
"121 18 OFFCURVE",
"164 24 OFFCURVE",
"209 24 CURVE SMOOTH",
"288 24 OFFCURVE",
"331 6 OFFCURVE",
"400 6 CURVE SMOOTH {name = hr02;}",
"534 6 OFFCURVE",
"573 73 OFFCURVE",
"573 127 CURVE SMOOTH",
"573 160 OFFCURVE",
"558 192 OFFCURVE",
"538 208 CURVE",
"513 208 LINE",
"499 161 OFFCURVE",
"444 135 OFFCURVE",
"379 135 CURVE SMOOTH {name = hr03;}",
"311 135 LINE SMOOTH",
"253 135 OFFCURVE",
"203 123 OFFCURVE",
"149 100 CURVE",
"84 5 LINE"
);
}
);
width = 624;
}
);
leftKerningGroup = two.tosf;
rightKerningGroup = two.tosf;
},
{
color = 9;
glyphname = three.tosf;
lastChange = "2018-06-05 03:00:37 +0000";
layers = (
{
layerId = "184835E3-72D9-430C-A639-2454AC4A0BE8";
paths = (
{
closed = 1;
nodes = (
"539 446 OFFCURVE",
"439 506 OFFCURVE",
"301 506 CURVE SMOOTH",
"172 506 OFFCURVE",
"67 453 OFFCURVE",
"67 362 CURVE SMOOTH",
"67 315 OFFCURVE",
"94 281 OFFCURVE",
"145 281 CURVE SMOOTH",
"194 281 OFFCURVE",
"219 314 OFFCURVE",
"219 344 CURVE SMOOTH",
"219 370 OFFCURVE",
"200 392 OFFCURVE",
"183 399 CURVE",
"203 424 OFFCURVE",
"233 435 OFFCURVE",
"265 435 CURVE SMOOTH",
"328 435 OFFCURVE",
"362 395 OFFCURVE",
"362 329 CURVE SMOOTH",
"362 268 OFFCURVE",
"332 190 OFFCURVE",
"206 157 CURVE",
"339 153 LINE",
"472 188 OFFCURVE",
"539 244 OFFCURVE",
"539 346 CURVE SMOOTH {name = hr00;}"
);
},
{
closed = 1;
nodes = (
"589 84 OFFCURVE",
"501 164 OFFCURVE",
"375 171 CURVE",
"206 157 LINE",
"224 106 LINE",
"266 106 LINE SMOOTH",
"353 106 OFFCURVE",
"406 43 OFFCURVE",
"406 -26 CURVE SMOOTH",
"406 -96 OFFCURVE",
"353 -141 OFFCURVE",
"275 -141 CURVE SMOOTH",
"236 -141 OFFCURVE",
"196 -129 OFFCURVE",
"180 -114 CURVE",
"200 -97 OFFCURVE",
"207 -78 OFFCURVE",
"207 -60 CURVE SMOOTH",
"207 -24 OFFCURVE",
"178 4 OFFCURVE",
"133 4 CURVE SMOOTH",
"88 4 OFFCURVE",
"53 -23 OFFCURVE",
"53 -78 CURVE SMOOTH",
"53 -172 OFFCURVE",
"154 -229 OFFCURVE",
"293 -229 CURVE SMOOTH",
"465 -229 OFFCURVE",
"589 -143 OFFCURVE",
"589 -20 CURVE SMOOTH"
);
}
);
width = 639;
}
);
leftKerningGroup = three.tosf;
rightKerningGroup = three.tosf;
},
{
color = 9;
glyphname = four.tosf;
lastChange = "2018-06-05 03:00:37 +0000";
layers = (
{
layerId = "184835E3-72D9-430C-A639-2454AC4A0BE8";
paths = (
{
closed = 1;
nodes = (
"598 300 OFFCURVE",
"561 273 OFFCURVE",
"507 273 CURVE SMOOTH",
"197 273 LINE",
"380 640 LINE",
"457 710 LINE",
"340 710 LINE",
"56 240 LINE",
"82 191 LINE",
"482 191 LINE SMOOTH",
"633 191 OFFCURVE",
"679 231 OFFCURVE",
"679 287 CURVE SMOOTH",
"679 316 OFFCURVE",
"661 341 OFFCURVE",
"639 348 CURVE",
"616 348 LINE {name = hr00;}"
);
},
{
closed = 1;
nodes = (
"343 72 OFFCURVE",
"297 59 OFFCURVE",
"234 59 CURVE",
"234 39 OFFCURVE",
"241 14 OFFCURVE",
"256 0 CURVE",
"588 0 LINE",
"603 14 OFFCURVE",
"612 39 OFFCURVE",
"612 59 CURVE",
"542 59 OFFCURVE",
"507 71 OFFCURVE",
"507 113 CURVE SMOOTH",
"507 710 LINE",
"457 710 LINE",
"343 633 LINE",
"343 113 LINE SMOOTH"
);
}
);
width = 734;
}
);
leftKerningGroup = four.tosf;
rightKerningGroup = four.tosf;
},
{
color = 9;
glyphname = five.tosf;
lastChange = "2018-06-05 03:00:37 +0000";
layers = (
{
layerId = "184835E3-72D9-430C-A639-2454AC4A0BE8";
paths = (
{
closed = 1;
nodes = (
"200 -122 OFFCURVE",
"217 -100 OFFCURVE",
"217 -70 CURVE SMOOTH",
"217 -27 OFFCURVE",
"183 4 OFFCURVE",
"137 4 CURVE SMOOTH",
"90 4 OFFCURVE",
"51 -29 OFFCURVE",
"51 -85 CURVE SMOOTH",
"51 -169 OFFCURVE",
"144 -229 OFFCURVE",
"285 -229 CURVE SMOOTH",
"473 -229 OFFCURVE",
"574 -122 OFFCURVE",
"574 0 CURVE SMOOTH",
"574 123 OFFCURVE",
"475 226 OFFCURVE",
"329 226 CURVE SMOOTH",
"259 226 OFFCURVE",
"210 207 OFFCURVE",
"175 188 CURVE",
"198 153 LINE",
"229 443 LINE",
"112 383 LINE",
"113 382 OFFCURVE",
"115 381 OFFCURVE",
"118 381 CURVE SMOOTH",
"138 381 OFFCURVE",
"199 408 OFFCURVE",
"211 408 CURVE SMOOTH",
"294 408 OFFCURVE",
"314 346 OFFCURVE",
"409 346 CURVE SMOOTH",
"492 346 OFFCURVE",
"541 394 OFFCURVE",
"541 455 CURVE SMOOTH",
"541 486 OFFCURVE",
"530 513 OFFCURVE",
"512 527 CURVE",
"489 527 LINE",
"457 506 OFFCURVE",
"409 496 OFFCURVE",
"335 496 CURVE SMOOTH",
"107 496 LINE",
"93 160 LINE",
"132 116 LINE",
"162 129 OFFCURVE",
"208 137 OFFCURVE",
"245 137 CURVE SMOOTH",
"328 137 OFFCURVE",
"391 73 OFFCURVE",
"391 -13 CURVE SMOOTH",
"391 -90 OFFCURVE",
"340 -145 OFFCURVE",
"249 -145 CURVE SMOOTH",
"209 -145 OFFCURVE",
"175 -135 OFFCURVE",
"165 -125 CURVE",
"153 -143 LINE {name = hr00;}"
);
}
);
width = 625;
}
);
leftKerningGroup = five.tosf;
rightKerningGroup = five.tosf;
},
{
color = 9;
glyphname = six.tosf;
lastChange = "2018-06-05 03:00:37 +0000";
layers = (
{
layerId = "184835E3-72D9-430C-A639-2454AC4A0BE8";
paths = (
{
closed = 1;
nodes = (
"398 629 OFFCURVE",
"426 617 OFFCURVE",
"443 598 CURVE",
"420 585 OFFCURVE",
"406 561 OFFCURVE",
"406 535 CURVE SMOOTH",
"406 493 OFFCURVE",
"440 461 OFFCURVE",
"489 461 CURVE SMOOTH",
"541 461 OFFCURVE",
"571 500 OFFCURVE",
"571 551 CURVE SMOOTH",
"571 641 OFFCURVE",
"478 699 OFFCURVE",
"361 699 CURVE SMOOTH",
"193 699 OFFCURVE",
"52 583 OFFCURVE",
"52 327 CURVE SMOOTH",
"52 90 OFFCURVE",
"167 -16 OFFCURVE",
"333 -16 CURVE SMOOTH",
"495 -16 OFFCURVE",
"596 93 OFFCURVE",
"596 225 CURVE SMOOTH",
"596 345 OFFCURVE",
"503 424 OFFCURVE",
"379 424 CURVE SMOOTH",
"262 424 OFFCURVE",
"181 355 OFFCURVE",
"173 251 CURVE",
"216 235 LINE",
"216 305 OFFCURVE",
"264 342 OFFCURVE",
"327 342 CURVE SMOOTH",
"385 342 OFFCURVE",
"428 309 OFFCURVE",
"428 210 CURVE SMOOTH",
"428 104 OFFCURVE",
"386 59 OFFCURVE",
"335 59 CURVE SMOOTH",
"281 59 OFFCURVE",
"228 102 OFFCURVE",
"228 249 CURVE SMOOTH",
"228 271 OFFCURVE",
"229 295 OFFCURVE",
"232 321 CURVE",
"230 362 LINE",
"230 369 OFFCURVE",
"230 376 OFFCURVE",
"230 383 CURVE SMOOTH",
"230 565 OFFCURVE",
"292 629 OFFCURVE",
"366 629 CURVE SMOOTH {name = hr00;}"
);
}
);
width = 648;
}
);
leftKerningGroup = six.tosf;
rightKerningGroup = six.tosf;
},
{
color = 9;
glyphname = seven.tosf;
lastChange = "2018-06-05 03:00:37 +0000";
layers = (
{
layerId = "184835E3-72D9-430C-A639-2454AC4A0BE8";
paths = (
{
closed = 1;
nodes = (
"540 478 OFFCURVE",
"490 468 OFFCURVE",
"445 468 CURVE SMOOTH",
"357 468 OFFCURVE",
"295 506 OFFCURVE",
"202 506 CURVE SMOOTH {name = hr02;}",
"94 506 OFFCURVE",
"53 455 OFFCURVE",
"53 389 CURVE SMOOTH",
"53 338 OFFCURVE",
"78 303 OFFCURVE",
"104 283 CURVE",
"132 283 LINE",
"157 326 OFFCURVE",
"202 352 OFFCURVE",
"271 352 CURVE SMOOTH",
"313 352 LINE SMOOTH",
"406 352 OFFCURVE",
"475 369 OFFCURVE",
"521 396 CURVE",
"577 505 LINE {name = hr01;}"
);
},
{
closed = 1;
nodes = (
"221 -226 OFFCURVE",
"261 -229 OFFCURVE",
"288 -229 CURVE SMOOTH",
"391 -229 OFFCURVE",
"395 -185 OFFCURVE",
"398 -151 CURVE SMOOTH",
"414 26 OFFCURVE",
"411 201 OFFCURVE",
"612 456 CURVE",
"577 506 LINE",
"549 464 LINE",
"325 213 OFFCURVE",
"226 12 OFFCURVE",
"198 -211 CURVE"
);
}
);
width = 665;
}
);
leftKerningGroup = seven.tosf;
rightKerningGroup = seven.tosf;
},
{
color = 9;
glyphname = eight.tosf;
lastChange = "2018-06-05 03:00:37 +0000";
layers = (
{
layerId = "184835E3-72D9-430C-A639-2454AC4A0BE8";
paths = (
{
closed = 1;
nodes = (
"488 423 OFFCURVE",
"531 476 OFFCURVE",
"531 540 CURVE SMOOTH",
"531 613 OFFCURVE",
"475 697 OFFCURVE",
"318 697 CURVE SMOOTH",
"160 697 OFFCURVE",
"75 612 OFFCURVE",
"75 508 CURVE SMOOTH",
"75 433 OFFCURVE",
"120 380 OFFCURVE",
"180 347 CURVE",
"104 314 OFFCURVE",
"51 248 OFFCURVE",
"51 170 CURVE SMOOTH",
"51 76 OFFCURVE",
"129 -17 OFFCURVE",
"301 -17 CURVE SMOOTH",
"472 -17 OFFCURVE",
"576 75 OFFCURVE",
"576 193 CURVE SMOOTH",
"576 274 OFFCURVE",
"527 329 OFFCURVE",
"425 388 CURVE"
);
},
{
closed = 1;
nodes = (
"390 627 OFFCURVE",
"419 585 OFFCURVE",
"419 536 CURVE SMOOTH",
"419 491 OFFCURVE",
"396 454 OFFCURVE",
"351 423 CURVE",
"258 467 OFFCURVE",
"234 506 OFFCURVE",
"234 546 CURVE SMOOTH",
"234 594 OFFCURVE",
"269 627 OFFCURVE",
"326 627 CURVE SMOOTH"
);
},
{
closed = 1;
nodes = (
"225 57 OFFCURVE",
"178 115 OFFCURVE",
"178 185 CURVE SMOOTH",
"178 235 OFFCURVE",
"202 279 OFFCURVE",
"248 304 CURVE",
"370 258 OFFCURVE",
"406 212 OFFCURVE",
"406 158 CURVE SMOOTH",
"406 101 OFFCURVE",
"367 57 OFFCURVE",
"301 57 CURVE SMOOTH"
);
}
);
width = 627;
}
);
leftKerningGroup = eight.tosf;
rightKerningGroup = eight.tosf;
},
{
color = 9;
glyphname = nine.tosf;
lastChange = "2018-06-05 03:00:37 +0000";
layers = (
{
layerId = "184835E3-72D9-430C-A639-2454AC4A0BE8";
paths = (
{
closed = 1;
nodes = (
"247 -150 OFFCURVE",
"223 -140 OFFCURVE",
"204 -115 CURVE",
"236 -103 OFFCURVE",
"247 -79 OFFCURVE",
"247 -53 CURVE SMOOTH",
"247 -6 OFFCURVE",
"210 17 OFFCURVE",
"169 17 CURVE SMOOTH",
"116 17 OFFCURVE",
"82 -20 OFFCURVE",
"82 -74 CURVE SMOOTH",
"82 -164 OFFCURVE",
"180 -227 OFFCURVE",
"299 -227 CURVE SMOOTH",
"460 -227 OFFCURVE",
"594 -107 OFFCURVE",
"594 153 CURVE SMOOTH",
"594 158 OFFCURVE",
"594 164 OFFCURVE",
"594 170 CURVE SMOOTH",
"594 402 OFFCURVE",
"477 506 OFFCURVE",
"309 506 CURVE SMOOTH",
"141 506 OFFCURVE",
"52 400 OFFCURVE",
"52 270 CURVE SMOOTH",
"52 138 OFFCURVE",
"145 61 OFFCURVE",
"272 61 CURVE SMOOTH",
"384 61 OFFCURVE",
"467 121 OFFCURVE",
"473 207 CURVE",
"430 223 LINE",
"430 171 OFFCURVE",
"384 143 OFFCURVE",
"330 143 CURVE SMOOTH",
"266 143 OFFCURVE",
"216 184 OFFCURVE",
"216 288 CURVE SMOOTH",
"216 400 OFFCURVE",
"274 433 OFFCURVE",
"319 433 CURVE SMOOTH",
"368 433 OFFCURVE",
"418 395 OFFCURVE",
"418 217 CURVE SMOOTH",
"418 194 OFFCURVE",
"417 167 OFFCURVE",
"415 137 CURVE",
"416 97 LINE",
"416 92 OFFCURVE",
"416 86 OFFCURVE",
"416 81 CURVE SMOOTH",
"416 -92 OFFCURVE",
"362 -150 OFFCURVE",
"281 -150 CURVE SMOOTH {name = hr00;}"
);
}
);
width = 645;
}
);
leftKerningGroup = nine.tosf;
rightKerningGroup = nine.tosf;
},
{
glyphname = zero.zero;
lastChange = "2018-06-03 05:48:24 +0000";
layers = (
{
components = (
{
name = zero;
transform = "{1, 0, 0, 1, 0, 20}";
}
);
layerId = "184835E3-72D9-430C-A639-2454AC4A0BE8";
paths = (
{
closed = 1;
nodes = (
"456 81 LINE",
"735 982 LINE",
"655 1014 LINE",
"375 113 LINE"
);
}
);
width = 1034;
}
);
leftMetricsKey = zero;
widthMetricsKey = zero;
},
{
color = 9;
glyphname = zero.dnom;
lastChange = "2018-06-05 03:00:37 +0000";
layers = (
{
layerId = "184835E3-72D9-430C-A639-2454AC4A0BE8";
paths = (
{
closed = 1;
nodes = (
"350 -14 OFFCURVE",
"427 54 OFFCURVE",
"427 203 CURVE SMOOTH",
"427 351 OFFCURVE",
"351 412 OFFCURVE",
"235 412 CURVE SMOOTH",
"119 412 OFFCURVE",
"41 353 OFFCURVE",
"41 204 CURVE SMOOTH",
"41 56 OFFCURVE",
"117 -14 OFFCURVE",
"234 -14 CURVE SMOOTH"
);
},
{
closed = 1;
nodes = (
"195 26 OFFCURVE",
"164 65 OFFCURVE",
"164 202 CURVE SMOOTH",
"164 346 OFFCURVE",
"195 372 OFFCURVE",
"235 372 CURVE SMOOTH",
"274 372 OFFCURVE",
"305 346 OFFCURVE",
"305 204 CURVE SMOOTH",
"305 65 OFFCURVE",
"273 26 OFFCURVE",
"234 26 CURVE SMOOTH {name = hr00;}"
);
}
);
width = 469;
}
);
leftKerningGroup = zero;
rightKerningGroup = zero;
userData = {
com.typemytype.robofont.guides = (
{
angle = 0;
isGlobal = 0;
magnetic = 5;
x = 0;
y = -27;
}
);
};
},
{
color = 9;
glyphname = one.dnom;
lastChange = "2018-06-05 03:00:37 +0000";
layers = (
{
layerId = "184835E3-72D9-430C-A639-2454AC4A0BE8";
paths = (
{
closed = 1;
nodes = (
"227 407 OFFCURVE",
"218 426 OFFCURVE",
"188 426 CURVE SMOOTH",
"176 426 OFFCURVE",
"167 422 OFFCURVE",
"138 407 CURVE SMOOTH",
"33 354 LINE",
"50 316 LINE",
"63 320 OFFCURVE",
"80 323 OFFCURVE",
"93 323 CURVE SMOOTH",
"114 323 OFFCURVE",
"123 316 OFFCURVE",
"123 305 CURVE SMOOTH",
"123 107 LINE SMOOTH",
"123 66 OFFCURVE",
"94 49 OFFCURVE",
"49 49 CURVE",
"49 38 OFFCURVE",
"55 13 OFFCURVE",
"65 5 CURVE",
"282 5 LINE",
"292 13 OFFCURVE",
"297 38 OFFCURVE",
"297 49 CURVE",
"251 49 OFFCURVE",
"227 66 OFFCURVE",
"227 107 CURVE SMOOTH",
"227 394 LINE SMOOTH {name = hr00;}"
);
}
);
width = 328;
}
);
leftKerningGroup = one;
rightKerningGroup = one;
},
{
color = 9;
glyphname = two.dnom;
lastChange = "2018-06-05 03:00:37 +0000";
layers = (
{
layerId = "184835E3-72D9-430C-A639-2454AC4A0BE8";
paths = (
{
closed = 1;
nodes = (
"348 126 LINE",
"338 95 OFFCURVE",
"300 77 OFFCURVE",
"257 77 CURVE SMOOTH {name = hr03;}",
"211 77 LINE SMOOTH",
"179 77 OFFCURVE",
"149 72 OFFCURVE",
"118 60 CURVE",
"142 89 OFFCURVE",
"183 112 OFFCURVE",
"224 134 CURVE SMOOTH",
"296 173 OFFCURVE",
"370 212 OFFCURVE",
"370 291 CURVE SMOOTH",
"370 370 OFFCURVE",
"296 407 OFFCURVE",
"204 407 CURVE SMOOTH",
"102 407 OFFCURVE",
"37 361 OFFCURVE",
"37 307 CURVE SMOOTH",
"37 272 OFFCURVE",
"66 252 OFFCURVE",
"99 252 CURVE SMOOTH",
"129 252 OFFCURVE",
"159 270 OFFCURVE",
"159 296 CURVE SMOOTH",
"159 315 OFFCURVE",
"144 334 OFFCURVE",
"122 340 CURVE",
"136 357 OFFCURVE",
"157 366 OFFCURVE",
"183 366 CURVE SMOOTH",
"220 366 OFFCURVE",
"250 347 OFFCURVE",
"250 301 CURVE SMOOTH",
"250 242 OFFCURVE",
"203 203 OFFCURVE",
"153 160 CURVE SMOOTH",
"105 117 OFFCURVE",
"52 72 OFFCURVE",
"37 4 CURVE",
"59 -10 LINE {name = hr01;}",
"60 -9 LINE",
"59 -10 LINE",
"84 -2 OFFCURVE",
"112 2 OFFCURVE",
"141 2 CURVE SMOOTH",
"170 2 OFFCURVE",
"192 -1 OFFCURVE",
"212 -4 CURVE SMOOTH",
"231 -7 OFFCURVE",
"250 -9 OFFCURVE",
"272 -9 CURVE SMOOTH {name = hr02;}",
"361 -9 OFFCURVE",
"388 35 OFFCURVE",
"388 71 CURVE SMOOTH",
"388 94 OFFCURVE",
"377 115 OFFCURVE",
"363 126 CURVE"
);
}
);
width = 426;
}
);
leftKerningGroup = two;
rightKerningGroup = two;
},
{
color = 9;
glyphname = three.dnom;
lastChange = "2018-06-05 03:00:37 +0000";
layers = (
{
layerId = "184835E3-72D9-430C-A639-2454AC4A0BE8";
paths = (
{
closed = 1;
nodes = (
"336 230 OFFCURVE",
"365 261 OFFCURVE",
"365 310 CURVE SMOOTH {name = hr00;}",
"365 367 OFFCURVE",
"298 402 OFFCURVE",
"205 402 CURVE SMOOTH",
"119 402 OFFCURVE",
"48 371 OFFCURVE",
"48 319 CURVE SMOOTH",
"48 291 OFFCURVE",
"67 272 OFFCURVE",
"100 272 CURVE SMOOTH",
"134 272 OFFCURVE",
"151 291 OFFCURVE",
"151 308 CURVE SMOOTH",
"151 323 OFFCURVE",
"138 336 OFFCURVE",
"127 340 CURVE",
"140 354 OFFCURVE",
"161 362 OFFCURVE",
"182 361 CURVE SMOOTH",
"224 362 OFFCURVE",
"246 338 OFFCURVE",
"246 299 CURVE SMOOTH",
"246 264 OFFCURVE",
"227 223 OFFCURVE",
"142 203 CURVE",
"155 173 LINE",
"182 173 LINE SMOOTH",
"241 173 OFFCURVE",
"276 140 OFFCURVE",
"276 100 CURVE SMOOTH",
"276 59 OFFCURVE",
"241 34 OFFCURVE",
"189 33 CURVE SMOOTH",
"162 34 OFFCURVE",
"135 40 OFFCURVE",
"125 49 CURVE",
"138 59 OFFCURVE",
"142 70 OFFCURVE",
"142 80 CURVE SMOOTH",
"142 100 OFFCURVE",
"123 118 OFFCURVE",
"92 117 CURVE SMOOTH",
"62 118 OFFCURVE",
"39 102 OFFCURVE",
"39 69 CURVE SMOOTH",
"39 15 OFFCURVE",
"107 -18 OFFCURVE",
"201 -18 CURVE SMOOTH",
"317 -18 OFFCURVE",
"398 32 OFFCURVE",
"398 103 CURVE SMOOTH",
"398 159 OFFCURVE",
"350 199 OFFCURVE",
"276 209 CURVE"
);
}
);
width = 434;
}
);
leftKerningGroup = three;
rightKerningGroup = three;
},
{
color = 9;
glyphname = four.dnom;
lastChange = "2018-06-05 03:00:37 +0000";
layers = (
{
layerId = "184835E3-72D9-430C-A639-2454AC4A0BE8";
paths = (
{
closed = 1;
nodes = (
"411 179 OFFCURVE",
"386 164 OFFCURVE",
"349 164 CURVE SMOOTH",
"127 164 LINE",
"277 376 LINE",
"315 416 LINE",
"250 416 LINE",
"33 144 LINE",
"50 116 LINE",
"333 116 LINE SMOOTH",
"434 116 OFFCURVE",
"465 139 OFFCURVE",
"465 171 CURVE SMOOTH",
"465 188 OFFCURVE",
"453 203 OFFCURVE",
"438 207 CURVE",
"422 207 LINE {name = hr00;}"
);
},
{
closed = 1;
nodes = (
"239 47 OFFCURVE",
"208 39 OFFCURVE",
"166 39 CURVE",
"166 28 OFFCURVE",
"171 13 OFFCURVE",
"181 5 CURVE",
"404 5 LINE",
"414 13 OFFCURVE",
"420 28 OFFCURVE",
"420 39 CURVE",
"373 39 OFFCURVE",
"349 47 OFFCURVE",
"349 71 CURVE SMOOTH",
"349 416 LINE",
"315 416 LINE",
"239 372 LINE",
"239 71 LINE SMOOTH"
);
}
);
width = 506;
}
);
leftKerningGroup = four;
rightKerningGroup = four;
},
{
color = 9;
glyphname = five.dnom;
lastChange = "2018-06-05 03:00:37 +0000";
layers = (
{
layerId = "184835E3-72D9-430C-A639-2454AC4A0BE8";
paths = (
{
closed = 1;
nodes = (
"190 236 OFFCURVE",
"162 229 OFFCURVE",
"141 221 CURVE",
"156 340 LINE",
"203 336 OFFCURVE",
"219 305 OFFCURVE",
"279 305 CURVE SMOOTH",
"334 305 OFFCURVE",
"368 333 OFFCURVE",
"368 369 CURVE SMOOTH",
"368 386 OFFCURVE",
"360 403 OFFCURVE",
"348 410 CURVE",
"332 410 LINE",
"311 399 OFFCURVE",
"279 392 OFFCURVE",
"230 392 CURVE SMOOTH",
"76 392 LINE",
"67 198 LINE",
"92 172 LINE",
"113 180 OFFCURVE",
"143 184 OFFCURVE",
"169 184 CURVE SMOOTH",
"224 184 OFFCURVE",
"267 159 OFFCURVE",
"267 109 CURVE SMOOTH",
"267 65 OFFCURVE",
"232 33 OFFCURVE",
"171 33 CURVE SMOOTH",
"150 33 OFFCURVE",
"132 36 OFFCURVE",
"122 41 CURVE",
"142 51 OFFCURVE",
"150 61 OFFCURVE",
"150 76 CURVE SMOOTH",
"150 100 OFFCURVE",
"126 119 OFFCURVE",
"96 119 CURVE SMOOTH",
"65 119 OFFCURVE",
"38 99 OFFCURVE",
"38 67 CURVE SMOOTH",
"38 18 OFFCURVE",
"100 -16 OFFCURVE",
"195 -16 CURVE SMOOTH",
"322 -16 OFFCURVE",
"390 46 OFFCURVE",
"390 117 CURVE SMOOTH",
"390 187 OFFCURVE",
"323 236 OFFCURVE",
"225 236 CURVE SMOOTH"
);
}
);
width = 428;
}
);
leftKerningGroup = five;
rightKerningGroup = five;
},
{
color = 9;
glyphname = six.dnom;
lastChange = "2018-06-05 03:00:37 +0000";
layers = (
{
layerId = "184835E3-72D9-430C-A639-2454AC4A0BE8";
paths = (
{
closed = 1;
nodes = (
"217 243 OFFCURVE",
"183 232 OFFCURVE",
"158 213 CURVE",
"158 215 OFFCURVE",
"158 217 OFFCURVE",
"158 219 CURVE SMOOTH",
"158 325 OFFCURVE",
"201 363 OFFCURVE",
"250 363 CURVE SMOOTH {name = hr00;}",
"271 363 OFFCURVE",
"290 356 OFFCURVE",
"301 345 CURVE",
"286 338 OFFCURVE",
"277 323 OFFCURVE",
"277 309 CURVE SMOOTH",
"277 284 OFFCURVE",
"300 265 OFFCURVE",
"332 265 CURVE SMOOTH",
"368 265 OFFCURVE",
"388 289 OFFCURVE",
"388 318 CURVE SMOOTH",
"388 370 OFFCURVE",
"325 404 OFFCURVE",
"247 404 CURVE SMOOTH",
"133 404 OFFCURVE",
"39 334 OFFCURVE",
"39 186 CURVE SMOOTH",
"39 50 OFFCURVE",
"117 -16 OFFCURVE",
"228 -16 CURVE SMOOTH",
"336 -16 OFFCURVE",
"405 47 OFFCURVE",
"405 124 CURVE SMOOTH",
"405 197 OFFCURVE",
"342 243 OFFCURVE",
"259 243 CURVE SMOOTH"
);
},
{
closed = 1;
nodes = (
"193 28 OFFCURVE",
"158 57 OFFCURVE",
"158 141 CURVE SMOOTH",
"158 149 OFFCURVE",
"158 157 OFFCURVE",
"158 166 CURVE",
"171 186 OFFCURVE",
"195 195 OFFCURVE",
"224 195 CURVE SMOOTH",
"263 195 OFFCURVE",
"292 176 OFFCURVE",
"292 115 CURVE SMOOTH",
"292 54 OFFCURVE",
"264 28 OFFCURVE",
"230 28 CURVE SMOOTH"
);
}
);
width = 445;
}
);
leftKerningGroup = six;
rightKerningGroup = six;
},
{
color = 9;
glyphname = seven.dnom;
lastChange = "2018-06-05 03:00:37 +0000";
layers = (
{
layerId = "184835E3-72D9-430C-A639-2454AC4A0BE8";
paths = (
{
closed = 1;
nodes = (
"385 407 LINE",
"360 393 OFFCURVE",
"327 387 OFFCURVE",
"296 387 CURVE SMOOTH",
"237 387 OFFCURVE",
"196 409 OFFCURVE",
"133 409 CURVE SMOOTH {name = hr02;}",
"61 409 OFFCURVE",
"33 379 OFFCURVE",
"33 340 CURVE SMOOTH",
"33 311 OFFCURVE",
"50 291 OFFCURVE",
"68 279 CURVE",
"86 279 LINE",
"103 305 OFFCURVE",
"133 319 OFFCURVE",
"180 319 CURVE SMOOTH",
"208 319 LINE SMOOTH",
"252 319 OFFCURVE",
"288 325 OFFCURVE",
"316 332 CURVE",
"202 211 OFFCURVE",
"155 110 OFFCURVE",
"140 -3 CURVE",
"155 -13 OFFCURVE",
"181 -14 OFFCURVE",
"200 -14 CURVE SMOOTH",
"268 -14 OFFCURVE",
"272 12 OFFCURVE",
"274 31 CURVE SMOOTH",
"284 134 OFFCURVE",
"274 232 OFFCURVE",
"410 379 CURVE",
"385 409 LINE {name = hr01;}"
);
}
);
width = 441;
}
);
leftKerningGroup = seven;
rightKerningGroup = seven;
userData = {
com.typemytype.robofont.guides = (
{
angle = 0;
isGlobal = 0;
magnetic = 5;
x = 0;
y = -32;
}
);
};
},
{
color = 9;
glyphname = eight.dnom;
lastChange = "2018-06-05 03:00:37 +0000";
layers = (
{
layerId = "184835E3-72D9-430C-A639-2454AC4A0BE8";
paths = (
{
closed = 1;
nodes = (
"331 245 OFFCURVE",
"360 276 OFFCURVE",
"360 313 CURVE SMOOTH",
"360 355 OFFCURVE",
"323 404 OFFCURVE",
"217 404 CURVE SMOOTH",
"111 404 OFFCURVE",
"54 355 OFFCURVE",
"54 294 CURVE SMOOTH",
"54 251 OFFCURVE",
"84 221 OFFCURVE",
"124 195 CURVE",
"72 175 OFFCURVE",
"38 137 OFFCURVE",
"38 93 CURVE SMOOTH",
"38 38 OFFCURVE",
"89 -16 OFFCURVE",
"205 -16 CURVE SMOOTH",
"320 -16 OFFCURVE",
"390 37 OFFCURVE",
"390 106 CURVE SMOOTH",
"390 152 OFFCURVE",
"358 191 OFFCURVE",
"289 225 CURVE"
);
},
{
closed = 1;
nodes = (
"265 363 OFFCURVE",
"284 338 OFFCURVE",
"284 310 CURVE SMOOTH",
"284 285 OFFCURVE",
"269 263 OFFCURVE",
"240 245 CURVE",
"176 271 OFFCURVE",
"160 293 OFFCURVE",
"160 317 CURVE SMOOTH",
"160 344 OFFCURVE",
"184 363 OFFCURVE",
"222 363 CURVE SMOOTH"
);
},
{
closed = 1;
nodes = (
"154 27 OFFCURVE",
"123 61 OFFCURVE",
"123 100 CURVE SMOOTH",
"123 130 OFFCURVE",
"139 156 OFFCURVE",
"170 170 CURVE",
"251 143 OFFCURVE",
"277 117 OFFCURVE",
"277 85 CURVE SMOOTH",
"277 52 OFFCURVE",
"250 27 OFFCURVE",
"204 27 CURVE SMOOTH"
);
}
);
width = 428;
}
);
leftKerningGroup = eight;
rightKerningGroup = eight;
},
{
color = 9;
glyphname = nine.dnom;
lastChange = "2018-06-05 03:00:37 +0000";
layers = (
{
layerId = "184835E3-72D9-430C-A639-2454AC4A0BE8";
paths = (
{
closed = 1;
nodes = (
"101 493 OFFCURVE",
"42 431 OFFCURVE",
"42 355 CURVE SMOOTH",
"42 279 OFFCURVE",
"103 234 OFFCURVE",
"189 234 CURVE SMOOTH",
"228 234 OFFCURVE",
"262 243 OFFCURVE",
"286 260 CURVE",
"286 246 LINE SMOOTH",
"286 151 OFFCURVE",
"249 117 OFFCURVE",
"195 117 CURVE SMOOTH {name = hr00;}",
"173 117 OFFCURVE",
"157 123 OFFCURVE",
"143 138 CURVE",
"165 145 OFFCURVE",
"173 158 OFFCURVE",
"173 174 CURVE SMOOTH",
"173 200 OFFCURVE",
"148 214 OFFCURVE",
"120 214 CURVE SMOOTH",
"85 214 OFFCURVE",
"62 193 OFFCURVE",
"62 161 CURVE SMOOTH",
"62 109 OFFCURVE",
"128 73 OFFCURVE",
"207 73 CURVE SMOOTH",
"316 73 OFFCURVE",
"406 143 OFFCURVE",
"406 288 CURVE SMOOTH",
"406 298 LINE SMOOTH",
"406 432 OFFCURVE",
"327 493 OFFCURVE",
"214 493 CURVE SMOOTH"
);
},
{
closed = 1;
nodes = (
"185 282 OFFCURVE",
"152 306 OFFCURVE",
"152 366 CURVE SMOOTH",
"152 431 OFFCURVE",
"191 450 OFFCURVE",
"221 450 CURVE SMOOTH",
"253 450 OFFCURVE",
"287 428 OFFCURVE",
"287 325 CURVE SMOOTH",
"287 318 OFFCURVE",
"287 312 OFFCURVE",
"287 304 CURVE",
"275 289 OFFCURVE",
"253 282 OFFCURVE",
"229 282 CURVE SMOOTH"
);
}
);
width = 443;
}
);
leftKerningGroup = nine;
rightKerningGroup = nine;
},
{
color = 9;
glyphname = fraction;
lastChange = "2018-06-05 17:23:52 +0000";
layers = (
{
layerId = "184835E3-72D9-430C-A639-2454AC4A0BE8";
paths = (
{
closed = 1;
nodes = (
"-85 -10 LINE",
"209 731 LINE",
"143 731 LINE",
"-150 -11 LINE"
);
}
);
width = 59;
}
);
unicode = 2044;
},
{
color = 4;
glyphname = period;
lastChange = "2018-06-05 17:18:22 +0000";
layers = (
{
layerId = "184835E3-72D9-430C-A639-2454AC4A0BE8";
paths = (
{
closed = 1;
nodes = (
"229 146 OFFCURVE",
"188 185 OFFCURVE",
"128 185 CURVE SMOOTH",
"67 185 OFFCURVE",
"26 146 OFFCURVE",
"26 86 CURVE SMOOTH",
"26 27 OFFCURVE",
"67 -13 OFFCURVE",
"128 -13 CURVE SMOOTH",
"188 -13 OFFCURVE",
"229 27 OFFCURVE",
"229 86 CURVE SMOOTH {name = hr00;}"
);
}
);
width = 255;
}
);
leftKerningGroup = period;
rightKerningGroup = period;
unicode = 002E;
},
{
color = 4;
glyphname = comma;
lastChange = "2018-06-05 17:18:22 +0000";
layers = (
{
layerId = "184835E3-72D9-430C-A639-2454AC4A0BE8";
paths = (
{
closed = 1;
nodes = (
"154 -194 OFFCURVE",
"242 -98 OFFCURVE",
"242 32 CURVE SMOOTH",
"242 130 OFFCURVE",
"191 179 OFFCURVE",
"125 179 CURVE SMOOTH",
"67 179 OFFCURVE",
"26 140 OFFCURVE",
"26 80 CURVE SMOOTH",
"26 32 OFFCURVE",
"58 -13 OFFCURVE",
"119 -13 CURVE SMOOTH",
"124 -13 OFFCURVE",
"129 -12 OFFCURVE",
"134 -11 CURVE",
"135 -16 OFFCURVE",
"136 -20 OFFCURVE",
"136 -24 CURVE SMOOTH",
"136 -79 OFFCURVE",
"95 -137 OFFCURVE",
"34 -171 CURVE",
"34 -192 OFFCURVE",
"50 -213 OFFCURVE",
"66 -218 CURVE {name = hr00;}"
);
}
);
width = 264;
}
);
leftKerningGroup = period;
rightKerningGroup = period;
unicode = 002C;
},
{
color = 4;
glyphname = exclam;
lastChange = "2018-06-05 17:19:27 +0000";
layers = (
{
layerId = "184835E3-72D9-430C-A639-2454AC4A0BE8";
paths = (
{
closed = 1;
nodes = (
"230 146 OFFCURVE",
"190 185 OFFCURVE",
"128 185 CURVE SMOOTH",
"68 185 OFFCURVE",
"28 146 OFFCURVE",
"28 86 CURVE SMOOTH",
"28 27 OFFCURVE",
"68 -13 OFFCURVE",
"128 -13 CURVE SMOOTH",
"190 -13 OFFCURVE",
"230 27 OFFCURVE",
"230 86 CURVE SMOOTH {name = hr00;}"
);
},
{
closed = 1;
nodes = (
"219 699 LINE SMOOTH",
"220 707 OFFCURVE",
"221 714 OFFCURVE",
"221 720 CURVE SMOOTH",
"221 768 OFFCURVE",
"195 788 OFFCURVE",
"150 788 CURVE SMOOTH",
"107 788 LINE SMOOTH",
"62 788 OFFCURVE",
"37 768 OFFCURVE",
"37 720 CURVE SMOOTH",
"37 714 OFFCURVE",
"37 707 OFFCURVE",
"38 699 CURVE SMOOTH",
"87 308 LINE",
"169 308 LINE"
);
}
);
width = 257;
}
);
leftKerningGroup = exclam;
rightKerningGroup = exclam;
unicode = 0021;
userData = {
com.typemytype.robofont.guides = (
{
angle = 90;
isGlobal = 0;
magnetic = 5;
x = 429;
y = 0;
}
);
};
},
{
color = 4;
glyphname = exclamdown;
lastChange = "2018-06-05 17:19:27 +0000";
layers = (
{
layerId = "184835E3-72D9-430C-A639-2454AC4A0BE8";
paths = (
{
closed = 1;
nodes = (
"28 370 OFFCURVE",
"68 331 OFFCURVE",
"129 331 CURVE SMOOTH",
"190 331 OFFCURVE",
"230 370 OFFCURVE",
"230 429 CURVE SMOOTH",
"230 489 OFFCURVE",
"190 529 OFFCURVE",
"129 529 CURVE SMOOTH",
"68 529 OFFCURVE",
"28 489 OFFCURVE",
"28 429 CURVE SMOOTH {name = hr00;}"
);
},
{
closed = 1;
nodes = (
"38 -183 LINE SMOOTH",
"37 -191 OFFCURVE",
"37 -198 OFFCURVE",
"37 -204 CURVE SMOOTH",
"37 -252 OFFCURVE",
"62 -272 OFFCURVE",
"108 -272 CURVE SMOOTH",
"151 -272 LINE SMOOTH",
"195 -272 OFFCURVE",
"221 -252 OFFCURVE",
"221 -204 CURVE SMOOTH",
"221 -198 OFFCURVE",
"220 -191 OFFCURVE",
"219 -183 CURVE SMOOTH",
"170 208 LINE",
"88 208 LINE"
);
}
);
width = 257;
}
);
leftKerningGroup = exclamdown;
rightKerningGroup = exclamdown;
unicode = 00A1;
},
{
color = 4;
glyphname = question;
lastChange = "2018-06-05 17:19:27 +0000";
layers = (
{
layerId = "184835E3-72D9-430C-A639-2454AC4A0BE8";
paths = (
{
closed = 1;
nodes = (
"394 146 OFFCURVE",
"355 185 OFFCURVE",
"293 185 CURVE SMOOTH",
"232 185 OFFCURVE",
"193 146 OFFCURVE",
"193 86 CURVE SMOOTH",
"193 27 OFFCURVE",
"232 -13 OFFCURVE",
"293 -13 CURVE SMOOTH",
"355 -13 OFFCURVE",
"394 27 OFFCURVE",
"394 86 CURVE SMOOTH {name = hr00;}"
);
},
{
closed = 1;
nodes = (
"143 784 OFFCURVE",
"46 696 OFFCURVE",
"46 599 CURVE SMOOTH",
"46 527 OFFCURVE",
"101 489 OFFCURVE",
"149 489 CURVE SMOOTH",
"195 489 OFFCURVE",
"238 524 OFFCURVE",
"238 573 CURVE SMOOTH",
"238 616 OFFCURVE",
"204 644 OFFCURVE",
"171 655 CURVE",
"191 688 OFFCURVE",
"228 707 OFFCURVE",
"269 707 CURVE SMOOTH",
"320 707 OFFCURVE",
"360 677 OFFCURVE",
"360 604 CURVE SMOOTH",
"360 512 OFFCURVE",
"296 445 OFFCURVE",
"213 394 CURVE",
"240 267 LINE",
"336 267 LINE",
"317 371 LINE",
"440 416 OFFCURVE",
"538 493 OFFCURVE",
"538 603 CURVE SMOOTH",
"538 709 OFFCURVE",
"444 784 OFFCURVE",
"300 784 CURVE SMOOTH"
);
}
);
width = 584;
}
);
leftKerningGroup = question;
rightKerningGroup = question;
unicode = 003F;
},
{
color = 4;
glyphname = questiondown;
lastChange = "2018-06-05 17:19:27 +0000";
layers = (
{
layerId = "184835E3-72D9-430C-A639-2454AC4A0BE8";
paths = (
{
closed = 1;
nodes = (
"441 -272 OFFCURVE",
"538 -184 OFFCURVE",
"538 -87 CURVE SMOOTH",
"538 -15 OFFCURVE",
"483 22 OFFCURVE",
"435 22 CURVE SMOOTH",
"390 22 OFFCURVE",
"346 -12 OFFCURVE",
"346 -61 CURVE SMOOTH",
"346 -104 OFFCURVE",
"381 -132 OFFCURVE",
"414 -143 CURVE",
"394 -176 OFFCURVE",
"356 -195 OFFCURVE",
"316 -195 CURVE SMOOTH",
"264 -195 OFFCURVE",
"225 -165 OFFCURVE",
"225 -92 CURVE SMOOTH",
"225 0 OFFCURVE",
"288 67 OFFCURVE",
"371 118 CURVE",
"344 245 LINE",
"249 245 LINE",
"267 141 LINE",
"145 96 OFFCURVE",
"46 19 OFFCURVE",
"46 -91 CURVE SMOOTH",
"46 -197 OFFCURVE",
"140 -272 OFFCURVE",
"284 -272 CURVE SMOOTH"
);
},
{
closed = 1;
nodes = (
"173 370 OFFCURVE",
"213 331 OFFCURVE",
"274 331 CURVE SMOOTH",
"334 331 OFFCURVE",
"375 370 OFFCURVE",
"375 430 CURVE SMOOTH",
"375 490 OFFCURVE",
"334 529 OFFCURVE",
"274 529 CURVE SMOOTH",
"213 529 OFFCURVE",
"173 490 OFFCURVE",
"173 430 CURVE SMOOTH {name = hr00;}"
);
}
);
width = 584;
}
);
leftKerningGroup = questiondown;
rightKerningGroup = questiondown;
unicode = 00BF;
},
{
color = 4;
glyphname = periodcentered;
lastChange = "2018-06-05 17:18:58 +0000";
layers = (
{
layerId = "184835E3-72D9-430C-A639-2454AC4A0BE8";
paths = (
{
closed = 1;
nodes = (
"229 332 OFFCURVE",
"188 371 OFFCURVE",
"128 371 CURVE SMOOTH",
"67 371 OFFCURVE",
"26 332 OFFCURVE",
"26 272 CURVE SMOOTH",
"26 213 OFFCURVE",
"67 173 OFFCURVE",
"128 173 CURVE SMOOTH",
"188 173 OFFCURVE",
"229 213 OFFCURVE",
"229 272 CURVE SMOOTH {name = hr00;}"
);
}
);
width = 255;
}
);
leftKerningGroup = anoteleia;
rightKerningGroup = anoteleia;
unicode = 00B7;
},
{
color = 9;
glyphname = bullet;
lastChange = "2018-06-05 03:00:37 +0000";
layers = (
{
layerId = "184835E3-72D9-430C-A639-2454AC4A0BE8";
paths = (
{
closed = 1;
nodes = (
"351 600 OFFCURVE",
"289 661 OFFCURVE",
"194 661 CURVE SMOOTH",
"98 661 OFFCURVE",
"37 600 OFFCURVE",
"37 507 CURVE SMOOTH",
"37 414 OFFCURVE",
"98 352 OFFCURVE",
"194 352 CURVE SMOOTH",
"289 352 OFFCURVE",
"351 414 OFFCURVE",
"351 507 CURVE SMOOTH {name = hr00;}"
);
}
);
width = 388;
}
);
leftKerningGroup = bullet;
rightKerningGroup = bullet;
unicode = 2022;
},
{
color = 9;
glyphname = asterisk;
lastChange = "2018-06-05 17:20:19 +0000";
layers = (
{
layerId = "184835E3-72D9-430C-A639-2454AC4A0BE8";
paths = (
{
closed = 1;
nodes = (
"303 1035 OFFCURVE",
"280 1005 OFFCURVE",
"280 968 CURVE SMOOTH",
"280 955 OFFCURVE",
"283 942 OFFCURVE",
"288 929 CURVE SMOOTH",
"351 779 LINE",
"388 779 LINE",
"393 1035 LINE",
"353 1035 LINE SMOOTH {name = hr01;}"
);
},
{
closed = 1;
nodes = (
"119 843 OFFCURVE",
"118 833 OFFCURVE",
"118 825 CURVE SMOOTH",
"118 780 OFFCURVE",
"158 755 OFFCURVE",
"204 758 CURVE SMOOTH",
"367 772 LINE",
"379 807 LINE",
"135 891 LINE",
"122 853 LINE SMOOTH"
);
},
{
closed = 1;
nodes = (
"245 563 OFFCURVE",
"261 558 OFFCURVE",
"275 558 CURVE SMOOTH",
"308 558 OFFCURVE",
"334 586 OFFCURVE",
"344 623 CURVE SMOOTH",
"383 783 LINE",
"352 804 LINE",
"197 599 LINE",
"228 576 LINE SMOOTH"
);
},
{
closed = 1;
nodes = (
"551 613 OFFCURVE",
"562 633 OFFCURVE",
"562 653 CURVE SMOOTH",
"562 678 OFFCURVE",
"546 704 OFFCURVE",
"519 721 CURVE SMOOTH",
"379 805 LINE {name = hr02;}",
"349 783 LINE",
"497 574 LINE",
"528 596 LINE SMOOTH"
);
},
{
closed = 1;
nodes = (
"582 919 OFFCURVE",
"558 936 OFFCURVE",
"531 936 CURVE SMOOTH",
"512 936 OFFCURVE",
"491 927 OFFCURVE",
"473 912 CURVE SMOOTH",
"351 804 LINE",
"362 769 LINE",
"606 846 LINE",
"594 882 LINE SMOOTH"
);
}
);
width = 594;
}
);
leftKerningGroup = asterisk;
rightKerningGroup = asterisk;
unicode = 002A;
},
{
color = 9;
glyphname = numbersign;
lastChange = "2018-06-05 03:00:37 +0000";
layers = (
{
layerId = "184835E3-72D9-430C-A639-2454AC4A0BE8";
paths = (
{
closed = 1;
nodes = (
"188 -1 OFFCURVE",
"219 4 OFFCURVE",
"243 14 CURVE",
"342 712 LINE",
"312 712 OFFCURVE",
"280 707 OFFCURVE",
"258 698 CURVE",
"158 -1 LINE {name = hr00;}"
);
},
{
closed = 1;
nodes = (
"394 -1 OFFCURVE",
"425 4 OFFCURVE",
"449 14 CURVE",
"548 712 LINE",
"519 712 OFFCURVE",
"488 707 OFFCURVE",
"465 698 CURVE",
"365 -1 LINE"
);
},
{
closed = 1;
nodes = (
"612 226 OFFCURVE",
"622 256 OFFCURVE",
"626 285 CURVE",
"89 286 LINE",
"76 264 OFFCURVE",
"66 234 OFFCURVE",
"62 204 CURVE",
"599 205 LINE"
);
},
{
closed = 1;
nodes = (
"641 445 OFFCURVE",
"651 474 OFFCURVE",
"655 503 CURVE",
"118 504 LINE",
"106 482 OFFCURVE",
"95 451 OFFCURVE",
"91 423 CURVE",
"628 423 LINE"
);
}
);
width = 717;
}
);
leftKerningGroup = numbersign;
rightKerningGroup = numbersign;
unicode = 0023;
},
{
color = 9;
glyphname = slash;
lastChange = "2018-06-05 03:00:37 +0000";
layers = (
{
layerId = "184835E3-72D9-430C-A639-2454AC4A0BE8";
paths = (
{
closed = 1;
nodes = (
"66 -193 OFFCURVE",
"110 -207 OFFCURVE",
"135 -208 CURVE",
"434 716 LINE",
"414 735 OFFCURVE",
"371 749 OFFCURVE",
"346 750 CURVE",
"46 -175 LINE {name = hr00;}"
);
}
);
width = 480;
}
);
leftKerningGroup = slash;
rightKerningGroup = slash;
unicode = 002F;
},
{
color = 9;
glyphname = backslash;
lastChange = "2018-06-05 03:00:37 +0000";
layers = (
{
layerId = "184835E3-72D9-430C-A639-2454AC4A0BE8";
paths = (
{
closed = 1;
nodes = (
"126 724 LINE",
"45 693 LINE",
"321 -160 LINE",
"403 -129 LINE {name = hr00;}"
);
}
);
width = 447;
}
);
leftKerningGroup = backslash;
rightKerningGroup = backslash;
unicode = 005C;
},
{
color = 9;
glyphname = periodcentered.case;
lastChange = "2018-06-05 03:00:37 +0000";
layers = (
{
layerId = "184835E3-72D9-430C-A639-2454AC4A0BE8";
paths = (
{
closed = 1;
nodes = (
"229 682 OFFCURVE",
"188 721 OFFCURVE",
"128 721 CURVE SMOOTH",
"67 721 OFFCURVE",
"26 682 OFFCURVE",
"26 622 CURVE SMOOTH",
"26 563 OFFCURVE",
"67 523 OFFCURVE",
"128 523 CURVE SMOOTH",
"188 523 OFFCURVE",
"229 563 OFFCURVE",
"229 622 CURVE SMOOTH {name = hr00;}"
);
}
);
width = 255;
}
);
},
{
color = 9;
glyphname = bullet.case;
lastChange = "2018-06-05 03:00:37 +0000";
layers = (
{
layerId = "184835E3-72D9-430C-A639-2454AC4A0BE8";
paths = (
{
closed = 1;
nodes = (
"351 670 OFFCURVE",
"289 731 OFFCURVE",
"194 731 CURVE SMOOTH",
"98 731 OFFCURVE",
"37 670 OFFCURVE",
"37 577 CURVE SMOOTH",
"37 484 OFFCURVE",
"98 422 OFFCURVE",
"194 422 CURVE SMOOTH",
"289 422 OFFCURVE",
"351 484 OFFCURVE",
"351 577 CURVE SMOOTH {name = hr00;}"
);
}
);
width = 388;
}
);
},
{
color = 9;
glyphname = periodcentered.loclCAT.case;
lastChange = "2018-06-05 03:00:37 +0000";
layers = (
{
layerId = "184835E3-72D9-430C-A639-2454AC4A0BE8";
paths = (
{
closed = 1;
nodes = (
"229 682 OFFCURVE",
"188 721 OFFCURVE",
"128 721 CURVE SMOOTH",
"67 721 OFFCURVE",
"26 682 OFFCURVE",
"26 622 CURVE SMOOTH",
"26 563 OFFCURVE",
"67 523 OFFCURVE",
"128 523 CURVE SMOOTH",
"188 523 OFFCURVE",
"229 563 OFFCURVE",
"229 622 CURVE SMOOTH {name = hr00;}"
);
}
);
width = 255;
}
);
},
{
color = 9;
glyphname = slash.case;
lastChange = "2018-06-05 03:00:37 +0000";
layers = (
{
layerId = "184835E3-72D9-430C-A639-2454AC4A0BE8";
paths = (
{
closed = 1;
nodes = (
"66 -193 OFFCURVE",
"110 -207 OFFCURVE",
"135 -208 CURVE",
"434 716 LINE",
"414 735 OFFCURVE",
"371 749 OFFCURVE",
"346 750 CURVE",
"46 -175 LINE {name = hr00;}"
);
}
);
width = 480;
}
);
},
{
color = 9;
glyphname = backslash.case;
lastChange = "2018-06-05 03:00:37 +0000";
layers = (
{
layerId = "184835E3-72D9-430C-A639-2454AC4A0BE8";
paths = (
{
closed = 1;
nodes = (
"126 724 LINE",
"45 693 LINE",
"321 -160 LINE",
"403 -129 LINE {name = hr00;}"
);
}
);
width = 447;
}
);
},
{
color = 9;
glyphname = periodcentered.loclCAT;
lastChange = "2018-06-05 03:00:37 +0000";
layers = (
{
layerId = "184835E3-72D9-430C-A639-2454AC4A0BE8";
paths = (
{
closed = 1;
nodes = (
"229 682 OFFCURVE",
"188 721 OFFCURVE",
"128 721 CURVE SMOOTH",
"67 721 OFFCURVE",
"26 682 OFFCURVE",
"26 622 CURVE SMOOTH",
"26 563 OFFCURVE",
"67 523 OFFCURVE",
"128 523 CURVE SMOOTH",
"188 523 OFFCURVE",
"229 563 OFFCURVE",
"229 622 CURVE SMOOTH {name = hr00;}"
);
}
);
width = 255;
}
);
},
{
color = 9;
glyphname = parenleft;
lastChange = "2018-06-05 03:00:37 +0000";
layers = (
{
layerId = "184835E3-72D9-430C-A639-2454AC4A0BE8";
paths = (
{
closed = 1;
nodes = (
"208 511 OFFCURVE",
"285 713 OFFCURVE",
"405 746 CURVE",
"405 787 LINE",
"181 779 OFFCURVE",
"42 560 OFFCURVE",
"42 332 CURVE SMOOTH",
"42 104 OFFCURVE",
"181 -115 OFFCURVE",
"405 -123 CURVE",
"405 -83 LINE",
"285 -49 OFFCURVE",
"208 153 OFFCURVE",
"208 332 CURVE SMOOTH {name = hr00;}"
);
}
);
width = 442;
}
);
leftKerningGroup = parenleft;
rightKerningGroup = parenleft;
unicode = 0028;
},
{
color = 9;
glyphname = parenright;
lastChange = "2018-06-05 03:00:37 +0000";
layers = (
{
layerId = "184835E3-72D9-430C-A639-2454AC4A0BE8";
paths = (
{
closed = 1;
nodes = (
"218 176 OFFCURVE",
"146 -10 OFFCURVE",
"35 -41 CURVE",
"35 -78 LINE",
"243 -71 OFFCURVE",
"370 131 OFFCURVE",
"370 341 CURVE SMOOTH",
"370 552 OFFCURVE",
"243 754 OFFCURVE",
"35 761 CURVE",
"35 723 LINE",
"146 692 OFFCURVE",
"218 507 OFFCURVE",
"218 341 CURVE SMOOTH {name = hr00;}"
);
}
);
width = 412;
}
);
leftKerningGroup = parenright;
rightKerningGroup = parenright;
unicode = 0029;
},
{
color = 9;
glyphname = braceleft;
lastChange = "2018-06-05 03:00:37 +0000";
layers = (
{
layerId = "184835E3-72D9-430C-A639-2454AC4A0BE8";
paths = (
{
closed = 1;
nodes = (
"243 355 OFFCURVE",
"285 401 OFFCURVE",
"285 468 CURVE SMOOTH",
"285 583 LINE SMOOTH",
"285 683 OFFCURVE",
"328 713 OFFCURVE",
"397 713 CURVE SMOOTH",
"433 713 LINE",
"444 732 OFFCURVE",
"449 750 OFFCURVE",
"449 771 CURVE",
"394 771 LINE SMOOTH",
"206 771 OFFCURVE",
"120 678 OFFCURVE",
"120 525 CURVE SMOOTH",
"120 437 LINE SMOOTH",
"120 385 OFFCURVE",
"81 347 OFFCURVE",
"44 347 CURVE",
"44 302 LINE",
"81 302 OFFCURVE",
"120 264 OFFCURVE",
"120 213 CURVE SMOOTH",
"120 124 LINE SMOOTH",
"120 -29 OFFCURVE",
"206 -122 OFFCURVE",
"394 -122 CURVE SMOOTH",
"449 -122 LINE",
"449 -101 OFFCURVE",
"444 -83 OFFCURVE",
"433 -63 CURVE",
"397 -63 LINE SMOOTH",
"328 -63 OFFCURVE",
"285 -34 OFFCURVE",
"285 66 CURVE SMOOTH",
"285 181 LINE SMOOTH",
"285 248 OFFCURVE",
"243 294 OFFCURVE",
"161 325 CURVE {name = hr00;}"
);
}
);
width = 490;
}
);
leftKerningGroup = braceleft;
rightKerningGroup = braceleft;
unicode = 007B;
userData = {
com.typemytype.robofont.guides = (
{
angle = 0;
isGlobal = 0;
magnetic = 5;
x = 0;
y = 934;
}
);
};
},
{
color = 9;
glyphname = braceright;
lastChange = "2018-06-05 03:00:37 +0000";
layers = (
{
layerId = "184835E3-72D9-430C-A639-2454AC4A0BE8";
paths = (
{
closed = 1;
nodes = (
"229 305 OFFCURVE",
"191 263 OFFCURVE",
"191 201 CURVE SMOOTH",
"191 95 LINE SMOOTH",
"191 2 OFFCURVE",
"150 -25 OFFCURVE",
"87 -25 CURVE SMOOTH",
"53 -25 LINE",
"44 -43 OFFCURVE",
"39 -59 OFFCURVE",
"39 -79 CURVE",
"90 -79 LINE SMOOTH",
"263 -79 OFFCURVE",
"342 7 OFFCURVE",
"342 149 CURVE SMOOTH",
"342 230 LINE SMOOTH",
"342 277 OFFCURVE",
"378 313 OFFCURVE",
"413 313 CURVE",
"413 353 LINE",
"378 353 OFFCURVE",
"342 389 OFFCURVE",
"342 437 CURVE SMOOTH",
"342 518 LINE SMOOTH",
"342 659 OFFCURVE",
"263 745 OFFCURVE",
"90 745 CURVE SMOOTH",
"39 745 LINE",
"39 726 OFFCURVE",
"44 709 OFFCURVE",
"53 691 CURVE",
"87 691 LINE SMOOTH",
"150 691 OFFCURVE",
"191 663 OFFCURVE",
"191 572 CURVE SMOOTH",
"191 466 LINE SMOOTH",
"191 404 OFFCURVE",
"229 361 OFFCURVE",
"305 333 CURVE {name = hr00;}"
);
}
);
width = 455;
}
);
leftKerningGroup = braceright;
rightKerningGroup = braceright;
unicode = 007D;
},
{
color = 9;
glyphname = bracketleft;
lastChange = "2018-06-05 03:00:37 +0000";
layers = (
{
layerId = "184835E3-72D9-430C-A639-2454AC4A0BE8";
paths = (
{
closed = 1;
nodes = (
"284 709 LINE",
"295 732 OFFCURVE",
"300 752 OFFCURVE",
"300 777 CURVE",
"34 777 LINE",
"34 -131 LINE",
"300 -131 LINE",
"300 -106 OFFCURVE",
"295 -85 OFFCURVE",
"284 -63 CURVE",
"185 -63 LINE",
"185 709 LINE {name = hr00;}"
);
}
);
width = 329;
}
);
leftKerningGroup = bracketleft;
rightKerningGroup = bracketleft;
unicode = 005B;
},
{
color = 9;
glyphname = bracketright;
lastChange = "2018-06-05 03:00:37 +0000";
layers = (
{
layerId = "184835E3-72D9-430C-A639-2454AC4A0BE8";
paths = (
{
closed = 1;
nodes = (
"134 -24 LINE",
"43 -24 LINE",
"33 -44 OFFCURVE",
"28 -63 OFFCURVE",
"28 -86 CURVE",
"274 -86 LINE",
"274 752 LINE",
"28 752 LINE",
"28 728 OFFCURVE",
"33 710 OFFCURVE",
"43 689 CURVE",
"134 689 LINE {name = hr00;}"
);
}
);
width = 307;
}
);
leftKerningGroup = bracketright;
rightKerningGroup = bracketright;
unicode = 005D;
},
{
color = 9;
glyphname = parenright.case;
lastChange = "2018-06-05 03:00:37 +0000";
layers = (
{
layerId = "184835E3-72D9-430C-A639-2454AC4A0BE8";
paths = (
{
closed = 1;
nodes = (
"218 176 OFFCURVE",
"146 -10 OFFCURVE",
"35 -41 CURVE",
"35 -78 LINE",
"243 -71 OFFCURVE",
"370 131 OFFCURVE",
"370 341 CURVE SMOOTH",
"370 552 OFFCURVE",
"243 754 OFFCURVE",
"35 761 CURVE",
"35 723 LINE",
"146 692 OFFCURVE",
"218 507 OFFCURVE",
"218 341 CURVE SMOOTH {name = hr00;}"
);
}
);
width = 388;
}
);
},
{
color = 9;
glyphname = braceleft.case;
lastChange = "2018-06-05 03:00:37 +0000";
layers = (
{
layerId = "184835E3-72D9-430C-A639-2454AC4A0BE8";
paths = (
{
closed = 1;
nodes = (
"243 355 OFFCURVE",
"285 401 OFFCURVE",
"285 468 CURVE SMOOTH",
"285 583 LINE SMOOTH",
"285 683 OFFCURVE",
"328 713 OFFCURVE",
"397 713 CURVE SMOOTH",
"433 713 LINE",
"444 732 OFFCURVE",
"449 750 OFFCURVE",
"449 771 CURVE",
"394 771 LINE SMOOTH",
"206 771 OFFCURVE",
"120 678 OFFCURVE",
"120 525 CURVE SMOOTH",
"120 437 LINE SMOOTH",
"120 385 OFFCURVE",
"81 347 OFFCURVE",
"44 347 CURVE",
"44 302 LINE",
"81 302 OFFCURVE",
"120 264 OFFCURVE",
"120 213 CURVE SMOOTH",
"120 124 LINE SMOOTH",
"120 -29 OFFCURVE",
"206 -122 OFFCURVE",
"394 -122 CURVE SMOOTH",
"449 -122 LINE",
"449 -101 OFFCURVE",
"444 -83 OFFCURVE",
"433 -63 CURVE",
"397 -63 LINE SMOOTH",
"328 -63 OFFCURVE",
"285 -34 OFFCURVE",
"285 66 CURVE SMOOTH",
"285 181 LINE SMOOTH",
"285 248 OFFCURVE",
"243 294 OFFCURVE",
"161 325 CURVE {name = hr00;}"
);
}
);
width = 465;
}
);
},
{
color = 9;
glyphname = braceright.case;
lastChange = "2018-06-05 03:00:37 +0000";
layers = (
{
layerId = "184835E3-72D9-430C-A639-2454AC4A0BE8";
paths = (
{
closed = 1;
nodes = (
"229 305 OFFCURVE",
"191 263 OFFCURVE",
"191 201 CURVE SMOOTH",
"191 95 LINE SMOOTH",
"191 2 OFFCURVE",
"150 -25 OFFCURVE",
"87 -25 CURVE SMOOTH",
"53 -25 LINE",
"44 -43 OFFCURVE",
"39 -59 OFFCURVE",
"39 -79 CURVE",
"90 -79 LINE SMOOTH",
"263 -79 OFFCURVE",
"342 7 OFFCURVE",
"342 149 CURVE SMOOTH",
"342 230 LINE SMOOTH",
"342 277 OFFCURVE",
"378 313 OFFCURVE",
"413 313 CURVE",
"413 353 LINE",
"378 353 OFFCURVE",
"342 389 OFFCURVE",
"342 437 CURVE SMOOTH",
"342 518 LINE SMOOTH",
"342 659 OFFCURVE",
"263 745 OFFCURVE",
"90 745 CURVE SMOOTH",
"39 745 LINE",
"39 726 OFFCURVE",
"44 709 OFFCURVE",
"53 691 CURVE",
"87 691 LINE SMOOTH",
"150 691 OFFCURVE",
"191 663 OFFCURVE",
"191 572 CURVE SMOOTH",
"191 466 LINE SMOOTH",
"191 404 OFFCURVE",
"229 361 OFFCURVE",
"305 333 CURVE {name = hr00;}"
);
}
);
width = 430;
}
);
},
{
color = 9;
glyphname = bracketleft.case;
lastChange = "2018-06-05 03:00:37 +0000";
layers = (
{
layerId = "184835E3-72D9-430C-A639-2454AC4A0BE8";
paths = (
{
closed = 1;
nodes = (
"284 709 LINE",
"295 732 OFFCURVE",
"300 752 OFFCURVE",
"300 777 CURVE",
"34 777 LINE",
"34 -131 LINE",
"300 -131 LINE",
"300 -106 OFFCURVE",
"295 -85 OFFCURVE",
"284 -63 CURVE",
"185 -63 LINE",
"185 709 LINE {name = hr00;}"
);
}
);
width = 314;
}
);
},
{
color = 9;
glyphname = bracketright.case;
lastChange = "2018-06-05 03:00:37 +0000";
layers = (
{
layerId = "184835E3-72D9-430C-A639-2454AC4A0BE8";
paths = (
{
closed = 1;
nodes = (
"134 -24 LINE",
"43 -24 LINE",
"33 -44 OFFCURVE",
"28 -63 OFFCURVE",
"28 -86 CURVE",
"274 -86 LINE",
"274 752 LINE",
"28 752 LINE",
"28 728 OFFCURVE",
"33 710 OFFCURVE",
"43 689 CURVE",
"134 689 LINE {name = hr00;}"
);
}
);
width = 293;
}
);
},
{
color = 9;
glyphname = hyphen;
lastChange = "2018-06-05 16:47:42 +0000";
layers = (
{
layerId = "184835E3-72D9-430C-A639-2454AC4A0BE8";
paths = (
{
closed = 1;
nodes = (
"43 305 OFFCURVE",
"41 277 OFFCURVE",
"41 258 CURVE SMOOTH",
"41 242 OFFCURVE",
"43 225 OFFCURVE",
"48 214 CURVE",
"402 214 LINE",
"406 223 OFFCURVE",
"408 241 OFFCURVE",
"408 258 CURVE SMOOTH",
"408 275 OFFCURVE",
"406 303 OFFCURVE",
"401 314 CURVE",
"48 314 LINE {name = hr00;}"
);
}
);
width = 450;
}
);
leftKerningGroup = hyphen;
rightKerningGroup = hyphen;
unicode = 002D;
},
{
color = 9;
glyphname = softhyphen;
lastChange = "2018-06-05 16:48:17 +0000";
layers = (
{
layerId = "184835E3-72D9-430C-A639-2454AC4A0BE8";
paths = (
{
closed = 1;
nodes = (
"47 305 OFFCURVE",
"44 277 OFFCURVE",
"44 258 CURVE SMOOTH",
"44 242 OFFCURVE",
"46 225 OFFCURVE",
"51 214 CURVE",
"446 214 LINE",
"449 223 OFFCURVE",
"452 241 OFFCURVE",
"452 258 CURVE SMOOTH",
"452 275 OFFCURVE",
"449 303 OFFCURVE",
"445 314 CURVE",
"51 314 LINE {name = hr00;}"
);
}
);
width = 496;
}
);
leftKerningGroup = hyphen;
rightKerningGroup = hyphen;
unicode = 00AD;
},
{
color = 9;
glyphname = endash;
lastChange = "2018-06-05 16:48:31 +0000";
layers = (
{
layerId = "184835E3-72D9-430C-A639-2454AC4A0BE8";
paths = (
{
closed = 1;
nodes = (
"45 305 OFFCURVE",
"43 277 OFFCURVE",
"43 258 CURVE SMOOTH",
"43 242 OFFCURVE",
"45 225 OFFCURVE",
"49 214 CURVE",
"646 214 LINE",
"650 223 OFFCURVE",
"652 241 OFFCURVE",
"652 258 CURVE SMOOTH",
"652 275 OFFCURVE",
"650 303 OFFCURVE",
"646 314 CURVE",
"49 314 LINE {name = hr00;}"
);
}
);
width = 727;
}
);
leftKerningGroup = hyphen;
rightKerningGroup = hyphen;
unicode = 2013;
},
{
color = 9;
glyphname = emdash;
lastChange = "2018-06-05 16:48:46 +0000";
layers = (
{
layerId = "184835E3-72D9-430C-A639-2454AC4A0BE8";
paths = (
{
closed = 1;
nodes = (
"80 305 OFFCURVE",
"78 277 OFFCURVE",
"78 258 CURVE SMOOTH",
"78 242 OFFCURVE",
"79 225 OFFCURVE",
"85 214 CURVE",
"935 214 LINE",
"940 223 OFFCURVE",
"942 241 OFFCURVE",
"942 258 CURVE SMOOTH",
"942 275 OFFCURVE",
"940 303 OFFCURVE",
"935 314 CURVE",
"85 314 LINE {name = hr00;}"
);
}
);
width = 1020;
}
);
leftKerningGroup = hyphen;
rightKerningGroup = hyphen;
unicode = 2014;
},
{
color = 9;
glyphname = figuredash;
lastChange = "2018-06-05 16:48:56 +0000";
layers = (
{
layerId = "184835E3-72D9-430C-A639-2454AC4A0BE8";
paths = (
{
closed = 1;
nodes = (
"57 305 OFFCURVE",
"55 277 OFFCURVE",
"55 258 CURVE SMOOTH",
"55 242 OFFCURVE",
"56 225 OFFCURVE",
"61 214 CURVE",
"598 214 LINE",
"601 223 OFFCURVE",
"603 241 OFFCURVE",
"603 258 CURVE SMOOTH",
"603 275 OFFCURVE",
"601 303 OFFCURVE",
"598 314 CURVE",
"61 314 LINE {name = hr00;}"
);
}
);
width = 659;
}
);
unicode = 2012;
},
{
color = 0;
glyphname = underscore;
lastChange = "2018-06-05 01:30:30 +0000";
layers = (
{
layerId = "184835E3-72D9-430C-A639-2454AC4A0BE8";
paths = (
{
closed = 1;
nodes = (
"1054 -392 LINE",
"1054 -270 LINE",
"46 -270 LINE",
"46 -392 LINE {name = hr00;}"
);
}
);
width = 1100;
}
);
leftKerningGroup = underscore;
rightKerningGroup = underscore;
unicode = 005F;
},
{
color = 0;
glyphname = hyphen.case;
lastChange = "2018-06-05 01:30:30 +0000";
layers = (
{
layerId = "184835E3-72D9-430C-A639-2454AC4A0BE8";
paths = (
{
closed = 1;
nodes = (
"76 695 OFFCURVE",
"73 668 OFFCURVE",
"73 639 CURVE SMOOTH",
"73 614 OFFCURVE",
"76 588 OFFCURVE",
"83 571 CURVE",
"628 571 LINE",
"634 585 OFFCURVE",
"637 612 OFFCURVE",
"637 638 CURVE SMOOTH",
"637 665 OFFCURVE",
"634 693 OFFCURVE",
"627 710 CURVE",
"84 710 LINE {name = hr00;}"
);
}
);
width = 710;
}
);
},
{
color = 0;
glyphname = endash.case;
lastChange = "2018-06-05 01:30:30 +0000";
layers = (
{
layerId = "184835E3-72D9-430C-A639-2454AC4A0BE8";
paths = (
{
closed = 1;
nodes = (
"98 695 OFFCURVE",
"95 668 OFFCURVE",
"95 639 CURVE SMOOTH",
"95 614 OFFCURVE",
"97 588 OFFCURVE",
"104 571 CURVE",
"1022 571 LINE",
"1028 585 OFFCURVE",
"1031 612 OFFCURVE",
"1031 638 CURVE SMOOTH",
"1031 665 OFFCURVE",
"1028 693 OFFCURVE",
"1022 710 CURVE",
"104 710 LINE {name = hr00;}"
);
}
);
width = 1126;
}
);
},
{
color = 0;
glyphname = emdash.case;
lastChange = "2018-06-05 01:30:30 +0000";
layers = (
{
layerId = "184835E3-72D9-430C-A639-2454AC4A0BE8";
paths = (
{
closed = 1;
nodes = (
"120 695 OFFCURVE",
"117 668 OFFCURVE",
"117 639 CURVE SMOOTH",
"117 614 OFFCURVE",
"119 588 OFFCURVE",
"127 571 CURVE",
"1436 571 LINE",
"1443 585 OFFCURVE",
"1446 612 OFFCURVE",
"1446 638 CURVE SMOOTH",
"1446 665 OFFCURVE",
"1443 693 OFFCURVE",
"1436 710 CURVE",
"127 710 LINE {name = hr00;}"
);
}
);
width = 1563;
}
);
},
{
color = 9;
glyphname = quoteleft;
lastChange = "2018-06-05 03:00:37 +0000";
layers = (
{
layerId = "184835E3-72D9-430C-A639-2454AC4A0BE8";
paths = (
{
closed = 1;
nodes = (
"115 1202 OFFCURVE",
"27 1106 OFFCURVE",
"27 978 CURVE SMOOTH",
"27 879 OFFCURVE",
"77 830 OFFCURVE",
"143 830 CURVE SMOOTH",
"202 830 OFFCURVE",
"243 868 OFFCURVE",
"243 929 CURVE SMOOTH",
"243 976 OFFCURVE",
"210 1021 OFFCURVE",
"149 1021 CURVE SMOOTH",
"144 1021 OFFCURVE",
"139 1020 OFFCURVE",
"133 1020 CURVE",
"133 1025 OFFCURVE",
"133 1029 OFFCURVE",
"133 1033 CURVE SMOOTH",
"133 1087 OFFCURVE",
"172 1145 OFFCURVE",
"234 1180 CURVE",
"234 1201 OFFCURVE",
"219 1222 OFFCURVE",
"202 1227 CURVE {name = hr00;}"
);
}
);
width = 270;
}
);
leftKerningGroup = quotedblleft;
rightKerningGroup = quotedblleft;
unicode = 2018;
},
{
color = 9;
glyphname = quoteright;
lastChange = "2018-06-05 03:00:37 +0000";
layers = (
{
layerId = "184835E3-72D9-430C-A639-2454AC4A0BE8";
paths = (
{
closed = 1;
nodes = (
"155 855 OFFCURVE",
"243 951 OFFCURVE",
"243 1080 CURVE SMOOTH",
"243 1178 OFFCURVE",
"193 1227 OFFCURVE",
"126 1227 CURVE SMOOTH",
"68 1227 OFFCURVE",
"27 1189 OFFCURVE",
"27 1128 CURVE SMOOTH",
"27 1081 OFFCURVE",
"59 1036 OFFCURVE",
"120 1036 CURVE SMOOTH",
"125 1036 OFFCURVE",
"130 1037 OFFCURVE",
"136 1037 CURVE",
"136 1032 OFFCURVE",
"137 1028 OFFCURVE",
"137 1024 CURVE SMOOTH",
"137 970 OFFCURVE",
"97 912 OFFCURVE",
"35 877 CURVE",
"35 857 OFFCURVE",
"51 835 OFFCURVE",
"68 830 CURVE {name = hr00;}"
);
}
);
width = 270;
}
);
leftKerningGroup = quotedblleft;
rightKerningGroup = quotedblleft;
unicode = 2019;
},
{
glyphname = quotereversed;
lastChange = "2018-06-03 05:48:24 +0000";
layers = (
{
layerId = "184835E3-72D9-430C-A639-2454AC4A0BE8";
paths = (
{
closed = 1;
nodes = (
"359 946 OFFCURVE",
"383 979 OFFCURVE",
"383 1011 CURVE",
"289 1063 OFFCURVE",
"227 1153 OFFCURVE",
"227 1236 CURVE SMOOTH",
"227 1243 OFFCURVE",
"228 1249 OFFCURVE",
"229 1256 CURVE",
"237 1255 OFFCURVE",
"245 1255 OFFCURVE",
"253 1255 CURVE SMOOTH",
"346 1255 OFFCURVE",
"396 1324 OFFCURVE",
"396 1396 CURVE SMOOTH",
"396 1489 OFFCURVE",
"333 1549 OFFCURVE",
"244 1549 CURVE SMOOTH",
"142 1549 OFFCURVE",
"64 1473 OFFCURVE",
"64 1322 CURVE SMOOTH",
"64 1123 OFFCURVE",
"199 976 OFFCURVE",
"334 938 CURVE {name = hr00;}"
);
}
);
width = 457;
}
);
leftKerningGroup = quotereversed;
rightKerningGroup = quotereversed;
unicode = 201B;
},
{
glyphname = guillemetleft;
lastChange = "2018-06-03 21:12:06 +0000";
layers = (
{
layerId = "184835E3-72D9-430C-A639-2454AC4A0BE8";
paths = (
{
closed = 1;
nodes = (
"424 764 LINE",
"407 798 OFFCURVE",
"381 817 OFFCURVE",
"350 830 CURVE",
"50 541 LINE",
"50 447 LINE",
"350 157 LINE",
"381 171 OFFCURVE",
"407 190 OFFCURVE",
"424 223 CURVE",
"245 552 LINE",
"245 435 LINE {name = hr00;}"
);
},
{
closed = 1;
nodes = (
"786 764 LINE",
"769 798 OFFCURVE",
"743 817 OFFCURVE",
"712 830 CURVE",
"412 541 LINE",
"412 447 LINE",
"712 157 LINE",
"743 171 OFFCURVE",
"769 190 OFFCURVE",
"786 223 CURVE",
"607 552 LINE",
"607 435 LINE {name = hr00;}"
);
}
);
width = 856;
}
);
unicode = 00AB;
},
{
glyphname = guillemetright;
lastChange = "2018-06-03 21:11:56 +0000";
layers = (
{
layerId = "184835E3-72D9-430C-A639-2454AC4A0BE8";
paths = (
{
closed = 1;
nodes = (
"611 552 LINE",
"432 223 LINE",
"449 190 OFFCURVE",
"475 171 OFFCURVE",
"506 157 CURVE",
"806 447 LINE",
"806 541 LINE",
"506 830 LINE",
"475 817 OFFCURVE",
"449 798 OFFCURVE",
"432 764 CURVE",
"611 435 LINE {name = hr00;}"
);
},
{
closed = 1;
nodes = (
"249 552 LINE",
"70 223 LINE",
"87 190 OFFCURVE",
"113 171 OFFCURVE",
"144 157 CURVE",
"444 447 LINE",
"444 541 LINE",
"144 830 LINE",
"113 817 OFFCURVE",
"87 798 OFFCURVE",
"70 764 CURVE",
"249 435 LINE {name = hr00;}"
);
}
);
width = 856;
}
);
leftKerningGroup = guillemetright;
rightKerningGroup = guillemetright;
unicode = 00BB;
},
{
color = 9;
glyphname = guilsinglleft;
lastChange = "2018-06-05 03:00:37 +0000";
layers = (
{
layerId = "184835E3-72D9-430C-A639-2454AC4A0BE8";
paths = (
{
closed = 1;
nodes = (
"270 552 LINE",
"259 574 OFFCURVE",
"242 586 OFFCURVE",
"222 594 CURVE",
"27 407 LINE",
"27 346 LINE",
"222 157 LINE",
"242 166 OFFCURVE",
"259 178 OFFCURVE",
"270 200 CURVE",
"154 414 LINE",
"154 338 LINE {name = hr00;}"
);
}
);
width = 301;
}
);
leftKerningGroup = guillemotleft;
rightKerningGroup = guillemotleft;
unicode = 2039;
},
{
color = 9;
glyphname = guilsinglright;
lastChange = "2018-06-05 03:00:37 +0000";
layers = (
{
layerId = "184835E3-72D9-430C-A639-2454AC4A0BE8";
paths = (
{
closed = 1;
nodes = (
"147 413 LINE",
"31 199 LINE",
"42 177 OFFCURVE",
"59 165 OFFCURVE",
"79 156 CURVE",
"274 345 LINE",
"274 406 LINE",
"79 593 LINE",
"59 585 OFFCURVE",
"42 573 OFFCURVE",
"31 551 CURVE",
"147 337 LINE {name = hr00;}"
);
}
);
width = 301;
}
);
leftKerningGroup = guillemotright;
rightKerningGroup = guillemotright;
unicode = 203A;
},
{
glyphname = quotesingle;
lastChange = "2018-06-03 05:48:24 +0000";
layers = (
{
layerId = "184835E3-72D9-430C-A639-2454AC4A0BE8";
paths = (
{
closed = 1;
nodes = (
"245 1526 OFFCURVE",
"204 1530 OFFCURVE",
"164 1530 CURVE SMOOTH",
"122 1530 OFFCURVE",
"79 1525 OFFCURVE",
"60 1519 CURVE",
"92 952 LINE",
"115 943 OFFCURVE",
"150 938 OFFCURVE",
"183 938 CURVE SMOOTH",
"204 938 OFFCURVE",
"225 940 OFFCURVE",
"240 945 CURVE",
"264 1519 LINE {name = hr00;}"
);
}
);
width = 324;
}
);
leftKerningGroup = quotesingle;
rightKerningGroup = quotesingle;
unicode = 0027;
},
{
color = 0;
glyphname = "leftanglebracket-math";
lastChange = "2018-06-03 21:14:56 +0000";
layers = (
{
layerId = "184835E3-72D9-430C-A639-2454AC4A0BE8";
paths = (
{
closed = 1;
nodes = (
"296 1137 LINE",
"50 564 LINE",
"296 -10 LINE",
"368 21 LINE",
"135 564 LINE",
"368 1106 LINE"
);
}
);
width = 600;
}
);
unicode = 27E8;
},
{
glyphname = .notdef;
lastChange = "2018-06-03 05:48:24 +0000";
layers = (
{
layerId = "184835E3-72D9-430C-A639-2454AC4A0BE8";
paths = (
{
closed = 1;
nodes = (
"521 513 LINE",
"283 747 LINE",
"362 827 LINE",
"592 583 LINE",
"818 826 LINE",
"901 746 LINE",
"660 515 LINE",
"901 278 LINE",
"823 199 LINE",
"590 444 LINE",
"365 199 LINE",
"284 293 LINE"
);
},
{
closed = 1;
nodes = (
"1081 25 LINE",
"1081 1005 LINE",
"101 1005 LINE",
"101 25 LINE"
);
}
);
width = 1182;
}
);
leftKerningGroup = .notdef;
rightKerningGroup = .notdef;
},
{
color = 9;
glyphname = cent;
lastChange = "2018-06-05 03:00:37 +0000";
layers = (
{
layerId = "184835E3-72D9-430C-A639-2454AC4A0BE8";
paths = (
{
closed = 1;
nodes = (
"405 -18 OFFCURVE",
"371 -28 OFFCURVE",
"335 -28 CURVE SMOOTH",
"258 -28 OFFCURVE",
"210 19 OFFCURVE",
"210 171 CURVE SMOOTH",
"210 307 OFFCURVE",
"257 348 OFFCURVE",
"296 348 CURVE SMOOTH {name = hr02;}",
"304 348 OFFCURVE",
"312 348 OFFCURVE",
"326 340 CURVE",
"308 328 OFFCURVE",
"293 310 OFFCURVE",
"293 283 CURVE SMOOTH",
"293 243 OFFCURVE",
"324 211 OFFCURVE",
"369 211 CURVE SMOOTH",
"419 211 OFFCURVE",
"455 245 OFFCURVE",
"455 307 CURVE SMOOTH",
"455 374 OFFCURVE",
"404 419 OFFCURVE",
"302 419 CURVE SMOOTH {name = hr03;}",
"153 419 OFFCURVE",
"41 313 OFFCURVE",
"41 135 CURVE SMOOTH",
"41 -36 OFFCURVE",
"141 -139 OFFCURVE",
"287 -139 CURVE SMOOTH",
"390 -139 OFFCURVE",
"449 -86 OFFCURVE",
"449 -48 CURVE SMOOTH",
"449 -34 OFFCURVE",
"442 -11 OFFCURVE",
"431 1 CURVE {name = hr01;}"
);
},
{
closed = 1;
nodes = (
"291 551 OFFCURVE",
"278 554 OFFCURVE",
"265 554 CURVE SMOOTH",
"256 554 OFFCURVE",
"247 553 OFFCURVE",
"239 549 CURVE",
"239 391 LINE {name = hr04;}",
"251 385 OFFCURVE",
"265 382 OFFCURVE",
"279 382 CURVE SMOOTH",
"288 382 OFFCURVE",
"297 384 OFFCURVE",
"304 387 CURVE {name = hr05;}",
"304 545 LINE"
);
},
{
closed = 1;
nodes = (
"291 -92 OFFCURVE",
"278 -88 OFFCURVE",
"265 -88 CURVE SMOOTH",
"256 -88 OFFCURVE",
"247 -90 OFFCURVE",
"239 -94 CURVE",
"239 -252 LINE",
"251 -257 OFFCURVE",
"265 -260 OFFCURVE",
"279 -260 CURVE SMOOTH",
"288 -260 OFFCURVE",
"297 -259 OFFCURVE",
"304 -255 CURVE",
"304 -97 LINE"
);
}
);
width = 495;
}
);
leftKerningGroup = o;
rightKerningGroup = c;
unicode = 00A2;
},
